<svg width="20" height="20" viewBox="0 0 20 20" fill="none" xmlns="http://www.w3.org/2000/svg">
<path d="M1.46839 0.400391H18.5444C19.1324 0.400391 19.6004 0.868391 19.6004 1.45639V18.5444C19.6004 19.1204 19.1324 19.6004 18.5444 19.6004H13.6484V12.1604H16.1444L16.5164 9.26839H13.6484V7.42039C13.6484 6.58039 13.8884 6.00439 15.0884 6.00439H16.6244V3.41239C16.3604 3.37639 15.4484 3.30439 14.3924 3.30439C12.1724 3.30439 10.6604 4.64839 10.6604 7.13239V9.26839H8.15239V12.1604H10.6604V19.6004H1.46839C1.18721 19.6004 0.917359 19.4895 0.717412 19.2918C0.517464 19.0941 0.40355 18.8256 0.400391 18.5444V1.45639C0.400391 0.868391 0.880391 0.400391 1.46839 0.400391Z" fill="#454545"/>
</svg>
