<svg width="60" height="65" viewBox="0 0 60 65" fill="none" xmlns="http://www.w3.org/2000/svg">
<mask id="path-1-inside-1_1753_3271" fill="white">
<path fill-rule="evenodd" clip-rule="evenodd" d="M67 65L67 26.5909C51.8624 26.5909 39.5909 14.6858 39.5909 -1.73057e-06L0 7.62939e-06C-1.27207e-06 35.8985 29.9969 65 67 65Z"/>
</mask>
<path fill-rule="evenodd" clip-rule="evenodd" d="M67 65L67 26.5909C51.8624 26.5909 39.5909 14.6858 39.5909 -1.73057e-06L0 7.62939e-06C-1.27207e-06 35.8985 29.9969 65 67 65Z" fill="#FFD873"/>
<path d="M67 65L67 90L92 90L92 65L67 65ZM67 26.5909L92 26.5909L92 1.59089L67 1.59089L67 26.5909ZM39.5909 -2.46188e-05L64.5909 -2.57115e-05L64.5909 -25L39.5909 -25L39.5909 -2.46188e-05ZM-2.84124e-06 -1.52588e-05L-8.75167e-06 -25L-25 -25L-25 -1.4166e-05L-2.84124e-06 -1.52588e-05ZM92 65L92 26.5909L42 26.5909L42 65L92 65ZM14.5909 -2.3526e-05C14.5909 29.2016 38.7748 51.5909 67 51.5909L67 1.59089C66.083 1.59089 65.4326 1.25296 65.0267 0.859143C64.6341 0.478269 64.5909 0.193135 64.5909 -2.57115e-05L14.5909 -2.3526e-05ZM3.06919e-06 25L39.5909 25L39.5909 -25L-8.75167e-06 -25L3.06919e-06 25ZM67 40C43.0845 40 25 21.3826 25 -8.72218e-06L-25 -1.4166e-05C-25 50.4144 16.9094 90 67 90L67 40Z" fill="#FFD873" mask="url(#path-1-inside-1_1753_3271)"/>
</svg>
