<svg width="613" height="445" viewBox="0 0 613 445" fill="none" xmlns="http://www.w3.org/2000/svg">
<path d="M45.0212 8.84005C48.0212 2.74005 54.6212 -0.759943 61.3212 0.140057L306.121 30.7401L550.921 0.140057C557.621 -0.659943 564.221 2.84005 567.221 8.84005L608.921 92.2401C617.921 110.14 608.321 131.84 589.121 137.34L425.721 184.04C411.821 188.04 396.921 182.14 389.521 169.74L306.121 30.7401L222.721 169.74C215.321 182.14 200.421 188.04 186.521 184.04L23.2212 137.34C3.92116 131.84 -5.57884 110.14 3.42116 92.2401L45.0212 8.84005ZM307.221 94.7401L362.121 186.14C377.021 210.94 406.721 222.74 434.621 214.74L562.121 178.34V345.34C562.121 367.34 547.121 386.54 525.721 391.94L321.621 442.94C311.421 445.54 300.721 445.54 290.621 442.94L86.5212 391.94C65.1212 386.44 50.1212 367.24 50.1212 345.24V178.24L177.721 214.74C205.521 222.74 235.321 210.94 250.221 186.14L305.021 94.7401H307.221V94.7401Z" fill="white"/>
</svg>