<svg width="32" height="32" viewBox="0 0 32 32" fill="none" xmlns="http://www.w3.org/2000/svg">
    <g clip-path="url(#clip0_1499_11153)">
    <path d="M3.88792 21.3669H2.12903V17.8403C2.12903 14.933 4.37721 12.6747 7.03756 12.6747H11.9461V19.4794V20.8702H13.3368H18.8802H19.5653L19.9829 20.327L25.4632 13.1969L25.7513 12.8221V12.3493V8.00573V6.85507C25.9792 7.16787 26.1195 7.56292 26.1195 8.00573V13.024L19.7069 21.3669H13.3368H11.9461V22.7576C11.9461 24.7634 10.4066 26.2842 8.61238 26.2842C6.81818 26.2842 5.27867 24.7634 5.27867 22.7576V21.3669H3.88792ZM24.3606 6.11829C24.7987 6.11829 25.2218 6.30274 25.5431 6.61499H24.3606H21.0269V6.11829H24.3606ZM2.49717 19.4794V20.8702H3.88792H10.1872H11.5779V19.4794V14.5621V13.1714H10.1872H7.03756C4.48525 13.1714 2.49717 15.3222 2.49717 17.8403V19.4794ZM7.03756 21.3669H5.64681V22.7576C5.64681 24.3742 6.92623 25.7875 8.61238 25.7875C10.2985 25.7875 11.5779 24.3742 11.5779 22.7576V21.3669H10.1872H7.03756Z" fill="#FEFEFE" stroke="#FEFEFE" stroke-width="2.7815"/>
    <path d="M4.5625 6.00195H12.4366V9.33619H4.5625V6.00195ZM26.61 17.6718C23.9958 17.6718 21.8855 19.9057 21.8855 22.6731C21.8855 25.4405 23.9958 27.6745 26.61 27.6745C29.2242 27.6745 31.3344 25.4405 31.3344 22.6731C31.3344 19.9057 29.2242 17.6718 26.61 17.6718ZM26.61 24.3402C25.7438 24.3402 25.0352 23.59 25.0352 22.6731C25.0352 21.7562 25.7438 21.006 26.61 21.006C27.4761 21.006 28.1848 21.7562 28.1848 22.6731C28.1848 23.59 27.4761 24.3402 26.61 24.3402Z" fill="#FEFEFE"/>
    </g>
    <defs>
    <clipPath id="clip0_1499_11153">
    <rect width="30.5965" height="30.5965" fill="white" transform="translate(0.738281 0.90332)"/>
    </clipPath>
    </defs>
</svg>