<svg width="44" height="44" viewBox="0 0 44 44" fill="none" xmlns="http://www.w3.org/2000/svg">
<path d="M4.52941 29.4286H2V24.3571C2 20.1763 5.23305 16.9286 9.05882 16.9286H16.1176V26.7143V28.7143H18.1176H26.0894H27.0747L27.6751 27.9331L35.5563 17.6795L35.9706 17.1405V16.4607V10.2143V8.55955C36.2983 9.00938 36.5 9.57748 36.5 10.2143V17.4309L27.2783 29.4286H18.1176H16.1176V31.4286C16.1176 34.313 13.9037 36.5 11.3235 36.5C8.74334 36.5 6.52941 34.313 6.52941 31.4286V29.4286H4.52941ZM33.9706 7.5C34.6007 7.5 35.209 7.76525 35.6712 8.21429H33.9706H29.1765V7.5H33.9706ZM2.52941 26.7143V28.7143H4.52941H13.5882H15.5882V26.7143V19.6429V17.6429H13.5882H9.05882C5.38842 17.6429 2.52941 20.7359 2.52941 24.3571V26.7143ZM9.05882 29.4286H7.05882V31.4286C7.05882 33.7534 8.89872 35.7857 11.3235 35.7857C13.7483 35.7857 15.5882 33.7534 15.5882 31.4286V29.4286H13.5882H9.05882Z" fill="#FEFEFE" stroke="#FEFEFE" stroke-width="4"/>
<path d="M5.5 7.33301H16.8235V12.1279H5.5V7.33301ZM37.2059 24.1151C33.4465 24.1151 30.4118 27.3276 30.4118 31.3074C30.4118 35.2871 33.4465 38.4997 37.2059 38.4997C40.9653 38.4997 44 35.2871 44 31.3074C44 27.3276 40.9653 24.1151 37.2059 24.1151ZM37.2059 33.7048C35.9603 33.7048 34.9412 32.626 34.9412 31.3074C34.9412 29.9888 35.9603 28.9099 37.2059 28.9099C38.4515 28.9099 39.4706 29.9888 39.4706 31.3074C39.4706 32.626 38.4515 33.7048 37.2059 33.7048Z" fill="#FEFEFE"/>
</svg>
