<svg width="234" height="243" viewBox="0 0 234 243" fill="none" xmlns="http://www.w3.org/2000/svg">
<mask id="path-1-inside-1_1588_4327" fill="white">
<path fill-rule="evenodd" clip-rule="evenodd" d="M0.195312 242.435L138.352 242.435C138.352 187.838 181.175 143.579 234 143.579L234 0.786621C104.873 0.786624 0.195318 108.976 0.195312 242.435Z"/>
</mask>
<path fill-rule="evenodd" clip-rule="evenodd" d="M0.195312 242.435L138.352 242.435C138.352 187.838 181.175 143.579 234 143.579L234 0.786621C104.873 0.786624 0.195318 108.976 0.195312 242.435Z" fill="#FFD873"/>
<path d="M0.195312 242.435L-24.8047 242.435L-24.8047 267.435L0.195324 267.435L0.195312 242.435ZM138.352 242.435L138.353 267.435L163.352 267.435L163.352 242.435L138.352 242.435ZM234 143.579L234 168.579L259 168.579L259 143.579L234 143.579ZM234 0.786621L259 0.786613L259 -24.2134L234 -24.2134L234 0.786621ZM0.195324 267.435L138.353 267.435L138.352 217.435L0.195301 217.435L0.195324 267.435ZM234 118.579C166.597 118.579 113.352 174.815 113.352 242.435L163.352 242.435C163.352 200.861 195.754 168.579 234 168.579L234 118.579ZM209 0.786629L209 143.579L259 143.579L259 0.786613L209 0.786629ZM25.1953 242.435C25.1953 121.999 119.451 25.7866 234 25.7866L234 -24.2134C90.2948 -24.2134 -24.8047 95.9533 -24.8047 242.435L25.1953 242.435Z" fill="#FFD873" mask="url(#path-1-inside-1_1588_4327)"/>
</svg>
