<svg width="140" height="51" viewBox="0 0 140 51" fill="none" xmlns="http://www.w3.org/2000/svg">
<rect y="0.722656" width="140" height="50" rx="5" fill="#010101"/>
<g clip-path="url(#clip0_259_9211)">
<path d="M24.5417 29.3906C27.3849 27.8294 29.5403 26.6398 29.7261 26.5473C30.3204 26.2313 30.9341 25.3948 29.7261 24.7451C29.336 24.5407 27.236 23.3882 24.5417 21.9019L20.8066 25.674L24.5417 29.3905V29.3906Z" fill="#FEFEFE"/>
<path d="M20.8069 25.6738L8.91406 37.6601C9.19322 37.697 9.50837 37.623 9.87993 37.4188C10.66 36.9918 18.9297 32.4756 24.542 29.3913L20.8069 25.6738Z" fill="#F43249"/>
<path d="M20.8059 25.6739L24.541 21.9204C24.541 21.9204 10.7154 14.3752 9.87888 13.9298C9.56373 13.7431 9.21056 13.6877 8.89453 13.7431L20.8059 25.6739V25.6739Z" fill="#00EE76"/>
<path d="M20.8072 25.674L8.89585 13.7432C8.41243 13.8549 8.00391 14.282 8.00391 15.1555V36.2479C8.00391 37.0473 8.32002 37.6232 8.91433 37.6787L20.8072 25.674Z" fill="#00D3FF"/>
</g>
<path d="M42.4947 21.5177C42.688 21.5177 42.8647 21.5093 43.0247 21.4927C43.188 21.4727 43.3414 21.4443 43.4847 21.4077C43.628 21.371 43.763 21.3277 43.8897 21.2777C44.0164 21.2243 44.143 21.1643 44.2697 21.0977V19.5177H43.1597C43.0964 19.5177 43.0447 19.4993 43.0047 19.4627C42.968 19.426 42.9497 19.381 42.9497 19.3277V18.7777H45.1497V21.5277C44.9697 21.6577 44.7814 21.771 44.5847 21.8677C44.3914 21.9643 44.183 22.046 43.9597 22.1127C43.7397 22.176 43.503 22.2227 43.2497 22.2527C42.9964 22.286 42.7214 22.3027 42.4247 22.3027C41.9047 22.3027 41.428 22.2143 40.9947 22.0377C40.5614 21.8577 40.188 21.6077 39.8747 21.2877C39.5614 20.9643 39.3164 20.5777 39.1397 20.1277C38.9664 19.6777 38.8797 19.1827 38.8797 18.6427C38.8797 18.096 38.9647 17.5977 39.1347 17.1477C39.308 16.6977 39.553 16.3127 39.8697 15.9927C40.1897 15.6693 40.5747 15.4193 41.0247 15.2427C41.478 15.066 41.9847 14.9777 42.5447 14.9777C42.828 14.9777 43.0914 14.9993 43.3347 15.0427C43.578 15.0827 43.803 15.1427 44.0097 15.2227C44.2197 15.2993 44.413 15.3943 44.5897 15.5077C44.7664 15.6177 44.9314 15.7427 45.0847 15.8827L44.8097 16.3227C44.753 16.4127 44.6797 16.4577 44.5897 16.4577C44.5364 16.4577 44.478 16.4393 44.4147 16.4027C44.3314 16.356 44.238 16.2993 44.1347 16.2327C44.0314 16.166 43.9047 16.1027 43.7547 16.0427C43.608 15.9793 43.433 15.926 43.2297 15.8827C43.0297 15.8393 42.7914 15.8177 42.5147 15.8177C42.1114 15.8177 41.7464 15.8843 41.4197 16.0177C41.093 16.1477 40.8147 16.336 40.5847 16.5827C40.3547 16.826 40.178 17.1227 40.0547 17.4727C39.9314 17.8193 39.8697 18.2093 39.8697 18.6427C39.8697 19.096 39.933 19.501 40.0597 19.8577C40.1897 20.211 40.3714 20.511 40.6047 20.7577C40.838 21.0043 41.1147 21.1927 41.4347 21.3227C41.7547 21.4527 42.108 21.5177 42.4947 21.5177ZM48.5084 17.0777C48.8118 17.0777 49.0918 17.1293 49.3484 17.2327C49.6051 17.3327 49.8268 17.4793 50.0134 17.6727C50.2001 17.8627 50.3451 18.0993 50.4484 18.3827C50.5551 18.6627 50.6084 18.9827 50.6084 19.3427C50.6084 19.4827 50.5934 19.576 50.5634 19.6227C50.5334 19.6693 50.4768 19.6927 50.3934 19.6927H47.0234C47.0301 20.0127 47.0734 20.291 47.1534 20.5277C47.2334 20.7643 47.3434 20.9627 47.4834 21.1227C47.6234 21.2793 47.7901 21.3977 47.9834 21.4777C48.1768 21.5543 48.3934 21.5927 48.6334 21.5927C48.8568 21.5927 49.0484 21.5677 49.2084 21.5177C49.3718 21.4643 49.5118 21.4077 49.6284 21.3477C49.7451 21.2877 49.8418 21.2327 49.9184 21.1827C49.9984 21.1293 50.0668 21.1027 50.1234 21.1027C50.1968 21.1027 50.2534 21.131 50.2934 21.1877L50.5434 21.5127C50.4334 21.646 50.3018 21.7627 50.1484 21.8627C49.9951 21.9593 49.8301 22.0393 49.6534 22.1027C49.4801 22.166 49.3001 22.2127 49.1134 22.2427C48.9268 22.276 48.7418 22.2927 48.5584 22.2927C48.2084 22.2927 47.8851 22.2343 47.5884 22.1177C47.2951 21.9977 47.0401 21.8243 46.8234 21.5977C46.6101 21.3677 46.4434 21.0843 46.3234 20.7477C46.2034 20.411 46.1434 20.0243 46.1434 19.5877C46.1434 19.2343 46.1968 18.9043 46.3034 18.5977C46.4134 18.291 46.5701 18.026 46.7734 17.8027C46.9768 17.576 47.2251 17.3993 47.5184 17.2727C47.8118 17.1427 48.1418 17.0777 48.5084 17.0777ZM48.5284 17.7327C48.0984 17.7327 47.7601 17.8577 47.5134 18.1077C47.2668 18.3543 47.1134 18.6977 47.0534 19.1377H49.8084C49.8084 18.931 49.7801 18.7427 49.7234 18.5727C49.6668 18.3993 49.5834 18.251 49.4734 18.1277C49.3634 18.001 49.2284 17.9043 49.0684 17.8377C48.9118 17.7677 48.7318 17.7327 48.5284 17.7327ZM53.2826 22.3027C52.8826 22.3027 52.5742 22.191 52.3576 21.9677C52.1442 21.7443 52.0376 21.4227 52.0376 21.0027V17.9027H51.4276C51.3742 17.9027 51.3292 17.8877 51.2926 17.8577C51.2559 17.8243 51.2376 17.7743 51.2376 17.7077V17.3527L52.0676 17.2477L52.2726 15.6827C52.2792 15.6327 52.3009 15.5927 52.3376 15.5627C52.3742 15.5293 52.4209 15.5127 52.4776 15.5127H52.9276V17.2577H54.3776V17.9027H52.9276V20.9427C52.9276 21.156 52.9792 21.3143 53.0826 21.4177C53.1859 21.521 53.3192 21.5727 53.4826 21.5727C53.5759 21.5727 53.6559 21.561 53.7226 21.5377C53.7926 21.511 53.8526 21.4827 53.9026 21.4527C53.9526 21.4227 53.9942 21.396 54.0276 21.3727C54.0642 21.346 54.0959 21.3327 54.1226 21.3327C54.1692 21.3327 54.2109 21.361 54.2476 21.4177L54.5076 21.8427C54.3542 21.986 54.1692 22.0993 53.9526 22.1827C53.7359 22.2627 53.5126 22.3027 53.2826 22.3027ZM58.4016 17.1577V22.2227H57.5116V17.1577H58.4016ZM58.6016 15.5677C58.6016 15.6543 58.5833 15.736 58.5466 15.8127C58.5133 15.886 58.4666 15.9527 58.4066 16.0127C58.35 16.0693 58.2833 16.1143 58.2066 16.1477C58.13 16.181 58.0483 16.1977 57.9616 16.1977C57.875 16.1977 57.7933 16.181 57.7166 16.1477C57.6433 16.1143 57.5766 16.0693 57.5166 16.0127C57.46 15.9527 57.415 15.886 57.3816 15.8127C57.3483 15.736 57.3316 15.6543 57.3316 15.5677C57.3316 15.481 57.3483 15.3993 57.3816 15.3227C57.415 15.2427 57.46 15.1743 57.5166 15.1177C57.5766 15.0577 57.6433 15.011 57.7166 14.9777C57.7933 14.9443 57.875 14.9277 57.9616 14.9277C58.0483 14.9277 58.13 14.9443 58.2066 14.9777C58.2833 15.011 58.35 15.0577 58.4066 15.1177C58.4666 15.1743 58.5133 15.2427 58.5466 15.3227C58.5833 15.3993 58.6016 15.481 58.6016 15.5677ZM61.5052 22.3027C61.1052 22.3027 60.7969 22.191 60.5802 21.9677C60.3669 21.7443 60.2602 21.4227 60.2602 21.0027V17.9027H59.6502C59.5969 17.9027 59.5519 17.8877 59.5152 17.8577C59.4786 17.8243 59.4602 17.7743 59.4602 17.7077V17.3527L60.2902 17.2477L60.4952 15.6827C60.5019 15.6327 60.5236 15.5927 60.5602 15.5627C60.5969 15.5293 60.6436 15.5127 60.7002 15.5127H61.1502V17.2577H62.6002V17.9027H61.1502V20.9427C61.1502 21.156 61.2019 21.3143 61.3052 21.4177C61.4086 21.521 61.5419 21.5727 61.7052 21.5727C61.7986 21.5727 61.8786 21.561 61.9452 21.5377C62.0152 21.511 62.0752 21.4827 62.1252 21.4527C62.1752 21.4227 62.2169 21.396 62.2502 21.3727C62.2869 21.346 62.3186 21.3327 62.3452 21.3327C62.3919 21.3327 62.4336 21.361 62.4702 21.4177L62.7302 21.8427C62.5769 21.986 62.3919 22.0993 62.1752 22.1827C61.9586 22.2627 61.7352 22.3027 61.5052 22.3027ZM67.6843 17.0777C68.0543 17.0777 68.3876 17.1393 68.6843 17.2627C68.9843 17.386 69.2376 17.561 69.4443 17.7877C69.6543 18.0143 69.8143 18.2893 69.9243 18.6127C70.0376 18.9327 70.0943 19.291 70.0943 19.6877C70.0943 20.0877 70.0376 20.4477 69.9243 20.7677C69.8143 21.0877 69.6543 21.361 69.4443 21.5877C69.2376 21.8143 68.9843 21.9893 68.6843 22.1127C68.3876 22.2327 68.0543 22.2927 67.6843 22.2927C67.3143 22.2927 66.9793 22.2327 66.6793 22.1127C66.3826 21.9893 66.1293 21.8143 65.9193 21.5877C65.7093 21.361 65.5476 21.0877 65.4343 20.7677C65.321 20.4477 65.2643 20.0877 65.2643 19.6877C65.2643 19.291 65.321 18.9327 65.4343 18.6127C65.5476 18.2893 65.7093 18.0143 65.9193 17.7877C66.1293 17.561 66.3826 17.386 66.6793 17.2627C66.9793 17.1393 67.3143 17.0777 67.6843 17.0777ZM67.6843 21.5977C68.1843 21.5977 68.5576 21.431 68.8043 21.0977C69.051 20.761 69.1743 20.2927 69.1743 19.6927C69.1743 19.0893 69.051 18.6193 68.8043 18.2827C68.5576 17.946 68.1843 17.7777 67.6843 17.7777C67.431 17.7777 67.211 17.821 67.0243 17.9077C66.8376 17.9943 66.681 18.1193 66.5543 18.2827C66.431 18.446 66.3376 18.6477 66.2743 18.8877C66.2143 19.1243 66.1843 19.3927 66.1843 19.6927C66.1843 19.9927 66.2143 20.261 66.2743 20.4977C66.3376 20.7343 66.431 20.9343 66.5543 21.0977C66.681 21.2577 66.8376 21.381 67.0243 21.4677C67.211 21.5543 67.431 21.5977 67.6843 21.5977ZM71.1909 22.2227V17.1577H71.7209C71.8476 17.1577 71.9276 17.2193 71.9609 17.3427L72.0309 17.8927C72.2509 17.6493 72.4959 17.4527 72.7659 17.3027C73.0393 17.1527 73.3543 17.0777 73.7109 17.0777C73.9876 17.0777 74.2309 17.1243 74.4409 17.2177C74.6543 17.3077 74.8309 17.4377 74.9709 17.6077C75.1143 17.7743 75.2226 17.976 75.2959 18.2127C75.3693 18.4493 75.4059 18.711 75.4059 18.9977V22.2227H74.5159V18.9977C74.5159 18.6143 74.4276 18.3177 74.2509 18.1077C74.0776 17.8943 73.8109 17.7877 73.4509 17.7877C73.1876 17.7877 72.9409 17.851 72.7109 17.9777C72.4843 18.1043 72.2743 18.276 72.0809 18.4927V22.2227H71.1909Z" fill="#FEFEFE"/>
<path d="M49.2217 32.6307V37.1107C48.6404 37.5267 48.0217 37.8387 47.3657 38.0467C46.7097 38.2493 45.995 38.3507 45.2217 38.3507C44.2937 38.3507 43.4537 38.2067 42.7017 37.9187C41.955 37.6307 41.3177 37.228 40.7897 36.7107C40.2617 36.1933 39.8537 35.5747 39.5657 34.8547C39.283 34.1347 39.1417 33.3427 39.1417 32.4787C39.1417 31.6093 39.2777 30.8147 39.5497 30.0947C39.827 29.3693 40.2217 28.7507 40.7337 28.2387C41.2457 27.7213 41.8644 27.3213 42.5897 27.0387C43.3204 26.7507 44.139 26.6067 45.0457 26.6067C45.5044 26.6067 45.9284 26.6413 46.3177 26.7107C46.7124 26.78 47.0777 26.8787 47.4137 27.0067C47.7497 27.1347 48.059 27.2893 48.3417 27.4707C48.6297 27.6467 48.8964 27.8467 49.1417 28.0707L48.6537 28.8387C48.579 28.9613 48.4804 29.0387 48.3577 29.0707C48.235 29.1027 48.1017 29.0733 47.9577 28.9827C47.819 28.9027 47.6644 28.8093 47.4937 28.7027C47.3284 28.596 47.1284 28.4973 46.8937 28.4067C46.6644 28.316 46.395 28.2387 46.0857 28.1747C45.7764 28.1107 45.411 28.0787 44.9897 28.0787C44.3604 28.0787 43.7924 28.1827 43.2857 28.3907C42.779 28.5933 42.347 28.8867 41.9897 29.2707C41.6324 29.6547 41.3577 30.1187 41.1657 30.6627C40.9737 31.2013 40.8777 31.8067 40.8777 32.4787C40.8777 33.1827 40.979 33.8147 41.1817 34.3747C41.3844 34.9293 41.6697 35.4013 42.0377 35.7907C42.411 36.1747 42.8617 36.468 43.3897 36.6707C43.923 36.8733 44.5177 36.9747 45.1737 36.9747C45.4297 36.9747 45.667 36.9613 45.8857 36.9347C46.1097 36.9027 46.323 36.86 46.5257 36.8067C46.7284 36.7533 46.923 36.6867 47.1097 36.6067C47.3017 36.5267 47.491 36.4387 47.6777 36.3427V33.9347H45.9817C45.875 33.9347 45.787 33.9027 45.7177 33.8387C45.6537 33.7747 45.6217 33.6947 45.6217 33.5987V32.6307H49.2217ZM54.5678 29.9667C55.1651 29.9667 55.7038 30.0653 56.1838 30.2627C56.6691 30.4547 57.0798 30.7347 57.4158 31.1027C57.7571 31.4653 58.0185 31.9053 58.1998 32.4227C58.3811 32.9347 58.4718 33.5107 58.4718 34.1507C58.4718 34.7907 58.3811 35.3693 58.1998 35.8867C58.0185 36.404 57.7571 36.844 57.4158 37.2067C57.0798 37.5693 56.6691 37.8493 56.1838 38.0467C55.7038 38.2387 55.1651 38.3347 54.5678 38.3347C53.9651 38.3347 53.4211 38.2387 52.9358 38.0467C52.4558 37.8493 52.0451 37.5693 51.7038 37.2067C51.3625 36.844 51.0985 36.404 50.9118 35.8867C50.7305 35.3693 50.6398 34.7907 50.6398 34.1507C50.6398 33.5107 50.7305 32.9347 50.9118 32.4227C51.0985 31.9053 51.3625 31.4653 51.7038 31.1027C52.0451 30.7347 52.4558 30.4547 52.9358 30.2627C53.4211 30.0653 53.9651 29.9667 54.5678 29.9667ZM54.5678 37.1187C55.3358 37.1187 55.9091 36.86 56.2878 36.3427C56.6665 35.8253 56.8558 35.0973 56.8558 34.1587C56.8558 33.22 56.6665 32.492 56.2878 31.9747C55.9091 31.452 55.3358 31.1907 54.5678 31.1907C53.7891 31.1907 53.2078 31.452 52.8238 31.9747C52.4451 32.492 52.2558 33.22 52.2558 34.1587C52.2558 35.0973 52.4451 35.8253 52.8238 36.3427C53.2078 36.86 53.7891 37.1187 54.5678 37.1187ZM63.6772 29.9667C64.2745 29.9667 64.8132 30.0653 65.2932 30.2627C65.7785 30.4547 66.1892 30.7347 66.5252 31.1027C66.8665 31.4653 67.1279 31.9053 67.3092 32.4227C67.4905 32.9347 67.5812 33.5107 67.5812 34.1507C67.5812 34.7907 67.4905 35.3693 67.3092 35.8867C67.1279 36.404 66.8665 36.844 66.5252 37.2067C66.1892 37.5693 65.7785 37.8493 65.2932 38.0467C64.8132 38.2387 64.2745 38.3347 63.6772 38.3347C63.0745 38.3347 62.5305 38.2387 62.0452 38.0467C61.5652 37.8493 61.1545 37.5693 60.8132 37.2067C60.4719 36.844 60.2079 36.404 60.0212 35.8867C59.8399 35.3693 59.7492 34.7907 59.7492 34.1507C59.7492 33.5107 59.8399 32.9347 60.0212 32.4227C60.2079 31.9053 60.4719 31.4653 60.8132 31.1027C61.1545 30.7347 61.5652 30.4547 62.0452 30.2627C62.5305 30.0653 63.0745 29.9667 63.6772 29.9667ZM63.6772 37.1187C64.4452 37.1187 65.0185 36.86 65.3972 36.3427C65.7759 35.8253 65.9652 35.0973 65.9652 34.1587C65.9652 33.22 65.7759 32.492 65.3972 31.9747C65.0185 31.452 64.4452 31.1907 63.6772 31.1907C62.8985 31.1907 62.3172 31.452 61.9332 31.9747C61.5545 32.492 61.3652 33.22 61.3652 34.1587C61.3652 35.0973 61.5545 35.8253 61.9332 36.3427C62.3172 36.86 62.8985 37.1187 63.6772 37.1187ZM72.1317 34.1667C72.409 34.1667 72.6517 34.1293 72.8597 34.0547C73.073 33.98 73.249 33.876 73.3877 33.7427C73.5317 33.604 73.6384 33.4387 73.7077 33.2467C73.7824 33.0547 73.8197 32.844 73.8197 32.6147C73.8197 32.1453 73.6757 31.772 73.3877 31.4947C73.105 31.212 72.6864 31.0707 72.1317 31.0707C71.5824 31.0707 71.1637 31.212 70.8757 31.4947C70.593 31.772 70.4517 32.1453 70.4517 32.6147C70.4517 32.844 70.4864 33.0547 70.5557 33.2467C70.6304 33.4333 70.737 33.596 70.8757 33.7347C71.0197 33.868 71.1957 33.9747 71.4037 34.0547C71.617 34.1293 71.8597 34.1667 72.1317 34.1667ZM74.6197 38.6467C74.6197 38.4547 74.5664 38.3027 74.4597 38.1907C74.353 38.0733 74.2064 37.9827 74.0197 37.9187C73.8384 37.8493 73.625 37.8013 73.3797 37.7747C73.1344 37.7427 72.8757 37.7187 72.6037 37.7027C72.337 37.6867 72.0624 37.6733 71.7797 37.6627C71.497 37.6467 71.225 37.62 70.9637 37.5827C70.6864 37.7213 70.457 37.8893 70.2757 38.0867C70.0997 38.284 70.0117 38.516 70.0117 38.7827C70.0117 38.9533 70.0544 39.1133 70.1397 39.2627C70.2304 39.412 70.3664 39.54 70.5477 39.6467C70.7344 39.7587 70.9664 39.844 71.2437 39.9027C71.5264 39.9667 71.8624 39.9987 72.2517 39.9987C72.6357 39.9987 72.9744 39.964 73.2677 39.8947C73.561 39.8307 73.8064 39.7373 74.0037 39.6147C74.2064 39.4973 74.3584 39.356 74.4597 39.1907C74.5664 39.0253 74.6197 38.844 74.6197 38.6467ZM76.2037 30.3987V30.9827C76.2037 31.1747 76.0837 31.2947 75.8437 31.3427L74.9717 31.4707C75.0464 31.636 75.105 31.812 75.1477 31.9987C75.1904 32.18 75.2117 32.372 75.2117 32.5747C75.2117 32.9747 75.1344 33.3373 74.9797 33.6627C74.825 33.9827 74.6117 34.2573 74.3397 34.4867C74.0677 34.716 73.7424 34.892 73.3637 35.0147C72.9904 35.1373 72.5797 35.1987 72.1317 35.1987C71.7637 35.1987 71.4197 35.1587 71.0997 35.0787C70.9397 35.1747 70.817 35.2813 70.7317 35.3987C70.6517 35.5107 70.6117 35.6227 70.6117 35.7347C70.6117 35.9213 70.689 36.06 70.8437 36.1507C71.0037 36.2413 71.209 36.308 71.4597 36.3507C71.7157 36.388 72.0064 36.412 72.3317 36.4227C72.6624 36.4333 72.9957 36.452 73.3317 36.4787C73.673 36.5 74.0064 36.5427 74.3317 36.6067C74.6624 36.6653 74.953 36.764 75.2037 36.9027C75.4597 37.036 75.665 37.2227 75.8197 37.4627C75.9797 37.6973 76.0597 38.004 76.0597 38.3827C76.0597 38.7347 75.9717 39.076 75.7957 39.4067C75.625 39.7373 75.3744 40.0307 75.0437 40.2867C74.713 40.5427 74.3104 40.748 73.8357 40.9027C73.361 41.0573 72.8224 41.1347 72.2197 41.1347C71.617 41.1347 71.0917 41.076 70.6437 40.9587C70.201 40.8413 69.8304 40.684 69.5317 40.4867C69.2384 40.2893 69.017 40.06 68.8677 39.7987C68.7237 39.5373 68.6517 39.2653 68.6517 38.9827C68.6517 38.588 68.7744 38.2547 69.0197 37.9827C69.265 37.7053 69.6037 37.4893 70.0357 37.3347C69.801 37.228 69.6144 37.084 69.4757 36.9027C69.337 36.716 69.2677 36.4707 69.2677 36.1667C69.2677 36.0493 69.289 35.9293 69.3317 35.8067C69.3744 35.6787 69.4384 35.5533 69.5237 35.4307C69.6144 35.3027 69.7237 35.1827 69.8517 35.0707C69.985 34.9587 70.137 34.8573 70.3077 34.7667C69.9077 34.5427 69.593 34.2467 69.3637 33.8787C69.1344 33.5053 69.0197 33.0707 69.0197 32.5747C69.0197 32.1747 69.097 31.8147 69.2517 31.4947C69.4064 31.1747 69.6197 30.9 69.8917 30.6707C70.169 30.4413 70.497 30.2653 70.8757 30.1427C71.2597 30.02 71.6784 29.9587 72.1317 29.9587C72.8357 29.9587 73.441 30.1053 73.9477 30.3987H76.2037ZM79.2351 26.4147V38.2227H77.6671V26.4147H79.2351ZM86.8472 33.2547C86.8472 32.9453 86.8019 32.66 86.7112 32.3987C86.6259 32.1373 86.4979 31.9107 86.3272 31.7187C86.1565 31.5267 85.9485 31.3773 85.7032 31.2707C85.4579 31.164 85.1752 31.1107 84.8552 31.1107C84.1992 31.1107 83.6819 31.3 83.3032 31.6787C82.9299 32.0573 82.6925 32.5827 82.5912 33.2547H86.8472ZM88.1352 37.0627C87.9432 37.2867 87.7219 37.4813 87.4712 37.6467C87.2205 37.8067 86.9539 37.9373 86.6712 38.0387C86.3885 38.14 86.0952 38.2147 85.7912 38.2627C85.4925 38.3107 85.1965 38.3347 84.9032 38.3347C84.3432 38.3347 83.8232 38.2413 83.3432 38.0547C82.8685 37.8627 82.4552 37.5853 82.1032 37.2227C81.7565 36.8547 81.4845 36.4013 81.2872 35.8627C81.0952 35.3187 80.9992 34.6947 80.9992 33.9907C80.9992 33.4253 81.0872 32.9 81.2632 32.4147C81.4392 31.924 81.6899 31.4973 82.0152 31.1347C82.3459 30.772 82.7485 30.4867 83.2232 30.2787C83.6979 30.0707 84.2312 29.9667 84.8232 29.9667C85.3192 29.9667 85.7752 30.0493 86.1912 30.2147C86.6125 30.3747 86.9752 30.6093 87.2792 30.9187C87.5832 31.228 87.8205 31.6093 87.9912 32.0627C88.1672 32.516 88.2552 33.0333 88.2552 33.6147C88.2552 33.8547 88.2285 34.0173 88.1752 34.1027C88.1219 34.1827 88.0232 34.2227 87.8792 34.2227H82.5512C82.5672 34.708 82.6365 35.132 82.7592 35.4947C82.8819 35.852 83.0499 36.1507 83.2632 36.3907C83.4819 36.6307 83.7405 36.8093 84.0392 36.9267C84.3379 37.044 84.6712 37.1027 85.0392 37.1027C85.3859 37.1027 85.6845 37.0627 85.9352 36.9827C86.1912 36.9027 86.4099 36.8173 86.5912 36.7267C86.7779 36.6307 86.9325 36.5427 87.0552 36.4627C87.1832 36.3827 87.2952 36.3427 87.3912 36.3427C87.5192 36.3427 87.6179 36.3907 87.6872 36.4867L88.1352 37.0627ZM95.5388 36.2227C95.7948 36.5587 96.0695 36.7933 96.3628 36.9267C96.6615 37.06 96.9948 37.1267 97.3628 37.1267C98.0775 37.1267 98.6295 36.8707 99.0188 36.3587C99.4135 35.8413 99.6108 35.0893 99.6108 34.1027C99.6108 33.5853 99.5655 33.1453 99.4748 32.7827C99.3895 32.4147 99.2615 32.116 99.0908 31.8867C98.9255 31.652 98.7201 31.4813 98.4748 31.3747C98.2295 31.2627 97.9521 31.2067 97.6428 31.2067C97.1895 31.2067 96.7948 31.308 96.4588 31.5107C96.1281 31.7133 95.8215 32.0013 95.5388 32.3747V36.2227ZM95.4588 31.3107C95.6295 31.108 95.8108 30.924 96.0028 30.7587C96.2001 30.588 96.4108 30.444 96.6348 30.3267C96.8588 30.204 97.0961 30.1107 97.3468 30.0467C97.6028 29.9773 97.8748 29.9427 98.1628 29.9427C98.6268 29.9427 99.0455 30.0333 99.4188 30.2147C99.7975 30.396 100.12 30.6627 100.387 31.0147C100.653 31.3667 100.859 31.8013 101.003 32.3187C101.152 32.836 101.227 33.4307 101.227 34.1027C101.227 34.7053 101.144 35.2653 100.979 35.7827C100.819 36.2947 100.587 36.74 100.283 37.1187C99.9841 37.4973 99.6161 37.796 99.1788 38.0147C98.7468 38.228 98.2588 38.3347 97.7148 38.3347C97.2295 38.3347 96.8135 38.2547 96.4668 38.0947C96.1201 37.9347 95.8108 37.7107 95.5388 37.4227V40.9507H93.9788V30.0947H94.9148C95.1335 30.0947 95.2695 30.1987 95.3228 30.4067L95.4588 31.3107ZM104.579 26.4147V38.2227H103.011V26.4147H104.579ZM111.175 34.6147C110.54 34.636 110.002 34.6867 109.559 34.7667C109.116 34.8413 108.756 34.9427 108.479 35.0707C108.202 35.1987 108.002 35.3507 107.879 35.5267C107.756 35.6973 107.695 35.8893 107.695 36.1027C107.695 36.3053 107.727 36.4813 107.791 36.6307C107.86 36.7747 107.951 36.8947 108.063 36.9907C108.18 37.0813 108.316 37.148 108.471 37.1907C108.626 37.2333 108.794 37.2547 108.975 37.2547C109.215 37.2547 109.434 37.2307 109.631 37.1827C109.834 37.1347 110.023 37.068 110.199 36.9827C110.375 36.892 110.543 36.7827 110.703 36.6547C110.863 36.5267 111.02 36.38 111.175 36.2147V34.6147ZM106.599 31.2307C107.052 30.7987 107.543 30.476 108.071 30.2627C108.604 30.0493 109.188 29.9427 109.823 29.9427C110.287 29.9427 110.698 30.02 111.055 30.1747C111.412 30.324 111.714 30.5347 111.959 30.8067C112.204 31.0787 112.388 31.404 112.511 31.7827C112.639 32.1613 112.703 32.58 112.703 33.0387V38.2227H112.007C111.852 38.2227 111.735 38.1987 111.655 38.1507C111.575 38.0973 111.511 38.0013 111.463 37.8627L111.295 37.1507C111.087 37.3427 110.882 37.5133 110.679 37.6627C110.476 37.8067 110.263 37.932 110.039 38.0387C109.82 38.14 109.586 38.2173 109.335 38.2707C109.084 38.324 108.807 38.3507 108.503 38.3507C108.183 38.3507 107.882 38.308 107.599 38.2227C107.322 38.132 107.079 37.996 106.871 37.8147C106.663 37.6333 106.498 37.4067 106.375 37.1347C106.258 36.8627 106.199 36.5453 106.199 36.1827C106.199 35.8627 106.284 35.556 106.455 35.2627C106.631 34.964 106.914 34.6973 107.303 34.4627C107.698 34.228 108.21 34.036 108.839 33.8867C109.474 33.7373 110.252 33.652 111.175 33.6307V33.0387C111.175 32.4253 111.044 31.9667 110.783 31.6627C110.522 31.3587 110.138 31.2067 109.631 31.2067C109.29 31.2067 109.002 31.2493 108.767 31.3347C108.538 31.42 108.338 31.516 108.167 31.6227C108.002 31.724 107.855 31.8173 107.727 31.9027C107.604 31.988 107.476 32.0307 107.343 32.0307C107.236 32.0307 107.143 32.0013 107.063 31.9427C106.988 31.884 106.927 31.8147 106.879 31.7347L106.599 31.2307ZM121.692 30.0947L117.18 40.5827C117.132 40.7 117.068 40.7907 116.988 40.8547C116.908 40.9187 116.791 40.9507 116.636 40.9507H115.476L116.964 37.7107L113.628 30.0947H114.988C115.122 30.0947 115.226 30.1267 115.3 30.1907C115.375 30.2547 115.428 30.3267 115.46 30.4067L117.524 35.2867C117.567 35.4093 117.607 35.5347 117.644 35.6627C117.687 35.7853 117.722 35.908 117.748 36.0307C117.786 35.9027 117.826 35.7773 117.868 35.6547C117.911 35.5267 117.956 35.4013 118.004 35.2787L119.996 30.4067C120.034 30.316 120.092 30.2413 120.172 30.1827C120.252 30.124 120.343 30.0947 120.444 30.0947H121.692Z" fill="#FEFEFE"/>
<defs>
<clipPath id="clip0_259_9211">
<rect width="22.43" height="24" fill="white" transform="translate(8 13.7227)"/>
</clipPath>
</defs>
</svg>
