<svg width="148" height="40" viewBox="0 0 148 40" fill="none" xmlns="http://www.w3.org/2000/svg">
<mask id="path-1-inside-1_83_4701" fill="white">
<path fill-rule="evenodd" clip-rule="evenodd" d="M12.0191 25.5342L12.0191 19.6047C9.4527 19.6047 7.37224 17.7668 7.37224 15.4997L0.660156 15.4997C0.660156 21.0416 5.74572 25.5342 12.0191 25.5342Z"/>
</mask>
<path fill-rule="evenodd" clip-rule="evenodd" d="M12.0191 25.5342L12.0191 19.6047C9.4527 19.6047 7.37224 17.7668 7.37224 15.4997L0.660156 15.4997C0.660156 21.0416 5.74572 25.5342 12.0191 25.5342Z" fill="#3658A4"/>
<path d="M12.0191 25.5342L12.0191 50.5342L37.0191 50.5342L37.0191 25.5342L12.0191 25.5342ZM12.0191 19.6047L37.0191 19.6047L37.0191 -5.39532L12.0191 -5.39532L12.0191 19.6047ZM7.37224 15.4997L32.3722 15.4996L32.3722 -9.50036L7.37223 -9.50035L7.37224 15.4997ZM0.660156 15.4997L0.660147 -9.50035L-24.3398 -9.50034L-24.3398 15.4997L0.660156 15.4997ZM37.0191 25.5342L37.0191 19.6047L-12.9809 19.6047L-12.9809 25.5342L37.0191 25.5342ZM-17.6278 15.4997C-17.6278 34.3966 -1.35163 44.6047 12.0191 44.6047L12.0191 -5.39532C20.257 -5.39532 32.3722 1.13703 32.3722 15.4996L-17.6278 15.4997ZM0.660164 40.4997L7.37225 40.4997L7.37223 -9.50035L0.660147 -9.50035L0.660164 40.4997ZM12.0191 0.534179C14.8283 0.534179 17.9138 1.54011 20.5387 3.85897C23.2109 6.21961 25.6602 10.2861 25.6602 15.4997L-24.3398 15.4997C-24.3398 37.6713 -5.05861 50.5342 12.0191 50.5342L12.0191 0.534179Z" fill="#3658A4" mask="url(#path-1-inside-1_83_4701)"/>
<path d="M13.0469 14.5V3.50219C13.0469 3.50219 19.4093 3.3046 22.125 6.66322C24.2681 9.31383 23.9871 14.5 23.9871 14.5H13.0469Z" fill="#764B96"/>
<ellipse cx="6.47619" cy="9" rx="5.47619" ry="5.5" fill="#E84E41"/>
<rect x="13.0469" y="15.5" width="10.9524" height="10" fill="#1C9E76"/>
<path d="M24 26.5H1C1 26.5 2.07201 31.3244 4.4717 33.4737C7.00635 35.7438 9.24528 36.5 12.8616 36.5C16.478 36.5 18.3794 35.4213 20.673 33.4737C23.185 31.3404 24 26.5 24 26.5Z" fill="#5EC1D6"/>
<path d="M61.6 20.656V29.776C59.3067 31.4293 56.64 32.256 53.6 32.256C51.7333 32.256 50.0427 31.968 48.528 31.392C47.024 30.8053 45.7387 29.9947 44.672 28.96C43.6053 27.9147 42.784 26.672 42.208 25.232C41.632 23.792 41.344 22.208 41.344 20.48C41.344 18.7413 41.6213 17.152 42.176 15.712C42.7307 14.2613 43.5253 13.0187 44.56 11.984C45.5947 10.9387 46.8427 10.1333 48.304 9.568C49.7653 8.992 51.408 8.704 53.232 8.704C54.16 8.704 55.0187 8.77867 55.808 8.928C56.608 9.06667 57.3493 9.264 58.032 9.52C58.7147 9.776 59.344 10.0853 59.92 10.448C60.496 10.8107 61.024 11.216 61.504 11.664L60.432 13.376C60.2613 13.6427 60.0427 13.808 59.776 13.872C59.5093 13.936 59.2213 13.872 58.912 13.68C58.6027 13.4987 58.272 13.3067 57.92 13.104C57.5787 12.9013 57.184 12.7147 56.736 12.544C56.288 12.3627 55.7707 12.2187 55.184 12.112C54.5973 11.9947 53.904 11.936 53.104 11.936C51.888 11.936 50.7893 12.1387 49.808 12.544C48.8373 12.9387 48.0053 13.5093 47.312 14.256C46.6187 14.992 46.0853 15.888 45.712 16.944C45.3387 18 45.152 19.1787 45.152 20.48C45.152 21.856 45.3493 23.088 45.744 24.176C46.1387 25.2533 46.6987 26.1707 47.424 26.928C48.1493 27.6747 49.024 28.2453 50.048 28.64C51.0827 29.0347 52.2347 29.232 53.504 29.232C54.4533 29.232 55.296 29.1307 56.032 28.928C56.7787 28.7253 57.5093 28.4427 58.224 28.08V23.504H55.008C54.7627 23.504 54.5707 23.44 54.432 23.312C54.2933 23.1733 54.224 22.9973 54.224 22.784V20.656H61.6ZM67.3753 18.704C67.8873 17.6693 68.5059 16.8587 69.2313 16.272C69.9566 15.6747 70.8259 15.376 71.8393 15.376C72.1913 15.376 72.5219 15.4187 72.8313 15.504C73.1406 15.5787 73.4179 15.696 73.6633 15.856L73.4233 18.448C73.3806 18.6293 73.3113 18.7573 73.2153 18.832C73.1299 18.896 73.0126 18.928 72.8633 18.928C72.7033 18.928 72.4739 18.9013 72.1753 18.848C71.8766 18.784 71.5619 18.752 71.2313 18.752C70.7513 18.752 70.3246 18.8213 69.9513 18.96C69.5886 19.0987 69.2579 19.3013 68.9593 19.568C68.6713 19.8347 68.4153 20.16 68.1913 20.544C67.9673 20.928 67.7593 21.3653 67.5673 21.856V32H64.1273V15.68H66.1273C66.4899 15.68 66.7406 15.7493 66.8793 15.888C67.0179 16.016 67.1139 16.2453 67.1673 16.576L67.3753 18.704ZM83.4098 24.864C82.1831 24.9067 81.1484 25.008 80.3058 25.168C79.4631 25.3173 78.7804 25.5147 78.2578 25.76C77.7351 25.9947 77.3564 26.2773 77.1218 26.608C76.8978 26.9387 76.7858 27.3013 76.7858 27.696C76.7858 28.08 76.8444 28.4107 76.9618 28.688C77.0898 28.9547 77.2604 29.1787 77.4738 29.36C77.6978 29.5307 77.9538 29.6587 78.2418 29.744C78.5404 29.8187 78.8658 29.856 79.2178 29.856C80.1138 29.856 80.8818 29.6907 81.5218 29.36C82.1724 29.0187 82.8018 28.528 83.4098 27.888V24.864ZM74.2898 17.952C76.1351 16.2347 78.3324 15.376 80.8818 15.376C81.8204 15.376 82.6524 15.5307 83.3778 15.84C84.1138 16.1387 84.7271 16.5653 85.2178 17.12C85.7191 17.6747 86.0978 18.336 86.3538 19.104C86.6204 19.8613 86.7538 20.704 86.7538 21.632V32H85.2178C84.8871 32 84.6364 31.952 84.4658 31.856C84.2951 31.7493 84.1511 31.5413 84.0338 31.232L83.6978 29.904C83.2818 30.2773 82.8711 30.6133 82.4658 30.912C82.0604 31.2 81.6391 31.4453 81.2018 31.648C80.7751 31.8507 80.3111 32 79.8098 32.096C79.3191 32.2027 78.7751 32.256 78.1778 32.256C77.5164 32.256 76.8978 32.1653 76.3218 31.984C75.7564 31.8027 75.2658 31.5307 74.8498 31.168C74.4338 30.7947 74.1031 30.336 73.8578 29.792C73.6231 29.248 73.5058 28.608 73.5058 27.872C73.5058 27.2427 73.6711 26.6293 74.0018 26.032C74.3431 25.4347 74.8978 24.9013 75.6658 24.432C76.4444 23.952 77.4631 23.5573 78.7218 23.248C79.9911 22.9387 81.5538 22.7627 83.4098 22.72V21.632C83.4098 20.4587 83.1591 19.584 82.6578 19.008C82.1564 18.432 81.4204 18.144 80.4498 18.144C79.7884 18.144 79.2338 18.2293 78.7858 18.4C78.3378 18.56 77.9484 18.736 77.6178 18.928C77.2871 19.12 76.9938 19.3013 76.7378 19.472C76.4818 19.632 76.2098 19.712 75.9218 19.712C75.6871 19.712 75.4844 19.6533 75.3138 19.536C75.1538 19.408 75.0204 19.2533 74.9138 19.072L74.2898 17.952ZM104.542 18.384V27.648C104.542 28.2347 104.686 28.6827 104.974 28.992C105.262 29.3013 105.646 29.456 106.126 29.456C106.393 29.456 106.622 29.424 106.814 29.36C107.006 29.2853 107.172 29.2107 107.31 29.136C107.449 29.0507 107.566 28.976 107.662 28.912C107.769 28.8373 107.87 28.8 107.966 28.8C108.158 28.8 108.313 28.9067 108.43 29.12L109.454 30.8C108.921 31.2693 108.292 31.632 107.566 31.888C106.841 32.1333 106.094 32.256 105.326 32.256C103.972 32.256 102.926 31.8773 102.19 31.12C101.465 30.352 101.102 29.2747 101.102 27.888V18.384H94.0463V32H90.6063V18.416L89.0063 18.192C88.7396 18.1387 88.5209 18.0427 88.3503 17.904C88.1903 17.7653 88.1103 17.568 88.1103 17.312V15.904H90.6063V14.528C90.6063 13.6 90.7396 12.768 91.0063 12.032C91.2836 11.296 91.6729 10.672 92.1743 10.16C92.6863 9.648 93.3049 9.25867 94.0303 8.992C94.7556 8.71467 95.5716 8.576 96.4783 8.576C96.8516 8.576 97.2036 8.60266 97.5343 8.656C97.8756 8.70933 98.2063 8.78933 98.5263 8.896L98.4623 10.624C98.4409 10.912 98.2969 11.0827 98.0303 11.136C97.7743 11.1893 97.4489 11.216 97.0543 11.216C96.5743 11.216 96.1423 11.2747 95.7583 11.392C95.3743 11.4987 95.0436 11.6853 94.7663 11.952C94.4996 12.2187 94.2916 12.5707 94.1423 13.008C94.0036 13.4453 93.9343 13.9893 93.9343 14.64V15.904H101.23L101.998 11.152C102.052 10.9707 102.142 10.8267 102.27 10.72C102.398 10.6027 102.569 10.544 102.782 10.544H104.542V15.904H109.07V18.384H104.542ZM121.363 22C121.363 21.424 121.277 20.8907 121.107 20.4C120.947 19.8987 120.707 19.4667 120.387 19.104C120.067 18.7307 119.667 18.4427 119.187 18.24C118.717 18.0267 118.173 17.92 117.555 17.92C116.307 17.92 115.325 18.2773 114.611 18.992C113.896 19.7067 113.443 20.7093 113.251 22H121.363ZM113.155 24.112C113.197 25.04 113.341 25.8453 113.587 26.528C113.832 27.2 114.157 27.76 114.563 28.208C114.979 28.656 115.469 28.992 116.035 29.216C116.611 29.4293 117.251 29.536 117.955 29.536C118.627 29.536 119.208 29.4613 119.699 29.312C120.189 29.152 120.616 28.9813 120.979 28.8C121.341 28.608 121.651 28.4373 121.907 28.288C122.163 28.128 122.397 28.048 122.611 28.048C122.888 28.048 123.101 28.1547 123.251 28.368L124.227 29.632C123.821 30.112 123.363 30.5173 122.851 30.848C122.339 31.1787 121.795 31.4507 121.219 31.664C120.643 31.8667 120.051 32.0107 119.443 32.096C118.835 32.192 118.243 32.24 117.667 32.24C116.536 32.24 115.485 32.0533 114.515 31.68C113.555 31.296 112.717 30.736 112.003 30C111.299 29.264 110.744 28.352 110.339 27.264C109.944 26.176 109.747 24.9227 109.747 23.504C109.747 22.3733 109.923 21.3173 110.275 20.336C110.637 19.3547 111.149 18.5013 111.811 17.776C112.483 17.0507 113.293 16.48 114.243 16.064C115.203 15.6373 116.285 15.424 117.491 15.424C118.493 15.424 119.421 15.5893 120.275 15.92C121.128 16.24 121.864 16.7147 122.483 17.344C123.101 17.9733 123.581 18.7467 123.923 19.664C124.275 20.5707 124.451 21.6053 124.451 22.768C124.451 23.3013 124.392 23.6587 124.275 23.84C124.157 24.0213 123.944 24.112 123.635 24.112H113.155ZM129.907 18.704C130.419 17.6693 131.037 16.8587 131.763 16.272C132.488 15.6747 133.357 15.376 134.371 15.376C134.723 15.376 135.053 15.4187 135.363 15.504C135.672 15.5787 135.949 15.696 136.195 15.856L135.955 18.448C135.912 18.6293 135.843 18.7573 135.747 18.832C135.661 18.896 135.544 18.928 135.395 18.928C135.235 18.928 135.005 18.9013 134.707 18.848C134.408 18.784 134.093 18.752 133.763 18.752C133.283 18.752 132.856 18.8213 132.483 18.96C132.12 19.0987 131.789 19.3013 131.491 19.568C131.203 19.8347 130.947 20.16 130.723 20.544C130.499 20.928 130.291 21.3653 130.099 21.856V32H126.659V15.68H128.659C129.021 15.68 129.272 15.7493 129.411 15.888C129.549 16.016 129.645 16.2453 129.699 16.576L129.907 18.704ZM140.719 18.704C141.231 17.6693 141.85 16.8587 142.575 16.272C143.3 15.6747 144.17 15.376 145.183 15.376C145.535 15.376 145.866 15.4187 146.175 15.504C146.484 15.5787 146.762 15.696 147.007 15.856L146.767 18.448C146.724 18.6293 146.655 18.7573 146.559 18.832C146.474 18.896 146.356 18.928 146.207 18.928C146.047 18.928 145.818 18.9013 145.519 18.848C145.22 18.784 144.906 18.752 144.575 18.752C144.095 18.752 143.668 18.8213 143.295 18.96C142.932 19.0987 142.602 19.3013 142.303 19.568C142.015 19.8347 141.759 20.16 141.535 20.544C141.311 20.928 141.103 21.3653 140.911 21.856V32H137.471V15.68H139.471C139.834 15.68 140.084 15.7493 140.223 15.888C140.362 16.016 140.458 16.2453 140.511 16.576L140.719 18.704Z" fill="#181818"/>
</svg>