<svg width="544" height="544" viewBox="0 0 544 544" fill="none" xmlns="http://www.w3.org/2000/svg">
<g clip-path="url(#clip0_701_19538)">
<path d="M277.144 205.328L367.646 205.333C380.921 205.333 391.682 216.098 391.679 229.377L391.639 453.676C391.637 466.954 380.872 477.718 367.597 477.718L277.095 477.713C263.819 477.713 253.059 466.948 253.061 453.669L253.101 229.37C253.104 216.092 263.868 205.328 277.144 205.328Z" fill="white"/>
<path d="M267.981 484.41C270.939 485.28 274.007 485.721 277.091 485.718L367.599 485.723C376.094 485.714 384.238 482.335 390.246 476.327C396.254 470.319 399.634 462.173 399.645 453.677L399.682 229.374C399.683 225.166 398.855 220.999 397.246 217.111C395.636 213.223 393.277 209.69 390.302 206.714C387.327 203.739 383.795 201.378 379.908 199.768C376.021 198.158 371.855 197.329 367.648 197.33L277.144 197.324C268.649 197.334 260.505 200.713 254.497 206.721C248.49 212.729 245.109 220.874 245.098 229.371L245.057 453.674C245.061 460.583 247.294 467.306 251.424 472.844C255.554 478.382 261.361 482.438 267.981 484.41ZM372.207 213.994C375.519 214.981 378.425 217.012 380.491 219.783C382.558 222.554 383.675 225.919 383.676 229.376L383.637 453.676C383.631 457.928 381.939 462.005 378.932 465.011C375.926 468.018 371.849 469.709 367.598 469.713L277.096 469.71C272.843 469.709 268.765 468.019 265.759 465.011C262.752 462.004 261.063 457.924 261.064 453.671L261.103 229.371C261.109 225.118 262.801 221.042 265.808 218.035C268.814 215.029 272.891 213.338 277.142 213.333L367.645 213.337C369.189 213.336 370.726 213.558 372.207 213.994Z" fill="#4178E1"/>
<path d="M295.866 219.119C296.497 219.305 297.152 219.399 297.81 219.398L349.306 219.398C351.125 219.398 352.87 218.675 354.157 217.389C355.444 216.102 356.167 214.357 356.167 212.537C356.167 210.717 355.445 208.972 354.159 207.686C352.872 206.399 351.128 205.676 349.308 205.676L297.816 205.674C296.166 205.672 294.57 206.265 293.321 207.345C292.072 208.424 291.255 209.918 291.018 211.552C290.781 213.186 291.142 214.85 292.033 216.239C292.924 217.629 294.286 218.65 295.869 219.117L295.866 219.119Z" fill="#4178E1"/>
</g>
<g clip-path="url(#clip1_701_19538)">
<path d="M353.6 485.682H466.316L448.675 366.013H371.241L353.6 485.682Z" fill="#BCAEFF"/>
<path d="M353.597 485.682H463.77C447.852 485.331 362.886 478.213 371.239 366.013L353.597 485.682Z" fill="#7C80F5"/>
<path d="M426.975 376.996C427.479 376.995 427.895 376.602 427.927 376.098C428.144 371.346 428.015 366.585 427.54 361.853C426.475 351.428 423.871 343.862 419.793 339.366C417.081 336.373 413.729 334.793 409.832 334.668H409.8H409.77C405.872 334.792 402.52 336.372 399.807 339.365C395.731 343.862 393.125 351.427 392.061 361.852C391.586 366.584 391.457 371.346 391.674 376.097C391.707 376.625 392.161 377.026 392.687 376.993C393.213 376.96 393.613 376.505 393.58 375.977C393.564 375.725 392.111 350.698 401.221 340.653C403.567 338.067 406.454 336.698 409.802 336.583C413.15 336.697 416.036 338.066 418.381 340.653C427.49 350.699 426.037 375.726 426.022 375.978C425.989 376.506 426.388 376.961 426.914 376.994C426.935 376.995 426.955 376.996 426.975 376.996Z" fill="#2B30AC"/>
</g>
<g clip-path="url(#clip2_701_19538)">
<path d="M183.438 490.906C171.18 490.906 161.242 488.909 161.242 486.445C161.242 483.982 171.18 481.984 183.438 481.984C195.696 481.984 205.633 483.982 205.633 486.445C205.633 488.909 195.696 490.906 183.438 490.906Z" fill="#5B2448"/>
</g>
<g clip-path="url(#clip3_701_19538)">
<path d="M226.974 97.0605C229.35 106.933 237.161 131.665 249.162 129.355C264 126.5 261.662 125.855 276.662 129.355C296.356 138.445 294.073 127.729 295.76 137.425C296.595 142.229 290.5 142.5 281.161 152.766C281.161 152.766 271.405 165.766 248 146.5C228.405 124.266 220 138 220 138L214.647 99.6503L226.974 97.0605Z" fill="#B42E2E"/>
<path d="M228.526 113C230.687 119.284 239.562 133.525 250.615 132.695C257.464 132.18 261.985 126.966 274.001 131.591C291.915 137.377 289.927 134 291.094 138.694C291.854 141.752 287.137 142 279.637 145.5C279.637 145.5 270.926 151.764 249.637 139.5C231.812 125.347 210.137 134.604 210.137 134.604L217.313 114.649L228.526 113Z" fill="#931414"/>
<path d="M218.832 224.762C259.979 218.764 270.787 219.446 270.261 227.157C269.969 231.441 261.011 236.756 244.381 233.836C231.334 231.577 222.065 227.176 218.832 224.762Z" fill="#5B2448"/>
<path d="M226.564 325.859C205.28 305.161 172.195 281.464 134.67 276.323C125.556 275.077 105.362 271.864 99.6564 282.048C85.0903 308.101 149.547 323.503 188.143 327.417C204.988 329.092 217.762 325.742 226.564 325.859Z" fill="#5B2448"/>
<path d="M113.774 354.62C123.55 364.609 137.902 370.411 153.519 374.286C153.87 374.383 154.24 374.461 154.61 374.559C175.466 379.602 198.405 381.315 215.6 385.015V354.834C194.121 352.887 182.359 340.172 166.372 331.974C166.041 331.799 165.69 331.623 165.359 331.468C160.335 328.975 154.882 326.97 148.554 325.86C175.797 311.431 203.118 290.986 222.455 272.546L180.276 223.166C149.644 250.738 111.671 281.679 104.505 321.206C102.285 333.454 104.291 344.942 113.774 354.62Z" fill="#F4ADA2"/>
<path d="M163.998 317.116C157.805 313.553 152.645 310.36 148.73 307.867C141.136 303.019 135.216 298.871 129.705 295.016C125.966 292.407 120.65 288.727 118.527 287.188C120.922 283.43 124.213 279.049 125.732 276.907C130.873 269.664 133.269 271.611 133.814 271.884C134.048 272 134.125 272.312 134.164 272.565C146.9 285.884 159.655 299.202 172.391 312.502C169.586 314.02 166.802 315.559 163.998 317.116Z" fill="#9B3C82"/>
<path d="M184.055 379.173C190.267 380.594 196.791 381.938 203.606 383.106C207.696 383.827 211.688 384.45 215.602 384.995C215.641 383.749 215.855 382.035 216.595 380.185C217.14 378.803 217.744 377.888 217.861 377.732C218.912 376.038 218.017 370.469 210.11 353.977C204.697 352.808 199.283 351.62 193.87 350.452C190.598 360.013 187.326 369.593 184.055 379.173Z" fill="#5257D9"/>
<path d="M239.185 421.894C241.911 419.792 245.085 413.833 245.027 403.221L244.715 351.602C234.258 352.848 226.235 355.535 208.436 354.25C210.987 364.063 214.336 361.474 214.414 377.908C214.434 383.379 215.232 384.937 216.693 391.032C216.751 391.265 216.829 391.499 216.888 391.733C216.907 391.791 216.926 391.869 216.946 391.927C218.036 395.841 219.516 399.638 221.347 403.26C228.474 417.202 238.152 421.466 239.126 421.875C239.146 421.875 239.165 421.894 239.185 421.894Z" fill="white"/>
<path d="M240.352 421.485C243.02 418.72 245.552 412.742 245.493 403.221L245.182 351.582C245.182 351.328 244.967 351.114 244.714 351.114H244.636C242.942 351.387 241.404 351.64 239.904 351.893C230.81 353.412 224.812 354.405 208.825 353.568C208.572 353.548 208.338 353.743 208.318 354.016C208.299 354.269 208.494 354.502 208.766 354.522C208.766 354.522 208.766 354.522 208.786 354.522C224.871 355.359 230.927 354.366 240.08 352.828C241.404 352.614 242.786 352.38 244.266 352.146L244.578 403.24C244.636 413.19 241.852 419.09 239.145 421.368C237.412 420.609 228.026 416.033 221.307 402.87C219.282 398.878 216.186 393.524 215.602 384.547C215.582 384.294 215.368 384.08 215.115 384.099C214.862 384.119 214.647 384.333 214.667 384.586V384.606C215.27 393.738 218.406 399.248 220.489 403.298C227.597 417.201 237.684 421.758 238.95 422.303C238.97 422.303 238.97 422.322 238.989 422.322C239.009 422.342 239.028 422.342 239.047 422.342H239.067C239.223 422.4 239.398 422.381 239.515 422.283C239.787 422.03 240.08 421.777 240.352 421.485Z" fill="#5B2448"/>
<path d="M217.042 372.981C217.101 372.923 217.159 372.826 217.159 372.748C218.016 367.958 219.029 366.77 221.054 364.394C221.599 363.752 222.203 363.031 222.904 362.155C226.234 357.891 226.156 354.62 226.136 354.483C226.117 354.23 225.903 354.016 225.65 354.035C225.396 354.055 225.182 354.269 225.202 354.522C225.202 354.561 225.26 357.618 222.164 361.59C221.482 362.467 220.879 363.187 220.333 363.81C218.269 366.244 217.12 367.568 216.225 372.611C216.186 372.865 216.341 373.118 216.614 373.157C216.77 373.157 216.926 373.098 217.042 372.981Z" fill="#5B2448"/>
<path d="M236.631 420.707C236.65 420.687 236.67 420.668 236.67 420.648C240.486 415.177 242.103 408.732 241.518 401.508C241.129 396.796 239.805 391.733 237.546 386.476C236.163 383.263 236.494 381.257 236.825 379.329C237.098 377.674 237.39 375.941 236.611 373.585C235.988 371.716 235.034 370.489 234.099 369.321C232.872 367.763 231.723 366.303 231.275 363.421C230.867 360.792 231.275 358.397 232.463 356.275C232.95 355.36 233.612 354.542 234.391 353.86C234.586 353.705 234.625 353.393 234.469 353.198C234.313 353.004 234.021 352.965 233.826 353.121C233.651 353.257 229.309 356.742 230.36 363.557C230.847 366.692 232.132 368.328 233.379 369.905C234.313 371.073 235.17 372.183 235.735 373.897C236.436 376.039 236.183 377.558 235.93 379.193C235.599 381.257 235.229 383.399 236.728 386.865C238.948 392.044 240.253 396.99 240.623 401.605C241.187 408.615 239.61 414.865 235.93 420.142C235.774 420.356 235.832 420.648 236.046 420.804C236.222 420.902 236.475 420.882 236.631 420.707Z" fill="#5B2448"/>
<path d="M240.644 367.782C240.916 367.49 241.15 367.178 241.345 366.828C242.007 365.699 242.357 364.199 242.357 362.603C242.357 361.006 241.968 359.526 241.306 358.397C240.585 357.189 239.612 356.527 238.56 356.527C237.509 356.527 236.535 357.209 235.834 358.416C235.172 359.545 234.821 361.045 234.821 362.641C234.821 364.219 235.211 365.718 235.873 366.847C236.593 368.055 237.567 368.717 238.619 368.717C239.397 368.697 240.137 368.347 240.644 367.782ZM237.216 358.124C237.547 357.735 238.054 357.481 238.56 357.462C239.261 357.462 239.943 357.949 240.488 358.864C241.072 359.857 241.403 361.181 241.403 362.603C241.403 364.024 241.092 365.348 240.527 366.341C240.001 367.256 239.32 367.763 238.619 367.763C237.917 367.763 237.236 367.276 236.691 366.361C236.106 365.368 235.775 364.043 235.775 362.622C235.775 361.201 236.087 359.876 236.652 358.883C236.808 358.63 237.002 358.358 237.216 358.124Z" fill="#5B2448"/>
<path d="M217.471 394.322C217.627 394.166 217.744 393.972 217.803 393.757C218.776 390.564 220.548 387.702 222.982 385.423C224.793 383.749 226.312 383.048 226.332 383.048C227.033 382.717 227.344 381.88 226.994 381.159C226.663 380.478 225.865 380.166 225.183 380.458C224.891 380.594 217.978 383.749 215.096 392.901C214.862 393.641 215.271 394.439 216.011 394.673C216.537 394.848 217.101 394.711 217.471 394.322Z" fill="#FFCF2D"/>
<path d="M220.295 401.117C220.47 400.923 220.606 400.708 220.645 400.455C222.398 392.744 228.785 389.317 228.844 389.298C229.525 388.928 229.798 388.071 229.428 387.39C229.058 386.708 228.24 386.455 227.558 386.786C227.247 386.942 219.944 390.797 217.9 399.832C217.724 400.591 218.211 401.351 218.971 401.526C219.458 401.623 219.964 401.468 220.295 401.117Z" fill="#FFCF2D"/>
<path d="M223.548 407.193C223.723 406.998 223.859 406.765 223.918 406.512C225.398 399.58 230.811 396.503 230.87 396.484C231.551 396.094 231.785 395.237 231.415 394.556C231.045 393.894 230.188 393.641 229.526 394.011C229.253 394.147 222.944 397.691 221.172 405.927C221.016 406.687 221.503 407.446 222.263 407.602C222.71 407.699 223.217 407.544 223.548 407.193Z" fill="#FFCF2D"/>
<path d="M251.412 255.274C242.552 284.735 233.633 317.993 208.064 347.278C205.513 350.199 202.943 352.983 200.353 355.671C201.229 366.614 200.119 375.376 198.99 381.217C193.927 407.348 178.699 425.243 169.838 435.388C165.476 440.392 161.542 444.228 158.875 446.701C158.816 447.149 157.687 454.626 151.845 457.157C146.042 459.65 137.746 456.359 134.182 448.414C141.504 415.916 150.988 389.162 158.349 360.986C169.157 322.004 180.023 283.022 190.928 244.078C213.089 248.128 229.232 251.224 251.412 255.274Z" fill="#F4ADA2"/>
<path d="M217.316 335.791C210.773 335.401 202.536 334.33 193.306 331.682C183.335 328.82 175.293 324.964 169.295 321.576C170.444 317 171.573 312.425 172.722 307.868C187.6 317.176 202.458 326.483 217.316 335.791Z" fill="#9B3C82"/>
<path d="M246.797 214.423C233.029 227.975 198.542 234.81 178.562 223.166C167.657 232.59 155.544 242.345 142.186 252.14C127.094 263.355 117.338 268.321 101.934 279.069C118.545 267.483 145.36 290.577 160.062 303.409C171.98 313.807 190.129 326.405 217.333 335.81C224.967 328.41 244.479 307.576 250.964 274.045C256.222 246.785 250.282 224.684 246.797 214.423Z" fill="#BF4040"/>
<path d="M132.002 457.702C132.041 457.877 132.119 458.033 132.197 458.189C133.151 460 136.306 460.136 140.22 459.435C140.59 459.377 140.979 459.299 141.388 459.201C142.966 458.87 144.64 458.423 146.335 457.897C149.489 456.923 152.663 455.735 155.312 454.606C158.875 453.107 161.465 451.783 161.68 451.393C161.699 451.374 161.699 451.354 161.719 451.315C162.303 450.264 163.919 446.019 165.555 442.631C165.633 442.456 165.711 442.3 165.808 442.125C166.042 441.657 166.295 441.151 166.587 440.606C167.327 439.223 168.301 437.568 169.527 435.738H169.508C159.421 433.83 149.333 431.922 139.266 429.994C139.071 429.955 138.896 429.916 138.701 429.896C138.195 431.746 137.688 433.655 137.182 435.563C137.007 436.264 136.812 436.965 136.637 437.666C135.001 444.111 133.443 450.79 132.119 457.196C132.08 457.332 132.061 457.488 132.041 457.624C132.002 457.683 132.002 457.702 132.002 457.702Z" fill="#5257D9"/>
<path d="M137.142 435.621L137.668 435.718L165.242 440.431L166.566 440.664C166.274 441.209 166.002 441.716 165.787 442.183C165.71 442.339 165.632 442.514 165.534 442.689L163.412 442.319L137.103 437.821L136.616 437.744C136.792 437.023 136.967 436.322 137.142 435.621Z" fill="white"/>
<path d="M91.6139 483.853C93.8338 486.54 99.9485 489.559 110.659 489.169L162.789 487.241C161.815 481.711 161.075 475.188 160.978 467.867C160.9 461.772 161.27 456.242 161.854 451.394C161.192 451.277 160.219 451.18 159.011 451.219C154.454 451.394 153.091 453.672 148.515 455.425C145.282 456.651 141.953 457.216 135.254 457.45C129.723 457.644 128.185 458.501 122.07 460.156C121.837 460.215 121.603 460.293 121.369 460.37C121.311 460.39 121.233 460.409 121.174 460.429C117.26 461.656 113.463 463.272 109.86 465.238C95.9954 472.871 91.9839 482.782 91.5944 483.795C91.6528 483.756 91.6333 483.795 91.6139 483.853Z" fill="white"/>
<path d="M92.0816 485.002C94.9442 487.611 101.078 489.987 110.698 489.617L162.867 487.689C163.12 487.669 163.335 487.455 163.315 487.202C163.315 487.183 163.315 487.163 163.315 487.124C162.984 485.43 162.692 483.872 162.38 482.373C161.524 473.144 162.03 468.081 162.38 451.919C162.38 451.666 162.186 451.433 161.913 451.433C161.64 451.433 161.426 451.627 161.426 451.9V451.919C161.076 468.198 160.472 472.988 161.446 482.587C161.718 483.931 161.991 485.294 162.264 486.793L110.64 488.701C100.572 489.071 94.5352 486.443 92.1594 483.775C92.8605 482.003 97.2031 472.384 110.289 465.18C114.262 462.999 123.375 459.085 132.43 458.209C132.684 458.189 132.898 457.956 132.878 457.703C132.859 457.449 132.625 457.235 132.372 457.255H132.353C123.142 458.15 113.872 462.142 109.841 464.342C96.0152 471.956 91.7116 482.295 91.2247 483.58C91.2247 483.6 91.2247 483.6 91.2053 483.619C91.2053 483.639 91.1858 483.658 91.1858 483.678V483.697C91.1273 483.853 91.1663 484.028 91.2637 484.165C91.4974 484.457 91.77 484.749 92.0816 485.002Z" fill="#5B2448"/>
<path d="M140.336 459.941C140.414 460 140.492 460.039 140.589 460.058C145.438 460.779 146.684 461.772 149.157 463.738C149.819 464.264 150.559 464.868 151.494 465.53C155.915 468.762 159.206 468.567 159.342 468.567C159.595 468.548 159.809 468.314 159.79 468.061C159.77 467.808 159.537 467.594 159.283 467.613C159.245 467.613 156.168 467.769 152.059 464.77C151.163 464.108 150.423 463.524 149.761 462.998C147.249 460.973 145.847 459.863 140.745 459.124C140.492 459.085 140.239 459.26 140.2 459.532C140.161 459.669 140.219 459.825 140.336 459.941Z" fill="#5B2448"/>
<path d="M92.7434 481.225C92.7629 481.245 92.7823 481.264 92.8018 481.264C98.4491 484.944 105.012 486.385 112.295 485.567C117.046 485.042 122.109 483.523 127.367 481.089C130.561 479.609 132.605 479.862 134.572 480.135C136.266 480.349 138 480.583 140.356 479.726C142.225 479.044 143.433 478.032 144.601 477.058C146.139 475.773 147.58 474.566 150.482 474.021C153.13 473.534 155.565 473.845 157.746 474.994C158.68 475.462 159.537 476.104 160.238 476.863C160.413 477.058 160.705 477.078 160.9 476.922C161.095 476.747 161.114 476.455 160.959 476.26C160.803 476.085 157.161 471.82 150.287 473.086C147.133 473.67 145.536 475.033 143.978 476.338C142.829 477.311 141.738 478.227 140.025 478.85C137.883 479.628 136.325 479.414 134.689 479.2C132.586 478.927 130.405 478.635 126.958 480.232C121.798 482.627 116.832 484.107 112.178 484.633C105.109 485.431 98.7607 484.029 93.3081 480.485C93.0939 480.349 92.8018 480.407 92.646 480.621C92.5292 480.816 92.5681 481.069 92.7434 481.225Z" fill="#5B2448"/>
<path d="M147.133 478.79C148.243 478.07 149.743 477.661 151.359 477.603C152.956 477.544 154.475 477.856 155.662 478.479C156.909 479.16 157.629 480.115 157.668 481.166C157.707 482.237 157.065 483.23 155.877 483.989C154.767 484.71 153.267 485.119 151.651 485.177C150.054 485.236 148.535 484.924 147.347 484.301C146.997 484.106 146.666 483.892 146.374 483.619C145.77 483.113 145.4 482.393 145.361 481.614C145.303 480.562 145.926 479.55 147.133 478.79ZM147.776 483.464C148.808 484.009 150.152 484.281 151.593 484.243C153.034 484.184 154.358 483.814 155.331 483.191C156.227 482.626 156.714 481.906 156.695 481.205C156.656 480.679 156.402 480.192 155.994 479.861C155.76 479.647 155.487 479.472 155.195 479.316C154.163 478.771 152.819 478.498 151.378 478.537C149.937 478.596 148.613 478.966 147.639 479.589C146.744 480.153 146.257 480.874 146.276 481.575C146.315 482.295 146.841 482.977 147.776 483.464Z" fill="#5B2448"/>
<path d="M118.799 461.052C118.955 461.208 119.149 461.305 119.364 461.364C122.616 462.24 125.576 463.953 127.932 466.348C129.684 468.12 130.424 469.639 130.444 469.659C130.794 470.36 131.671 470.632 132.372 470.282C133.053 469.931 133.326 469.113 133.014 468.432C132.878 468.14 129.47 461.247 120.143 458.638C119.383 458.423 118.604 458.871 118.39 459.631C118.234 460.117 118.39 460.682 118.799 461.052Z" fill="#FFCF2D"/>
<path d="M112.043 464.109C112.238 464.284 112.471 464.401 112.724 464.459C120.572 465.978 124.233 472.326 124.253 472.384C124.642 473.066 125.518 473.299 126.2 472.91C126.862 472.52 127.115 471.683 126.745 471.002C126.57 470.69 122.442 463.447 113.27 461.655C112.491 461.499 111.751 462.006 111.595 462.784C111.498 463.271 111.653 463.778 112.043 464.109Z" fill="#FFCF2D"/>
<path d="M105.984 467.594C106.179 467.769 106.432 467.886 106.685 467.944C113.734 469.229 117.006 474.584 117.045 474.643C117.454 475.324 118.33 475.538 119.012 475.129C119.674 474.72 119.908 473.864 119.518 473.202C119.362 472.929 115.604 466.659 107.211 465.14C106.432 465.004 105.692 465.51 105.556 466.289C105.458 466.756 105.614 467.263 105.984 467.594Z" fill="#FFCF2D"/>
<path d="M153.521 374.285C153.871 374.382 154.241 374.46 154.611 374.558C156.422 367.898 158.525 359.759 160.336 353.353C162.031 347.336 164.582 338.204 166.393 331.973C166.062 331.798 165.711 331.623 165.38 331.467C163.549 337.776 160.998 346.966 159.265 353.061C157.435 359.467 155.332 367.606 153.521 374.285Z" fill="#9B3C82"/>
<path d="M138.915 324.146C138.915 324.457 139.169 324.71 139.461 324.71C142.051 324.73 144.641 325.022 147.153 325.587C147.737 325.723 148.555 325.859 148.555 325.859C149.003 325.626 149.431 325.411 149.879 325.158C149.061 324.925 148.224 324.691 147.386 324.496C144.796 323.912 142.129 323.62 139.461 323.601C139.169 323.601 138.915 323.834 138.915 324.146Z" fill="#9B3C82"/>
<path d="M162.886 362.097C163.685 362.097 164.464 361.999 165.243 361.805C166.275 361.551 167.248 361.123 168.144 360.539C168.397 360.364 168.475 360.033 168.3 359.76C168.125 359.507 167.794 359.429 167.521 359.604C166.723 360.13 165.866 360.5 164.951 360.734C163.841 361.006 162.711 361.065 161.562 360.889C161.251 360.85 160.978 361.045 160.92 361.357C160.861 361.668 161.075 361.941 161.387 361.999C161.913 362.058 162.4 362.097 162.886 362.097Z" fill="#9B3C82"/>
<path d="M185.594 224.879C182.595 219.31 167.639 191.894 153.872 182.197C151.009 180.172 144.797 175.791 139.812 177.913C137.884 178.731 136.599 180.347 136.209 181.165C134.418 185.118 142.285 195.652 185.594 224.879Z" fill="#5B2448"/>
<path d="M76.8928 159.396C76.8928 162.647 81.839 168.528 87.8563 179.977C107.739 217.694 130.367 227.469 142.557 228.656C165.847 230.954 184.97 213.975 182.438 199.254C180.997 190.92 173.617 182.917 157.999 178.264C152.858 181.691 147.717 185.118 142.576 188.545C127.66 178.945 101.079 164.38 100.923 144.831C100.864 138.113 103.941 133.693 103.63 131.648C103.552 131.103 103.104 130.714 102.559 130.694C97.554 130.344 92.043 142.105 91.4783 143.993C81.8195 142.942 76.8928 149.095 76.8928 159.396Z" fill="#F4ADA2"/>
<path d="M146.841 185.624C149.081 186.812 157.999 202.818 161.076 206.712C164.328 210.82 168.34 214.793 176.168 220.089C170.112 206.03 164.056 192.322 157.999 178.264C154.28 180.698 150.56 183.171 146.841 185.624Z" fill="#9B3C82"/>
<path d="M250.068 178.01C252.171 180.016 256.767 183.832 263.778 185.585C273.203 187.941 280.914 185.02 283.485 183.93C301.381 182.08 313.474 174.603 314.175 166.444C314.525 162.472 312.091 159.337 311.429 158.558C303.737 149.328 283.894 154.527 274.877 158.188C269.717 160.272 259.279 165.451 250.068 178.01Z" fill="#5B2448"/>
<path d="M188.029 126.333C190.23 127.832 192.722 128.202 197.045 127.267C197.805 129.701 198.35 142.28 195.176 151.101C196.072 155.482 198.019 157.371 199.168 158.188C204.874 162.336 216.558 159.162 226.898 148.667C219.401 135.913 217.668 122.711 218.447 119.595L227.521 107.757C227.755 107.484 227.988 107.211 228.203 106.919C229.352 105.459 230.267 103.823 230.948 102.071C234.824 91.9262 229.916 78.7633 216.908 74.6158C216.733 74.5574 216.558 74.499 216.382 74.4601C216.363 74.4601 216.363 74.4601 216.343 74.4406C213.637 73.6033 210.793 73.2333 207.95 73.3502C201.583 73.6812 195.935 76.9719 192.119 82.0151C190.561 84.1375 189.236 86.3962 188.146 88.7912C187.854 89.4143 187.601 90.0569 187.348 90.6995C187.328 90.7384 187.309 90.7774 187.289 90.8358V90.8552C187.289 90.8747 187.27 90.8942 187.27 90.9137V90.9331V90.9526C187.27 90.9721 187.25 90.9915 187.25 91.011V91.0305C187.114 91.381 186.705 92.413 186.179 93.8928C186.101 94.107 186.023 94.3407 185.945 94.5743C185.887 94.7691 185.809 94.9638 185.751 95.1585C185.751 95.178 185.731 95.2169 185.731 95.2364C184.777 97.9624 183.648 101.623 183.024 104.972C181.837 111.145 182.616 122.653 188.029 126.333Z" fill="#F4ADA2"/>
<path d="M219.359 105.517C221.715 99.4028 195.271 95.1969 195.271 95.1969L187.637 91.1273L187.248 90.9131V90.9326V90.952C187.248 90.9715 187.228 90.991 187.228 91.0104V91.0299C187.092 91.3804 186.683 92.4124 186.157 93.8923C186.06 94.1064 202.476 103.823 219.359 105.517Z" fill="#9B3C82"/>
<path opacity="0.52" d="M205.359 118.505C202.552 118.505 200.276 116.23 200.276 113.423C200.276 110.616 202.552 108.341 205.359 108.341C208.166 108.341 210.441 110.616 210.441 113.423C210.441 116.23 208.166 118.505 205.359 118.505Z" fill="#E57281"/>
<path d="M204.305 98.9945C206.661 100.513 207.479 103.103 206.622 104.135C205.765 105.167 203.195 104.68 201.15 102.753C199.047 100.786 198.015 98.5077 198.833 97.612C199.69 96.6774 201.948 97.4952 204.305 98.9945Z" fill="#5B2448"/>
<path d="M185.65 95.2167C186 95.3725 186.37 95.5088 186.74 95.6062C189.311 96.3071 191.609 96.0345 191.92 94.9441C192.232 93.8148 190.518 92.1986 188.201 91.0692C187.909 90.9329 187.617 90.8161 187.325 90.7188C187.305 90.7577 187.286 90.7966 187.266 90.8551V90.8745L187.247 90.9329V90.9524V90.9719C187.247 90.9914 187.227 91.0108 187.227 91.0303V91.0498C187.091 91.4003 186.682 92.4323 186.156 93.9121C186.02 94.3015 185.864 94.7299 185.708 95.1583C185.669 95.1778 185.669 95.1972 185.65 95.2167Z" fill="#5B2448"/>
<path d="M189.585 114.358C189.819 114.669 190.091 114.942 190.442 115.137C190.773 115.331 191.123 115.468 191.493 115.546C192.233 115.721 193.012 115.662 193.733 115.39C194.083 115.254 194.434 115.059 194.726 114.825C195.018 114.591 195.291 114.299 195.505 113.988C195.953 113.365 196.128 112.586 196.031 111.826C195.992 111.573 195.758 111.398 195.505 111.437C195.31 111.457 195.154 111.612 195.115 111.788V111.826C194.998 112.333 194.765 112.8 194.434 113.19C194.278 113.384 194.083 113.54 193.869 113.696C193.674 113.852 193.441 113.968 193.207 114.046C192.72 114.222 192.214 114.28 191.707 114.241C191.201 114.202 190.695 114.046 190.266 113.754L190.227 113.735C190.013 113.579 189.721 113.637 189.585 113.852C189.488 113.988 189.488 114.183 189.585 114.358Z" fill="#9B3C82"/>
<path d="M202.281 105.595C201.23 105.011 198.679 103.687 196.576 101.662C196.283 101.37 195.816 101.389 195.524 101.681C194.784 102.46 193.83 103.901 195.446 105.108C197.432 106.588 201.249 106.977 202.32 106.238C202.495 106.121 202.534 105.887 202.418 105.712C202.359 105.673 202.32 105.634 202.281 105.595Z" fill="#5B2448"/>
<path d="M185.747 97.729C186.779 98.1184 188.259 98.391 190.498 98.761C190.888 98.8389 191.122 99.2283 191.044 99.6177C191.044 99.6372 191.044 99.6567 191.024 99.6761C190.752 100.708 190.051 102.13 188.142 101.526C186.214 100.922 185.202 99.3451 185.163 98.0405C185.163 97.7484 185.474 97.6316 185.747 97.729Z" fill="#5B2448"/>
<path d="M223.02 112.917C223.04 112.936 223.079 112.936 223.098 112.956C223.196 112.995 223.293 113.033 223.41 113.053C223.488 113.072 223.546 113.092 223.624 113.111C229.661 114.903 258.287 120.355 260.935 112.664C263.058 106.433 244.597 100.455 235.736 97.9429C235.327 97.8261 234.957 97.7287 234.587 97.6313C234.256 97.534 233.964 97.4561 233.672 97.3782C231.861 96.8914 230.654 96.5993 230.479 96.5604H230.459C230.323 96.5214 229.602 96.3267 229.291 96.2294C229.193 96.2099 229.154 96.1904 229.154 96.1904L223.624 111.281L223.02 112.917Z" fill="#4178E1"/>
<path d="M223.02 112.917C223.04 112.936 223.079 112.936 223.098 112.956C227.129 112.08 234.412 106.024 235.736 97.943C235.327 97.8262 234.957 97.7288 234.587 97.6315C234.256 97.5341 233.964 97.4562 233.672 97.3784C231.861 96.8916 230.654 96.5995 230.479 96.5605H230.459C229.661 99.5787 227.343 106.997 223.624 111.301L223.02 112.917Z" fill="#454545"/>
<path d="M187.268 90.8552C187.268 90.8747 187.287 90.8747 187.268 90.8552C187.287 90.8747 187.287 90.8747 187.268 90.8552C187.404 90.9915 187.521 91.1083 187.657 91.2251C190.033 93.406 195.076 96.3462 201.912 99.3059C202.087 99.3838 202.282 99.4617 202.457 99.5396C202.515 99.559 202.554 99.5785 202.613 99.6175C210.675 103.006 219.029 105.654 227.558 107.562C227.753 107.348 227.967 107.134 228.181 106.9C229.33 105.439 230.245 103.804 230.927 102.051C234.802 91.9067 229.895 78.7438 216.887 74.5963C216.711 74.5379 216.536 74.4989 216.361 74.4405C216.341 74.4405 216.341 74.4405 216.322 74.421C213.615 73.5838 210.772 73.2138 207.929 73.3306C201.561 73.6617 195.914 76.9524 192.097 81.9955C190.539 84.118 189.215 86.3767 188.124 88.7717C187.832 89.3948 187.579 90.0374 187.326 90.6799C187.307 90.7189 187.287 90.7578 187.268 90.8162C187.287 90.8552 187.268 90.8552 187.268 90.8552Z" fill="#4178E1"/>
<path d="M217.161 106.608C217.161 106.608 222.594 102.753 227.793 105.479C232.701 108.049 230.851 115.896 221.017 119.031C219.011 119.615 216.927 119.869 214.844 119.791L217.161 106.608Z" fill="#F4ADA2"/>
<path d="M201.173 125.593C202.4 125.047 203.88 123.938 204.815 124.95C205.886 126.118 204.815 131.531 197.707 134.238C197.668 130.908 197.356 128.299 197.064 127.287C199.148 126.469 198.739 126.664 201.173 125.593Z" fill="#454545"/>
<path d="M215.31 120.764C215.018 120.744 214.804 120.511 214.823 120.219C214.843 119.927 215.076 119.712 215.369 119.732C215.407 119.732 216.693 119.79 218.445 119.576L218.426 119.596C218.348 119.868 218.309 120.219 218.29 120.647C217.491 120.744 216.693 120.783 215.894 120.783C215.544 120.764 215.33 120.764 215.31 120.764Z" fill="#9B3C82"/>
<path d="M217.667 113.968C217.822 113.968 217.978 113.89 218.075 113.754C221.542 109.081 225.923 110.132 226.098 110.191C226.371 110.269 226.663 110.094 226.722 109.821C226.8 109.548 226.624 109.256 226.352 109.198C226.137 109.139 221.133 107.893 217.238 113.151C217.063 113.384 217.121 113.696 217.335 113.871C217.452 113.929 217.569 113.968 217.667 113.968Z" fill="#9B3C82"/>
<path d="M189.721 108.925C189.955 108.925 190.13 108.75 190.13 108.516C190.13 108.341 190.033 108.204 189.877 108.127C189.001 107.757 187.988 106.51 188.007 105.848C188.007 105.712 188.046 105.595 188.3 105.498C189.643 105.05 190.753 104.115 191.396 102.869C191.493 102.655 191.396 102.421 191.182 102.324C190.967 102.227 190.734 102.324 190.636 102.538C190.072 103.57 189.137 104.349 188.027 104.719C187.521 104.855 187.17 105.303 187.17 105.829C187.131 106.919 188.436 108.438 189.526 108.905C189.604 108.925 189.663 108.925 189.721 108.925Z" fill="#5B2448"/>
<path d="M187.288 90.8746C187.405 90.9914 187.541 91.1082 187.678 91.2445C190.053 93.4253 195.097 96.3656 201.932 99.3253C202.847 97.3002 204.736 90.5046 197.804 87.136C190.969 83.8258 187.561 90.3683 187.288 90.8746Z" fill="#454545"/>
<path d="M141.017 177.388C144.211 177.407 146.587 177.991 148.534 179.14C156.07 183.618 158.154 192.751 161.425 200.364C165.067 208.815 170.091 216.779 177.549 221.179C177.88 221.374 178.231 221.569 178.562 221.744C180.646 222.854 182.924 223.691 185.417 224.178C206.682 182.392 207.714 169.56 203.936 166.23C202.904 165.335 198.035 162.063 196.049 155.949C195.406 153.983 195.231 152.269 195.192 151.14H195.036L193.868 151.198C172.759 152.736 164.989 176.161 141.017 177.388Z" fill="#E0B036"/>
<path d="M221.268 151.899C221.677 149.913 222.631 144.598 227.052 140.976C229.661 138.834 232.602 137.997 235.153 137.627C246.252 135.972 257.021 142.631 271.84 146.369C290.399 151.043 302.569 147.927 311.449 158.539C311.741 158.89 311.975 159.201 312.131 159.396C309.833 157.605 306.581 155.657 302.355 154.762C288.198 151.802 276.767 163.816 275.774 164.887C270.984 167.535 266.057 170.203 260.994 172.832C255.113 175.869 248.258 179.277 240.294 183.074C227.694 175.811 218.775 163.991 221.268 151.899Z" fill="#E0B036"/>
<path d="M224.345 144.481C214.491 154.586 203.956 158.753 198.465 155.287C197.394 154.606 196.148 153.418 195.213 151.179C187.696 166.561 180.608 186.676 178.933 210.665C178.621 215.007 178.524 219.194 178.563 223.244C181.737 224.996 184.931 227.138 188.67 228.053C237.528 239.872 264.966 213.313 270.107 225.132C264.966 212.612 260.332 206.79 253.983 193.082C244.422 172.403 254.353 154.839 244.578 147.07C238.58 142.28 229.953 143.254 224.345 144.481Z" fill="#FFD057"/>
<path d="M197.938 241.508C198.406 241.8 199.048 241.605 199.301 241.508C200.178 241.216 201.093 240.262 201.911 239.074L205.007 233.466V233.486C200.353 248.557 202.183 250.017 208.337 239.95C209.174 238.587 210.07 237.029 211.063 235.258C211.083 235.219 211.102 235.199 211.122 235.16C207.461 249.569 209.077 251.653 214.14 242.735C214.977 241.274 215.912 239.502 216.925 237.438C216.983 237.302 217.061 237.166 217.119 237.029C215.347 245.441 215.951 247.466 216.769 247.836C219.398 248.946 224.305 233.466 238.365 222.64C239.358 221.88 240.118 221.394 240.838 220.907C247.79 216.234 256.67 211.872 270.593 208.406C288.782 203.889 291.683 205.836 303.503 200.17C308.898 197.599 310.728 194.231 311.896 191.427C314.097 186.189 312.247 178.361 309.501 172.909C303.523 161.09 291.079 157.137 288.061 156.28C285.919 157.254 283.348 158.617 280.681 160.564C278.694 162.024 277.039 163.504 275.715 164.848C263.622 169.112 253.476 174.253 245.161 179.374C244.791 179.607 244.441 179.822 244.071 180.055C243.272 180.562 242.493 181.048 241.734 181.555C241.422 181.749 241.111 181.963 240.819 182.158C234.529 186.325 229.446 190.375 225.493 193.822C225.493 193.822 200.392 215.65 197.373 238.743C197.354 239.347 197.14 241.002 197.938 241.508Z" fill="#F4ADA2"/>
<path d="M142.598 188.525C143.532 189.499 144.409 190.55 145.188 191.621C145.304 191.777 145.46 191.855 145.635 191.855C145.752 191.855 145.869 191.816 145.966 191.758C146.22 191.582 146.278 191.232 146.083 190.979C145.304 189.908 144.448 188.876 143.532 187.902C143.221 188.097 142.909 188.311 142.598 188.525Z" fill="#9B3C82"/>
<path d="M214.161 242.753C214.998 241.293 215.933 239.521 216.946 237.457C217.978 234.712 219.263 232.064 220.782 229.552C220.938 229.279 220.86 228.948 220.587 228.792C220.315 228.637 219.984 228.714 219.828 228.987C217.978 232.044 216.459 235.315 215.31 238.703C214.881 240.008 214.492 241.371 214.161 242.753Z" fill="#9B3C82"/>
<path d="M208.359 239.969C209.197 238.606 210.093 237.048 211.086 235.276C212.176 232.375 213.481 229.513 214.98 226.787C215.136 226.514 215.019 226.183 214.766 226.027C214.494 225.872 214.163 225.988 214.007 226.242C212.41 229.182 211.008 232.258 209.859 235.393C209.294 236.893 208.807 238.431 208.359 239.969Z" fill="#9B3C82"/>
<path d="M201.933 239.074L205.029 233.466C205.049 233.427 205.049 233.408 205.068 233.388C206.1 230.74 207.249 228.092 208.476 225.541C208.612 225.269 208.496 224.938 208.223 224.801C207.95 224.665 207.619 224.782 207.483 225.054C206.237 227.644 205.068 230.312 204.036 232.979C203.296 234.907 202.595 236.874 201.972 238.84C201.933 238.918 201.914 238.996 201.933 239.074Z" fill="#9B3C82"/>
<path d="M93.0932 166.503C93.2684 166.503 93.4437 166.405 93.5411 166.23C93.6774 165.977 93.5995 165.666 93.3463 165.529C92.5869 165.101 88.7116 162.706 87.7769 157.818C86.8811 153.204 89.179 149.757 89.8995 148.803C90.0748 148.569 90.0358 148.258 89.8021 148.083C89.5685 147.907 89.2569 147.946 89.0816 148.18C88.2832 149.212 85.7906 152.989 86.7643 158.013C87.7964 163.348 92.0026 165.958 92.84 166.425C92.9179 166.483 93.0153 166.503 93.0932 166.503Z" fill="#9B3C82"/>
<path d="M85.5137 165.311C85.4688 166.265 84.0442 168.048 80.5125 165.843C78.3284 164.449 76.5362 162.538 75.2559 160.295C73.2877 156.779 76.3419 153.379 77.4516 154.18C81.852 157.375 85.6041 162.84 85.5137 165.311Z" fill="#9B3C82"/>
<path d="M84.4356 165.842C83.3675 166.898 78.941 164.943 75.7018 160.632C72.8395 156.803 75.3755 152.087 78.1836 155.421C81.5272 159.433 85.9804 164.246 84.4356 165.842Z" fill="#F4ADA2"/>
<path d="M87.7312 161.691C87.2622 162.755 85.3369 164.631 79.1591 158.523C77.8639 157.281 76.6866 155.863 75.6872 154.363L78.9377 149.117C79.9662 149.178 80.5029 148.731 81.5413 149.677C85.5664 153.313 88.7707 159.465 87.7312 161.691Z" fill="#9B3C82"/>
<path d="M86.6508 161.699C85.9497 162.351 82.4408 161.718 76.7816 154.316C73.6542 150.23 77.6765 144.748 80.6094 148.993C84.083 154.078 88.5596 159.9 86.6508 161.699Z" fill="#F4ADA2"/>
<path d="M91.0945 157.232C90.4805 158.225 88.2744 159.357 82.185 152.466C80.8245 150.968 79.6667 149.274 78.695 147.458L83.143 142.791C84.1467 142.967 85.4456 143.447 86.3744 144.53C89.9776 148.638 92.3854 155.14 91.0945 157.232Z" fill="#9B3C82"/>
<path d="M89.7521 157.144C88.9804 157.38 85.8385 156.343 80.5704 148.985C75.9878 142.538 81.5859 136.994 84.8297 142.028C88.2019 147.212 92.2752 156.401 89.7521 157.144Z" fill="#F4ADA2"/>
<path d="M92.5356 151.838C91.6101 152.603 89.5201 152.636 84.3864 145.026C83.0783 143.098 82.1561 141.053 81.9248 140.079L88.4351 135.694C89.3811 136.139 90.4254 136.684 91.1568 138.127C93.9623 143.71 94.4032 150.232 92.5356 151.838Z" fill="#9B3C82"/>
<path d="M91.5538 151.186C90.3827 151.416 87.9696 149.411 83.8006 142.531C79.5933 135.642 88.1405 132.217 90.4175 138.209C92.6292 143.946 93.6414 150.791 91.5538 151.186Z" fill="#F4ADA2"/>
<path d="M195.056 215.611C194.939 217.032 198.932 219.291 203.177 219.563C203.605 219.583 204.034 219.602 204.462 219.583C204.968 219.563 205.494 219.505 205.981 219.408C211.842 218.298 214.919 211.405 216.633 202.935C210.81 208.114 206.955 211.23 202.865 212.612C198.425 214.131 195.154 214.364 195.056 215.611Z" fill="#F4ADA2"/>
<path d="M203.08 219.563C203.508 219.582 203.937 219.602 204.365 219.582C204.404 219.505 204.443 219.427 204.501 219.368C205.767 217.246 207.15 215.123 208.61 213.118C208.785 212.865 208.727 212.514 208.474 212.339C208.221 212.164 207.87 212.222 207.695 212.475C206.234 214.52 204.832 216.642 203.547 218.804C203.391 219.037 203.236 219.31 203.08 219.563Z" fill="#9B3C82"/>
<path d="M275.776 164.867C278.191 163.66 283.351 161.499 290.186 161.791C297.917 162.122 303.389 165.413 305.609 166.931C303.214 164.166 299.144 160.292 293.088 157.838C291.335 157.137 289.661 156.631 288.122 156.3C285.844 157.215 283.001 158.656 280.06 160.934C278.347 162.278 276.925 163.621 275.776 164.867Z" fill="#9B3C82"/>
<path d="M177.55 221.179C177.881 221.374 178.232 221.569 178.563 221.744C178.913 199.858 183.139 179.023 191.123 159.844C192.33 156.923 193.654 154.002 195.037 151.159L193.869 151.218C192.564 153.924 191.318 156.67 190.169 159.435C182.204 178.595 177.959 199.371 177.55 221.179Z" fill="white"/>
<path d="M240.88 182.178C241.191 181.983 241.503 181.769 241.795 181.574C228.884 172.617 221.776 160.72 222.964 149.679C223.139 148.024 223.509 146.389 224.074 144.753C224.172 144.441 224.288 144.13 224.425 143.818L222.555 146.233C222.341 147.031 222.185 147.849 222.068 148.667C222.029 148.959 221.99 149.251 221.952 149.563C220.725 160.895 227.871 173.045 240.88 182.178Z" fill="white"/>
</g>
<g clip-path="url(#clip4_701_19538)">
<path d="M388.414 398.254H294.411V485.836H388.414V398.254Z" fill="#E0B036"/>
<path d="M294.411 398.505V485.838H388.414C375.29 485.395 363.975 483.126 354.257 479.588C344.001 475.858 335.476 470.705 328.414 464.783C297.509 438.922 294.411 398.505 294.411 398.505Z" fill="#FFD057"/>
<path d="M354.258 398.254H328.414V485.836H354.258V398.254Z" fill="white"/>
<path d="M388.414 397.773H294.411V399.562H388.414V397.773Z" fill="#E0B036"/>
<path d="M364.723 466.975C364.415 466.975 364.184 466.725 364.184 466.436C364.184 466.321 364.223 466.206 364.3 466.109L367.456 461.995L370.9 457.572C371.093 457.342 371.42 457.284 371.67 457.476C371.708 457.495 371.747 457.534 371.766 457.572L375.191 461.995L378.367 466.09C378.559 466.321 378.501 466.667 378.27 466.859C378.174 466.936 378.059 466.975 377.943 466.975H375.692C375.384 466.975 375.153 467.225 375.153 467.513V478.088C375.153 478.396 374.903 478.627 374.614 478.627H368.071C367.764 478.627 367.533 478.377 367.533 478.088V467.513C367.533 467.205 367.282 466.975 366.994 466.975H364.723Z" fill="#5B2448"/>
</g>
<g clip-path="url(#clip5_701_19538)">
<path d="M330.301 351.408L365.559 303.068C365.686 302.895 365.762 302.689 365.779 302.475C365.797 302.261 365.754 302.046 365.657 301.854C365.559 301.663 365.411 301.502 365.227 301.389C365.044 301.277 364.833 301.217 364.617 301.217L343.781 301.172C343.15 301.171 342.528 301.318 341.966 301.603C341.404 301.888 340.917 302.302 340.546 302.811L329.184 318.387C329.038 318.587 328.849 318.751 328.63 318.867C328.411 318.983 328.169 319.048 327.921 319.056C327.674 319.064 327.427 319.016 327.201 318.915C326.975 318.814 326.775 318.664 326.616 318.474L301.998 289.109C301.561 288.588 301.015 288.169 300.397 287.882C299.78 287.595 299.107 287.448 298.425 287.45L277.1 287.519C276.834 287.52 276.573 287.597 276.348 287.74C276.124 287.884 275.945 288.088 275.832 288.329C275.72 288.57 275.678 288.839 275.713 289.102C275.748 289.366 275.857 289.615 276.028 289.819L327.733 351.495C327.892 351.684 328.092 351.835 328.318 351.936C328.544 352.037 328.79 352.085 329.038 352.076C329.286 352.068 329.528 352.004 329.747 351.888C329.966 351.772 330.155 351.608 330.301 351.408Z" fill="#90CE5E"/>
</g>
<defs>
<clipPath id="clip0_701_19538">
<rect width="214.336" height="304.858" fill="white" transform="matrix(-0.959119 -0.283003 -0.283003 0.959119 468.297 225.655)"/>
</clipPath>
<clipPath id="clip1_701_19538">
<rect width="112.717" height="151.014" fill="white" transform="matrix(-1 0 0 1 466.316 334.668)"/>
</clipPath>
<clipPath id="clip2_701_19538">
<rect width="44.3904" height="8.9216" fill="white" transform="matrix(-1 0 0 1 205.633 481.984)"/>
</clipPath>
<clipPath id="clip3_701_19538">
<rect width="239.795" height="417.357" fill="white" transform="matrix(-1 0 0 1 314.215 73.3311)"/>
</clipPath>
<clipPath id="clip4_701_19538">
<rect width="94.0032" height="88.5632" fill="white" transform="matrix(-1 0 0 1 388.414 397.773)"/>
</clipPath>
<clipPath id="clip5_701_19538">
<rect width="90.0864" height="64.6272" fill="white" transform="matrix(-1 0 0 1 365.785 287.45)"/>
</clipPath>
</defs>
</svg>
