<svg width="140" height="51" viewBox="0 0 140 51" fill="none" xmlns="http://www.w3.org/2000/svg">
<rect y="0.722656" width="140" height="50" rx="5" fill="#010101"/>
<path d="M25.5172 26.2781C25.5078 24.6797 26.232 23.475 27.6945 22.5867C26.8766 21.4148 25.6391 20.7703 24.0078 20.6461C22.4633 20.5242 20.7734 21.5461 20.1547 21.5461C19.5008 21.5461 18.0055 20.6883 16.8289 20.6883C14.4008 20.7258 11.8203 22.6242 11.8203 26.4867C11.8203 27.6281 12.0289 28.807 12.4461 30.0211C13.0039 31.6195 15.0148 35.5359 17.1125 35.4727C18.2094 35.4469 18.9852 34.6945 20.4125 34.6945C21.7977 34.6945 22.5148 35.4727 23.7383 35.4727C25.8547 35.4422 27.6734 31.882 28.2031 30.2789C25.3648 28.9406 25.5172 26.3602 25.5172 26.2781ZM23.0539 19.1297C24.2422 17.7188 24.1344 16.4344 24.0992 15.9727C23.0492 16.0336 21.8352 16.6875 21.1437 17.4914C20.382 18.3539 19.9344 19.4203 20.0305 20.6227C21.1648 20.7094 22.2008 20.1258 23.0539 19.1297Z" fill="#FEFEFE"/>
<path d="M47.08 18.6427C47.08 19.1793 46.995 19.6677 46.825 20.1077C46.655 20.5477 46.415 20.9243 46.105 21.2377C45.795 21.551 45.4233 21.7943 44.99 21.9677C44.5567 22.1377 44.0767 22.2227 43.55 22.2227H40.87V15.0577H43.55C44.0767 15.0577 44.5567 15.1443 44.99 15.3177C45.4233 15.4877 45.795 15.731 46.105 16.0477C46.415 16.361 46.655 16.7377 46.825 17.1777C46.995 17.6177 47.08 18.106 47.08 18.6427ZM46.085 18.6427C46.085 18.2027 46.025 17.8093 45.905 17.4627C45.785 17.116 45.615 16.8227 45.395 16.5827C45.175 16.3427 44.9083 16.1593 44.595 16.0327C44.2817 15.906 43.9333 15.8427 43.55 15.8427H41.845V21.4377H43.55C43.9333 21.4377 44.2817 21.3743 44.595 21.2477C44.9083 21.121 45.175 20.9393 45.395 20.7027C45.615 20.4627 45.785 20.1693 45.905 19.8227C46.025 19.476 46.085 19.0827 46.085 18.6427ZM50.3093 17.0777C50.6793 17.0777 51.0126 17.1393 51.3093 17.2627C51.6093 17.386 51.8626 17.561 52.0693 17.7877C52.2793 18.0143 52.4393 18.2893 52.5493 18.6127C52.6626 18.9327 52.7193 19.291 52.7193 19.6877C52.7193 20.0877 52.6626 20.4477 52.5493 20.7677C52.4393 21.0877 52.2793 21.361 52.0693 21.5877C51.8626 21.8143 51.6093 21.9893 51.3093 22.1127C51.0126 22.2327 50.6793 22.2927 50.3093 22.2927C49.9393 22.2927 49.6043 22.2327 49.3043 22.1127C49.0076 21.9893 48.7543 21.8143 48.5443 21.5877C48.3343 21.361 48.1726 21.0877 48.0593 20.7677C47.946 20.4477 47.8893 20.0877 47.8893 19.6877C47.8893 19.291 47.946 18.9327 48.0593 18.6127C48.1726 18.2893 48.3343 18.0143 48.5443 17.7877C48.7543 17.561 49.0076 17.386 49.3043 17.2627C49.6043 17.1393 49.9393 17.0777 50.3093 17.0777ZM50.3093 21.5977C50.8093 21.5977 51.1826 21.431 51.4293 21.0977C51.676 20.761 51.7993 20.2927 51.7993 19.6927C51.7993 19.0893 51.676 18.6193 51.4293 18.2827C51.1826 17.946 50.8093 17.7777 50.3093 17.7777C50.056 17.7777 49.836 17.821 49.6493 17.9077C49.4626 17.9943 49.306 18.1193 49.1793 18.2827C49.056 18.446 48.9626 18.6477 48.8993 18.8877C48.8393 19.1243 48.8093 19.3927 48.8093 19.6927C48.8093 19.9927 48.8393 20.261 48.8993 20.4977C48.9626 20.7343 49.056 20.9343 49.1793 21.0977C49.306 21.2577 49.4626 21.381 49.6493 21.4677C49.836 21.5543 50.056 21.5977 50.3093 21.5977ZM53.1559 17.1577H53.8559C53.9293 17.1577 53.9893 17.176 54.0359 17.2127C54.0826 17.2493 54.1143 17.2927 54.1309 17.3427L55.1009 20.6027C55.1276 20.7227 55.1526 20.8393 55.1759 20.9527C55.1993 21.0627 55.2193 21.1743 55.2359 21.2877C55.2626 21.1743 55.2926 21.0627 55.3259 20.9527C55.3593 20.8393 55.3943 20.7227 55.4309 20.6027L56.5009 17.3227C56.5176 17.2727 56.5459 17.231 56.5859 17.1977C56.6293 17.1643 56.6826 17.1477 56.7459 17.1477H57.1309C57.1976 17.1477 57.2526 17.1643 57.2959 17.1977C57.3393 17.231 57.3693 17.2727 57.3859 17.3227L58.4309 20.6027C58.4676 20.7193 58.4993 20.8343 58.5259 20.9477C58.5559 21.061 58.5843 21.1727 58.6109 21.2827C58.6276 21.1727 58.6493 21.0577 58.6759 20.9377C58.7026 20.8177 58.7309 20.706 58.7609 20.6027L59.7509 17.3427C59.7676 17.2893 59.7993 17.246 59.8459 17.2127C59.8926 17.176 59.9476 17.1577 60.0109 17.1577H60.6809L59.0409 22.2227H58.3359C58.2493 22.2227 58.1893 22.166 58.1559 22.0527L57.0359 18.6177C57.0093 18.541 56.9876 18.4643 56.9709 18.3877C56.9543 18.3077 56.9376 18.2293 56.9209 18.1527C56.9043 18.2293 56.8876 18.3077 56.8709 18.3877C56.8543 18.4677 56.8326 18.546 56.8059 18.6227L55.6709 22.0527C55.6343 22.166 55.5659 22.2227 55.4659 22.2227H54.7959L53.1559 17.1577ZM61.4722 22.2227V17.1577H62.0022C62.1289 17.1577 62.2089 17.2193 62.2422 17.3427L62.3122 17.8927C62.5322 17.6493 62.7772 17.4527 63.0472 17.3027C63.3205 17.1527 63.6355 17.0777 63.9922 17.0777C64.2689 17.0777 64.5122 17.1243 64.7222 17.2177C64.9355 17.3077 65.1122 17.4377 65.2522 17.6077C65.3955 17.7743 65.5039 17.976 65.5772 18.2127C65.6505 18.4493 65.6872 18.711 65.6872 18.9977V22.2227H64.7972V18.9977C64.7972 18.6143 64.7089 18.3177 64.5322 18.1077C64.3589 17.8943 64.0922 17.7877 63.7322 17.7877C63.4689 17.7877 63.2222 17.851 62.9922 17.9777C62.7655 18.1043 62.5555 18.276 62.3622 18.4927V22.2227H61.4722ZM68.0188 14.8577V22.2227H67.1288V14.8577H68.0188ZM71.6374 17.0777C72.0074 17.0777 72.3408 17.1393 72.6374 17.2627C72.9374 17.386 73.1908 17.561 73.3974 17.7877C73.6074 18.0143 73.7674 18.2893 73.8774 18.6127C73.9908 18.9327 74.0474 19.291 74.0474 19.6877C74.0474 20.0877 73.9908 20.4477 73.8774 20.7677C73.7674 21.0877 73.6074 21.361 73.3974 21.5877C73.1908 21.8143 72.9374 21.9893 72.6374 22.1127C72.3408 22.2327 72.0074 22.2927 71.6374 22.2927C71.2674 22.2927 70.9324 22.2327 70.6324 22.1127C70.3358 21.9893 70.0824 21.8143 69.8724 21.5877C69.6624 21.361 69.5008 21.0877 69.3874 20.7677C69.2741 20.4477 69.2174 20.0877 69.2174 19.6877C69.2174 19.291 69.2741 18.9327 69.3874 18.6127C69.5008 18.2893 69.6624 18.0143 69.8724 17.7877C70.0824 17.561 70.3358 17.386 70.6324 17.2627C70.9324 17.1393 71.2674 17.0777 71.6374 17.0777ZM71.6374 21.5977C72.1374 21.5977 72.5108 21.431 72.7574 21.0977C73.0041 20.761 73.1274 20.2927 73.1274 19.6927C73.1274 19.0893 73.0041 18.6193 72.7574 18.2827C72.5108 17.946 72.1374 17.7777 71.6374 17.7777C71.3841 17.7777 71.1641 17.821 70.9774 17.9077C70.7908 17.9943 70.6341 18.1193 70.5074 18.2827C70.3841 18.446 70.2908 18.6477 70.2274 18.8877C70.1674 19.1243 70.1374 19.3927 70.1374 19.6927C70.1374 19.9927 70.1674 20.261 70.2274 20.4977C70.2908 20.7343 70.3841 20.9343 70.5074 21.0977C70.6341 21.2577 70.7908 21.381 70.9774 21.4677C71.1641 21.5543 71.3841 21.5977 71.6374 21.5977ZM78.8641 22.2227H78.4691C78.3824 22.2227 78.3124 22.2093 78.2591 22.1827C78.2057 22.156 78.1707 22.0993 78.1541 22.0127L78.0541 21.5427C77.9207 21.6627 77.7907 21.771 77.6641 21.8677C77.5374 21.961 77.4041 22.041 77.2641 22.1077C77.1241 22.171 76.9741 22.2193 76.8141 22.2527C76.6574 22.286 76.4824 22.3027 76.2891 22.3027C76.0924 22.3027 75.9074 22.276 75.7341 22.2227C75.5641 22.166 75.4157 22.0827 75.2891 21.9727C75.1624 21.8627 75.0607 21.7243 74.9841 21.5577C74.9107 21.3877 74.8741 21.1877 74.8741 20.9577C74.8741 20.7577 74.9291 20.566 75.0391 20.3827C75.1491 20.196 75.3257 20.031 75.5691 19.8877C75.8157 19.7443 76.1374 19.6277 76.5341 19.5377C76.9307 19.4443 77.4157 19.391 77.9891 19.3777V18.9827C77.9891 18.5893 77.9041 18.2927 77.7341 18.0927C77.5674 17.8893 77.3191 17.7877 76.9891 17.7877C76.7724 17.7877 76.5891 17.816 76.4391 17.8727C76.2924 17.926 76.1641 17.9877 76.0541 18.0577C75.9474 18.1243 75.8541 18.186 75.7741 18.2427C75.6974 18.296 75.6207 18.3227 75.5441 18.3227C75.4841 18.3227 75.4307 18.3077 75.3841 18.2777C75.3407 18.2443 75.3057 18.2043 75.2791 18.1577L75.1191 17.8727C75.3991 17.6027 75.7007 17.401 76.0241 17.2677C76.3474 17.1343 76.7057 17.0677 77.0991 17.0677C77.3824 17.0677 77.6341 17.1143 77.8541 17.2077C78.0741 17.301 78.2591 17.431 78.4091 17.5977C78.5591 17.7643 78.6724 17.966 78.7491 18.2027C78.8257 18.4393 78.8641 18.6993 78.8641 18.9827V22.2227ZM76.5541 21.6777C76.7107 21.6777 76.8541 21.6627 76.9841 21.6327C77.1141 21.5993 77.2357 21.5543 77.3491 21.4977C77.4657 21.4377 77.5757 21.366 77.6791 21.2827C77.7857 21.1993 77.8891 21.1043 77.9891 20.9977V19.9427C77.5791 19.956 77.2307 19.9893 76.9441 20.0427C76.6574 20.0927 76.4241 20.1593 76.2441 20.2427C76.0641 20.326 75.9324 20.4243 75.8491 20.5377C75.7691 20.651 75.7291 20.7777 75.7291 20.9177C75.7291 21.051 75.7507 21.166 75.7941 21.2627C75.8374 21.3593 75.8957 21.4393 75.9691 21.5027C76.0424 21.5627 76.1291 21.6077 76.2291 21.6377C76.3291 21.6643 76.4374 21.6777 76.5541 21.6777ZM83.7774 22.2227C83.6508 22.2227 83.5708 22.161 83.5374 22.0377L83.4574 21.4227C83.2408 21.686 82.9924 21.8977 82.7124 22.0577C82.4358 22.2143 82.1174 22.2927 81.7574 22.2927C81.4674 22.2927 81.2041 22.2377 80.9674 22.1277C80.7308 22.0143 80.5291 21.8493 80.3624 21.6327C80.1958 21.416 80.0674 21.146 79.9774 20.8227C79.8874 20.4993 79.8424 20.1277 79.8424 19.7077C79.8424 19.3343 79.8924 18.9877 79.9924 18.6677C80.0924 18.3443 80.2358 18.0643 80.4224 17.8277C80.6124 17.591 80.8424 17.406 81.1124 17.2727C81.3824 17.136 81.6891 17.0677 82.0324 17.0677C82.3424 17.0677 82.6074 17.121 82.8274 17.2277C83.0474 17.331 83.2441 17.4777 83.4174 17.6677V14.8577H84.3074V22.2227H83.7774ZM82.0524 21.5727C82.3424 21.5727 82.5958 21.506 82.8124 21.3727C83.0324 21.2393 83.2341 21.051 83.4174 20.8077V18.3577C83.2541 18.1377 83.0741 17.9843 82.8774 17.8977C82.6841 17.8077 82.4691 17.7627 82.2324 17.7627C81.7591 17.7627 81.3958 17.931 81.1424 18.2677C80.8891 18.6043 80.7624 19.0843 80.7624 19.7077C80.7624 20.0377 80.7908 20.321 80.8474 20.5577C80.9041 20.791 80.9874 20.9843 81.0974 21.1377C81.2074 21.2877 81.3424 21.3977 81.5024 21.4677C81.6624 21.5377 81.8458 21.5727 82.0524 21.5727ZM89.782 17.0777C90.152 17.0777 90.4853 17.1393 90.782 17.2627C91.082 17.386 91.3353 17.561 91.542 17.7877C91.752 18.0143 91.912 18.2893 92.022 18.6127C92.1353 18.9327 92.192 19.291 92.192 19.6877C92.192 20.0877 92.1353 20.4477 92.022 20.7677C91.912 21.0877 91.752 21.361 91.542 21.5877C91.3353 21.8143 91.082 21.9893 90.782 22.1127C90.4853 22.2327 90.152 22.2927 89.782 22.2927C89.412 22.2927 89.077 22.2327 88.777 22.1127C88.4803 21.9893 88.227 21.8143 88.017 21.5877C87.807 21.361 87.6453 21.0877 87.532 20.7677C87.4186 20.4477 87.362 20.0877 87.362 19.6877C87.362 19.291 87.4186 18.9327 87.532 18.6127C87.6453 18.2893 87.807 18.0143 88.017 17.7877C88.227 17.561 88.4803 17.386 88.777 17.2627C89.077 17.1393 89.412 17.0777 89.782 17.0777ZM89.782 21.5977C90.282 21.5977 90.6553 21.431 90.902 21.0977C91.1486 20.761 91.272 20.2927 91.272 19.6927C91.272 19.0893 91.1486 18.6193 90.902 18.2827C90.6553 17.946 90.282 17.7777 89.782 17.7777C89.5286 17.7777 89.3086 17.821 89.122 17.9077C88.9353 17.9943 88.7786 18.1193 88.652 18.2827C88.5286 18.446 88.4353 18.6477 88.372 18.8877C88.312 19.1243 88.282 19.3927 88.282 19.6927C88.282 19.9927 88.312 20.261 88.372 20.4977C88.4353 20.7343 88.5286 20.9343 88.652 21.0977C88.7786 21.2577 88.9353 21.381 89.122 21.4677C89.3086 21.5543 89.5286 21.5977 89.782 21.5977ZM93.2886 22.2227V17.1577H93.8186C93.9453 17.1577 94.0253 17.2193 94.0586 17.3427L94.1286 17.8927C94.3486 17.6493 94.5936 17.4527 94.8636 17.3027C95.1369 17.1527 95.4519 17.0777 95.8086 17.0777C96.0853 17.0777 96.3286 17.1243 96.5386 17.2177C96.7519 17.3077 96.9286 17.4377 97.0686 17.6077C97.2119 17.7743 97.3203 17.976 97.3936 18.2127C97.4669 18.4493 97.5036 18.711 97.5036 18.9977V22.2227H96.6136V18.9977C96.6136 18.6143 96.5253 18.3177 96.3486 18.1077C96.1753 17.8943 95.9086 17.7877 95.5486 17.7877C95.2853 17.7877 95.0386 17.851 94.8086 17.9777C94.5819 18.1043 94.3719 18.276 94.1786 18.4927V22.2227H93.2886ZM102.314 22.3027C101.914 22.3027 101.605 22.191 101.389 21.9677C101.175 21.7443 101.069 21.4227 101.069 21.0027V17.9027H100.459C100.405 17.9027 100.36 17.8877 100.324 17.8577C100.287 17.8243 100.269 17.7743 100.269 17.7077V17.3527L101.099 17.2477L101.304 15.6827C101.31 15.6327 101.332 15.5927 101.369 15.5627C101.405 15.5293 101.452 15.5127 101.509 15.5127H101.959V17.2577H103.409V17.9027H101.959V20.9427C101.959 21.156 102.01 21.3143 102.114 21.4177C102.217 21.521 102.35 21.5727 102.514 21.5727C102.607 21.5727 102.687 21.561 102.754 21.5377C102.824 21.511 102.884 21.4827 102.934 21.4527C102.984 21.4227 103.025 21.396 103.059 21.3727C103.095 21.346 103.127 21.3327 103.154 21.3327C103.2 21.3327 103.242 21.361 103.279 21.4177L103.539 21.8427C103.385 21.986 103.2 22.0993 102.984 22.1827C102.767 22.2627 102.544 22.3027 102.314 22.3027ZM104.509 22.2227V14.8577H105.399V17.8377C105.616 17.6077 105.856 17.4243 106.119 17.2877C106.383 17.1477 106.686 17.0777 107.029 17.0777C107.306 17.0777 107.549 17.1243 107.759 17.2177C107.973 17.3077 108.149 17.4377 108.289 17.6077C108.433 17.7743 108.541 17.976 108.614 18.2127C108.688 18.4493 108.724 18.711 108.724 18.9977V22.2227H107.834V18.9977C107.834 18.6143 107.746 18.3177 107.569 18.1077C107.396 17.8943 107.129 17.7877 106.769 17.7877C106.506 17.7877 106.259 17.851 106.029 17.9777C105.803 18.1043 105.593 18.276 105.399 18.4927V22.2227H104.509ZM112.071 17.0777C112.374 17.0777 112.654 17.1293 112.911 17.2327C113.168 17.3327 113.389 17.4793 113.576 17.6727C113.763 17.8627 113.908 18.0993 114.011 18.3827C114.118 18.6627 114.171 18.9827 114.171 19.3427C114.171 19.4827 114.156 19.576 114.126 19.6227C114.096 19.6693 114.039 19.6927 113.956 19.6927H110.586C110.593 20.0127 110.636 20.291 110.716 20.5277C110.796 20.7643 110.906 20.9627 111.046 21.1227C111.186 21.2793 111.353 21.3977 111.546 21.4777C111.739 21.5543 111.956 21.5927 112.196 21.5927C112.419 21.5927 112.611 21.5677 112.771 21.5177C112.934 21.4643 113.074 21.4077 113.191 21.3477C113.308 21.2877 113.404 21.2327 113.481 21.1827C113.561 21.1293 113.629 21.1027 113.686 21.1027C113.759 21.1027 113.816 21.131 113.856 21.1877L114.106 21.5127C113.996 21.646 113.864 21.7627 113.711 21.8627C113.558 21.9593 113.393 22.0393 113.216 22.1027C113.043 22.166 112.863 22.2127 112.676 22.2427C112.489 22.276 112.304 22.2927 112.121 22.2927C111.771 22.2927 111.448 22.2343 111.151 22.1177C110.858 21.9977 110.603 21.8243 110.386 21.5977C110.173 21.3677 110.006 21.0843 109.886 20.7477C109.766 20.411 109.706 20.0243 109.706 19.5877C109.706 19.2343 109.759 18.9043 109.866 18.5977C109.976 18.291 110.133 18.026 110.336 17.8027C110.539 17.576 110.788 17.3993 111.081 17.2727C111.374 17.1427 111.704 17.0777 112.071 17.0777ZM112.091 17.7327C111.661 17.7327 111.323 17.8577 111.076 18.1077C110.829 18.3543 110.676 18.6977 110.616 19.1377H113.371C113.371 18.931 113.343 18.7427 113.286 18.5727C113.229 18.3993 113.146 18.251 113.036 18.1277C112.926 18.001 112.791 17.9043 112.631 17.8377C112.474 17.7677 112.294 17.7327 112.091 17.7327Z" fill="#FEFEFE"/>
<path d="M47.52 33.9427L45.816 29.4867C45.6933 29.1827 45.5707 28.7987 45.448 28.3347C45.3893 28.564 45.328 28.7773 45.264 28.9747C45.2053 29.172 45.1467 29.348 45.088 29.5027L43.392 33.9427H47.52ZM50.888 38.2227H49.576C49.4267 38.2227 49.304 38.1853 49.208 38.1107C49.112 38.036 49.0427 37.94 49 37.8227L47.984 35.1587H42.92L41.904 37.8227C41.8667 37.924 41.7973 38.0173 41.696 38.1027C41.5947 38.1827 41.472 38.2227 41.328 38.2227H40.016L44.592 26.7347H46.312L50.888 38.2227ZM53.531 36.2227C53.787 36.5587 54.0617 36.7933 54.355 36.9267C54.6537 37.06 54.987 37.1267 55.355 37.1267C56.0697 37.1267 56.6217 36.8707 57.011 36.3587C57.4057 35.8413 57.603 35.0893 57.603 34.1027C57.603 33.5853 57.5577 33.1453 57.467 32.7827C57.3817 32.4147 57.2537 32.116 57.083 31.8867C56.9177 31.652 56.7123 31.4813 56.467 31.3747C56.2217 31.2627 55.9443 31.2067 55.635 31.2067C55.1817 31.2067 54.787 31.308 54.451 31.5107C54.1203 31.7133 53.8137 32.0013 53.531 32.3747V36.2227ZM53.451 31.3107C53.6217 31.108 53.803 30.924 53.995 30.7587C54.1923 30.588 54.403 30.444 54.627 30.3267C54.851 30.204 55.0883 30.1107 55.339 30.0467C55.595 29.9773 55.867 29.9427 56.155 29.9427C56.619 29.9427 57.0377 30.0333 57.411 30.2147C57.7897 30.396 58.1123 30.6627 58.379 31.0147C58.6457 31.3667 58.851 31.8013 58.995 32.3187C59.1443 32.836 59.219 33.4307 59.219 34.1027C59.219 34.7053 59.1363 35.2653 58.971 35.7827C58.811 36.2947 58.579 36.74 58.275 37.1187C57.9763 37.4973 57.6083 37.796 57.171 38.0147C56.739 38.228 56.251 38.3347 55.707 38.3347C55.2217 38.3347 54.8057 38.2547 54.459 38.0947C54.1123 37.9347 53.803 37.7107 53.531 37.4227V40.9507H51.971V30.0947H52.907C53.1257 30.0947 53.2617 30.1987 53.315 30.4067L53.451 31.3107ZM62.531 36.2227C62.787 36.5587 63.0617 36.7933 63.355 36.9267C63.6537 37.06 63.987 37.1267 64.355 37.1267C65.0697 37.1267 65.6217 36.8707 66.011 36.3587C66.4057 35.8413 66.603 35.0893 66.603 34.1027C66.603 33.5853 66.5577 33.1453 66.467 32.7827C66.3817 32.4147 66.2537 32.116 66.083 31.8867C65.9177 31.652 65.7123 31.4813 65.467 31.3747C65.2217 31.2627 64.9443 31.2067 64.635 31.2067C64.1817 31.2067 63.787 31.308 63.451 31.5107C63.1203 31.7133 62.8137 32.0013 62.531 32.3747V36.2227ZM62.451 31.3107C62.6217 31.108 62.803 30.924 62.995 30.7587C63.1923 30.588 63.403 30.444 63.627 30.3267C63.851 30.204 64.0883 30.1107 64.339 30.0467C64.595 29.9773 64.867 29.9427 65.155 29.9427C65.619 29.9427 66.0377 30.0333 66.411 30.2147C66.7897 30.396 67.1123 30.6627 67.379 31.0147C67.6457 31.3667 67.851 31.8013 67.995 32.3187C68.1443 32.836 68.219 33.4307 68.219 34.1027C68.219 34.7053 68.1363 35.2653 67.971 35.7827C67.811 36.2947 67.579 36.74 67.275 37.1187C66.9763 37.4973 66.6083 37.796 66.171 38.0147C65.739 38.228 65.251 38.3347 64.707 38.3347C64.2217 38.3347 63.8057 38.2547 63.459 38.0947C63.1123 37.9347 62.803 37.7107 62.531 37.4227V40.9507H60.971V30.0947H61.907C62.1257 30.0947 62.2617 30.1987 62.315 30.4067L62.451 31.3107ZM76.0163 28.6067C75.9629 28.6973 75.9069 28.764 75.8483 28.8067C75.7896 28.8493 75.7149 28.8707 75.6243 28.8707C75.5283 28.8707 75.4189 28.828 75.2963 28.7427C75.1736 28.652 75.0189 28.5533 74.8323 28.4467C74.6509 28.3347 74.4323 28.236 74.1763 28.1507C73.9203 28.06 73.6136 28.0147 73.2563 28.0147C72.9203 28.0147 72.6243 28.06 72.3683 28.1507C72.1176 28.236 71.9069 28.356 71.7363 28.5107C71.5656 28.66 71.4349 28.8387 71.3443 29.0467C71.2589 29.2493 71.2163 29.4707 71.2163 29.7107C71.2163 30.02 71.2936 30.276 71.4483 30.4787C71.6083 30.6813 71.8163 30.8547 72.0723 30.9987C72.3283 31.1427 72.6189 31.268 72.9443 31.3747C73.2696 31.4813 73.6029 31.5933 73.9443 31.7107C74.2856 31.8227 74.6189 31.9533 74.9443 32.1027C75.2696 32.252 75.5603 32.4413 75.8163 32.6707C76.0723 32.8947 76.2776 33.172 76.4323 33.5027C76.5923 33.828 76.6723 34.228 76.6723 34.7027C76.6723 35.2093 76.5843 35.684 76.4083 36.1267C76.2376 36.5693 75.9869 36.956 75.6563 37.2867C75.3256 37.6173 74.9176 37.8787 74.4323 38.0707C73.9523 38.2573 73.4056 38.3507 72.7923 38.3507C72.4243 38.3507 72.0669 38.3133 71.7203 38.2387C71.3736 38.1693 71.0456 38.0707 70.7363 37.9427C70.4269 37.8093 70.1363 37.652 69.8643 37.4707C69.5976 37.284 69.3576 37.076 69.1443 36.8467L69.6323 36.0307C69.6803 35.9667 69.7363 35.9133 69.8003 35.8707C69.8696 35.828 69.9469 35.8067 70.0323 35.8067C70.1443 35.8067 70.2723 35.8653 70.4163 35.9827C70.5656 36.1 70.7469 36.2307 70.9603 36.3747C71.1789 36.5133 71.4376 36.6413 71.7363 36.7587C72.0403 36.876 72.4083 36.9347 72.8403 36.9347C73.1923 36.9347 73.5069 36.8893 73.7843 36.7987C74.0616 36.7027 74.2936 36.5693 74.4803 36.3987C74.6723 36.2227 74.8189 36.012 74.9203 35.7667C75.0216 35.5213 75.0723 35.2493 75.0723 34.9507C75.0723 34.6147 74.9949 34.34 74.8403 34.1267C74.6856 33.9133 74.4803 33.7347 74.2243 33.5907C73.9683 33.4467 73.6776 33.324 73.3523 33.2227C73.0269 33.1213 72.6936 33.0173 72.3523 32.9107C72.0109 32.7987 71.6776 32.6707 71.3523 32.5267C71.0269 32.3827 70.7363 32.196 70.4803 31.9667C70.2243 31.732 70.0189 31.4413 69.8643 31.0947C69.7096 30.7427 69.6323 30.3107 69.6323 29.7987C69.6323 29.388 69.7123 28.9907 69.8723 28.6067C70.0323 28.2227 70.2643 27.884 70.5683 27.5907C70.8776 27.292 71.2563 27.0547 71.7043 26.8787C72.1523 26.6973 72.6643 26.6067 73.2403 26.6067C73.8856 26.6067 74.4776 26.7107 75.0163 26.9187C75.5603 27.1213 76.0323 27.4147 76.4323 27.7987L76.0163 28.6067ZM80.64 38.3507C79.984 38.3507 79.4773 38.1667 79.12 37.7987C78.768 37.4307 78.592 36.9053 78.592 36.2227V31.3587H77.648C77.5573 31.3587 77.48 31.332 77.416 31.2787C77.3573 31.22 77.328 31.1347 77.328 31.0227V30.3907L78.648 30.2067L79 27.7827C79.0213 27.692 79.0613 27.6227 79.12 27.5747C79.184 27.5213 79.264 27.4947 79.36 27.4947H80.152V30.2227H82.456V31.3587H80.152V36.1187C80.152 36.4387 80.2293 36.6787 80.384 36.8387C80.544 36.9933 80.7467 37.0707 80.992 37.0707C81.136 37.0707 81.2587 37.052 81.36 37.0147C81.4667 36.9773 81.5573 36.9373 81.632 36.8947C81.7067 36.8467 81.7707 36.804 81.824 36.7667C81.8773 36.7293 81.9253 36.7107 81.968 36.7107C82.0213 36.7107 82.0613 36.724 82.088 36.7507C82.12 36.772 82.152 36.8093 82.184 36.8627L82.648 37.6147C82.392 37.8493 82.088 38.0307 81.736 38.1587C81.384 38.2867 81.0187 38.3507 80.64 38.3507ZM87.31 29.9667C87.9073 29.9667 88.446 30.0653 88.926 30.2627C89.4113 30.4547 89.822 30.7347 90.158 31.1027C90.4993 31.4653 90.7607 31.9053 90.942 32.4227C91.1233 32.9347 91.214 33.5107 91.214 34.1507C91.214 34.7907 91.1233 35.3693 90.942 35.8867C90.7607 36.404 90.4993 36.844 90.158 37.2067C89.822 37.5693 89.4113 37.8493 88.926 38.0467C88.446 38.2387 87.9073 38.3347 87.31 38.3347C86.7073 38.3347 86.1633 38.2387 85.678 38.0467C85.198 37.8493 84.7873 37.5693 84.446 37.2067C84.1047 36.844 83.8407 36.404 83.654 35.8867C83.4727 35.3693 83.382 34.7907 83.382 34.1507C83.382 33.5107 83.4727 32.9347 83.654 32.4227C83.8407 31.9053 84.1047 31.4653 84.446 31.1027C84.7873 30.7347 85.198 30.4547 85.678 30.2627C86.1633 30.0653 86.7073 29.9667 87.31 29.9667ZM87.31 37.1187C88.078 37.1187 88.6513 36.86 89.03 36.3427C89.4087 35.8253 89.598 35.0973 89.598 34.1587C89.598 33.22 89.4087 32.492 89.03 31.9747C88.6513 31.452 88.078 31.1907 87.31 31.1907C86.5313 31.1907 85.95 31.452 85.566 31.9747C85.1873 32.492 84.998 33.22 84.998 34.1587C84.998 35.0973 85.1873 35.8253 85.566 36.3427C85.95 36.86 86.5313 37.1187 87.31 37.1187ZM94.4274 31.6547C94.6887 31.1213 95.0034 30.7027 95.3714 30.3987C95.7394 30.0947 96.182 29.9427 96.6994 29.9427C96.8754 29.9427 97.0407 29.964 97.1954 30.0067C97.3554 30.044 97.494 30.1027 97.6114 30.1827L97.5074 31.3587C97.47 31.5027 97.382 31.5747 97.2434 31.5747C97.1687 31.5747 97.0567 31.5613 96.9074 31.5347C96.758 31.5027 96.598 31.4867 96.4274 31.4867C96.1767 31.4867 95.9554 31.524 95.7634 31.5987C95.5714 31.668 95.398 31.7747 95.2434 31.9187C95.094 32.0573 94.9607 32.2307 94.8434 32.4387C94.726 32.6413 94.6167 32.8733 94.5154 33.1347V38.2227H92.9554V30.0947H93.8514C94.022 30.0947 94.1367 30.1267 94.1954 30.1907C94.2594 30.2493 94.3047 30.356 94.3314 30.5107L94.4274 31.6547ZM103.902 33.2547C103.902 32.9453 103.857 32.66 103.766 32.3987C103.681 32.1373 103.553 31.9107 103.382 31.7187C103.211 31.5267 103.003 31.3773 102.758 31.2707C102.513 31.164 102.23 31.1107 101.91 31.1107C101.254 31.1107 100.737 31.3 100.358 31.6787C99.9845 32.0573 99.7472 32.5827 99.6459 33.2547H103.902ZM105.19 37.0627C104.998 37.2867 104.777 37.4813 104.526 37.6467C104.275 37.8067 104.009 37.9373 103.726 38.0387C103.443 38.14 103.15 38.2147 102.846 38.2627C102.547 38.3107 102.251 38.3347 101.958 38.3347C101.398 38.3347 100.878 38.2413 100.398 38.0547C99.9232 37.8627 99.5099 37.5853 99.1579 37.2227C98.8112 36.8547 98.5392 36.4013 98.3419 35.8627C98.1499 35.3187 98.0539 34.6947 98.0539 33.9907C98.0539 33.4253 98.1419 32.9 98.3179 32.4147C98.4939 31.924 98.7445 31.4973 99.0699 31.1347C99.4005 30.772 99.8032 30.4867 100.278 30.2787C100.753 30.0707 101.286 29.9667 101.878 29.9667C102.374 29.9667 102.83 30.0493 103.246 30.2147C103.667 30.3747 104.03 30.6093 104.334 30.9187C104.638 31.228 104.875 31.6093 105.046 32.0627C105.222 32.516 105.31 33.0333 105.31 33.6147C105.31 33.8547 105.283 34.0173 105.23 34.1027C105.177 34.1827 105.078 34.2227 104.934 34.2227H99.6059C99.6219 34.708 99.6912 35.132 99.8139 35.4947C99.9365 35.852 100.105 36.1507 100.318 36.3907C100.537 36.6307 100.795 36.8093 101.094 36.9267C101.393 37.044 101.726 37.1027 102.094 37.1027C102.441 37.1027 102.739 37.0627 102.99 36.9827C103.246 36.9027 103.465 36.8173 103.646 36.7267C103.833 36.6307 103.987 36.5427 104.11 36.4627C104.238 36.3827 104.35 36.3427 104.446 36.3427C104.574 36.3427 104.673 36.3907 104.742 36.4867L105.19 37.0627Z" fill="#FEFEFE"/>
</svg>
