<svg width="24" height="34" viewBox="0 0 24 34" fill="none" xmlns="http://www.w3.org/2000/svg">
<mask id="path-1-inside-1_38_154" fill="white">
<path fill-rule="evenodd" clip-rule="evenodd" d="M12.0198 22.5345L12.0198 16.6051C9.45346 16.6051 7.37301 14.7672 7.373 12.5L0.660919 12.5C0.660919 18.0419 5.74648 22.5345 12.0198 22.5345Z"/>
</mask>
<path fill-rule="evenodd" clip-rule="evenodd" d="M12.0198 22.5345L12.0198 16.6051C9.45346 16.6051 7.37301 14.7672 7.373 12.5L0.660919 12.5C0.660919 18.0419 5.74648 22.5345 12.0198 22.5345Z" fill="#3658A4"/>
<path d="M12.0198 22.5345L12.0198 47.5345L37.0198 47.5345L37.0198 22.5345L12.0198 22.5345ZM12.0198 16.6051L37.0198 16.605L37.0198 -8.39495L12.0198 -8.39495L12.0198 16.6051ZM7.373 12.5L32.373 12.5L32.373 -12.5L7.373 -12.5L7.373 12.5ZM0.660919 12.5L0.66091 -12.5L-24.3391 -12.5L-24.3391 12.5L0.660919 12.5ZM37.0198 22.5345L37.0198 16.605L-12.9802 16.6051L-12.9802 22.5346L37.0198 22.5345ZM-17.627 12.5C-17.627 31.3969 -1.35086 41.6051 12.0198 41.6051L12.0198 -8.39495C20.2578 -8.39495 32.373 -1.8626 32.373 12.5L-17.627 12.5ZM0.660927 37.5L7.37301 37.5L7.373 -12.5L0.66091 -12.5L0.660927 37.5ZM12.0198 -2.46545C14.829 -2.46545 17.9146 -1.45953 20.5395 0.859337C23.2117 3.21997 25.6609 7.28647 25.6609 12.5L-24.3391 12.5C-24.3391 34.6717 -5.05784 47.5345 12.0198 47.5345L12.0198 -2.46545Z" fill="#3658A4" mask="url(#path-1-inside-1_38_154)"/>
<path d="M13.0476 11.5V0.50219C13.0476 0.50219 19.41 0.304597 22.1257 3.66322C24.2689 6.31383 23.9879 11.5 23.9879 11.5H13.0476Z" fill="#764B96"/>
<ellipse cx="6.47619" cy="6" rx="5.47619" ry="5.5" fill="#E84E41"/>
<rect x="13.0476" y="12.5" width="10.9524" height="10" fill="#1C9E76"/>
<path d="M24 23.5H1C1 23.5 2.07201 28.3244 4.4717 30.4737C7.00635 32.7438 9.24528 33.5 12.8616 33.5C16.478 33.5 18.3794 32.4213 20.673 30.4737C23.185 28.3404 24 23.5 24 23.5Z" fill="#5EC1D6"/>
</svg>
