<svg width="117" height="24" viewBox="0 0 117 24" fill="none" xmlns="http://www.w3.org/2000/svg">
<path d="M83 4.37241L85.4941 4.54354L83 4.37241ZM44 17.5L42.5942 15.4327V15.4327L44 17.5ZM2.35416 16.3496C20.812 9.63935 40.9798 6.62683 56.5399 5.61626C64.3142 5.11135 70.8851 5.10965 75.4632 5.38371C77.7669 5.52162 79.4915 5.72521 80.5891 5.94787C81.1607 6.0638 81.426 6.15861 81.4907 6.18804C81.5331 6.20734 81.3645 6.14198 81.1518 5.93675C80.9285 5.72117 80.4425 5.12478 80.5059 4.20127L85.4941 4.54354C85.5684 3.46131 85.0067 2.70828 84.6241 2.33903C84.2522 1.98012 83.8408 1.76403 83.5602 1.63642C82.9786 1.37202 82.2761 1.18824 81.5832 1.04767C80.1519 0.757326 78.1611 0.536265 75.762 0.392647C70.9345 0.103656 64.1508 0.111432 56.2158 0.626776C40.3574 1.65672 19.688 4.72783 0.645839 11.6504L2.35416 16.3496ZM80.5059 4.20127C80.5473 3.59726 80.8171 3.21092 80.9226 3.07708C81.037 2.93184 81.1218 2.8758 81.0906 2.89906C81.0284 2.94541 80.8262 3.07278 80.4044 3.27125C79.5841 3.65717 78.3335 4.1284 76.7092 4.66979C73.4827 5.74511 69.1174 6.98818 64.5381 8.27211C59.9892 9.54752 55.2394 10.8604 51.338 12.0551C49.3866 12.6526 47.6124 13.231 46.1597 13.7707C44.7749 14.2851 43.464 14.8412 42.5942 15.4327L45.4058 19.5673C45.7215 19.3526 46.5131 18.9732 47.9008 18.4578C49.2203 17.9676 50.8883 17.4219 52.8019 16.8359C56.6303 15.6637 61.3015 14.3724 65.8879 13.0865C70.444 11.809 74.9287 10.5336 78.2901 9.41327C79.9596 8.85683 81.4374 8.31097 82.533 7.79551C83.0691 7.54329 83.6216 7.2489 84.0802 6.9068C84.3094 6.73584 84.596 6.4939 84.8499 6.17164C85.0949 5.86077 85.4418 5.30629 85.4941 4.54354L80.5059 4.20127ZM42.5942 15.4327C41.7549 16.0034 40.9344 16.6582 40.3978 17.4135C40.1202 17.8042 39.7982 18.3878 39.7245 19.1296C39.6418 19.9615 39.8972 20.7478 40.3941 21.3622C40.8357 21.9082 41.3822 22.2171 41.7917 22.3966C42.2183 22.5836 42.6654 22.7032 43.0803 22.7855C43.9073 22.9497 44.8899 23.02 45.9399 23.0387C50.1011 23.1128 57.039 22.3821 65.0482 21.4198C81.2948 19.4678 102.445 16.5003 117 16.5003V11.5003C102.055 11.5003 80.4552 14.5327 64.4518 16.4555C56.336 17.4306 49.7739 18.1062 46.0289 18.0395C45.1022 18.023 44.4579 17.9615 44.054 17.8813C43.8534 17.8414 43.784 17.8107 43.799 17.8172C43.8106 17.8223 43.8667 17.8476 43.9475 17.9035C44.0285 17.9595 44.1534 18.0593 44.2817 18.2179C44.5823 18.5896 44.752 19.1012 44.7 19.6242C44.657 20.0571 44.4821 20.2977 44.4738 20.3094C44.4561 20.3343 44.4977 20.2715 44.6693 20.1217C44.833 19.9789 45.0719 19.7944 45.4058 19.5673L42.5942 15.4327Z" fill="#E0B036"/>
</svg>
