<svg width="12" height="12" viewBox="0 0 12 12" fill="none" xmlns="http://www.w3.org/2000/svg">
<path d="M8.03025 1.22691C8.17085 1.36756 8.24984 1.55829 8.24984 1.75716C8.24984 1.95604 8.17085 2.14677 8.03025 2.28741L4.31775 5.99991L8.03025 9.71241C8.16687 9.85387 8.24246 10.0433 8.24075 10.24C8.23904 10.4366 8.16017 10.6247 8.02111 10.7638C7.88206 10.9028 7.69395 10.9817 7.4973 10.9834C7.30065 10.9851 7.1112 10.9095 6.96975 10.7729L2.727 6.53016C2.58639 6.38952 2.50741 6.19879 2.50741 5.99991C2.50741 5.80104 2.58639 5.61031 2.727 5.46966L6.96975 1.22691C7.11039 1.08631 7.30112 1.00732 7.5 1.00732C7.69887 1.00732 7.8896 1.08631 8.03025 1.22691V1.22691Z" fill="black"/>
</svg>