<svg width="14" height="9" viewBox="0 0 16 11" fill="none" xmlns="http://www.w3.org/2000/svg">
<path d="M15.1862 2.07991L6.97192 10.672C6.77808 10.8748 6.51039 11 6.21442 11C5.91846 11 5.65077 10.8748 5.45692 10.672L0.813847 5.81561C0.714162 5.71149 0.635132 5.58789 0.581279 5.45188C0.527426 5.31588 0.499807 5.17012 0.500001 5.02297C0.499695 4.72618 0.612378 4.44141 0.813278 4.23126C1.01418 4.02112 1.28685 3.9028 1.57135 3.90232C1.86731 3.90232 2.135 4.02751 2.32885 4.23033L6.21442 8.29464L13.6712 0.494635C13.865 0.291811 14.1327 0.166626 14.4287 0.166626C14.7132 0.167104 14.9858 0.285422 15.1867 0.495567C15.3876 0.705712 15.5003 0.990483 15.5 1.28727C15.5 1.59663 15.38 1.87709 15.1862 2.07991Z" fill="#547D33"/>
</svg>