<svg width="14" height="14" viewBox="0 0 28 28" fill="none" xmlns="http://www.w3.org/2000/svg">
<path d="M25.6584 1.4947L25.728 1.42502C25.7963 1.36598 25.8733 1.31753 25.9564 1.28145C26.0656 1.23407 26.1832 1.20898 26.3022 1.20768C26.4212 1.20637 26.5392 1.22887 26.6494 1.27385C26.7596 1.31883 26.8597 1.38538 26.9438 1.46959C27.0278 1.5538 27.0943 1.65397 27.1391 1.76422C27.1839 1.87447 27.2062 1.99256 27.2048 2.11156C27.2033 2.23056 27.178 2.34807 27.1305 2.45716C27.083 2.56627 27.0141 2.66477 26.9279 2.74687L26.9278 2.74676L26.9191 2.75552L15.8222 13.8552L15.4604 14.2171L15.8223 14.579L26.9102 25.6669C27.0611 25.8356 27.1424 26.0555 27.1374 26.282C27.1323 26.5119 27.0387 26.731 26.8761 26.8936C26.7135 27.0562 26.4944 27.1498 26.2645 27.1549L26.2759 27.6666L26.2645 27.1549C26.038 27.1599 25.8181 27.0786 25.6494 26.9277L14.5615 15.8397L14.1997 15.4779L13.8378 15.8397L2.73808 26.9337L2.73798 26.9336L2.72988 26.9421C2.64766 27.0281 2.54907 27.0968 2.43989 27.1442C2.33072 27.1916 2.21318 27.2167 2.09418 27.218C1.97518 27.2193 1.85711 27.1968 1.74694 27.1518C1.63675 27.1069 1.53667 27.0403 1.45258 26.9561C1.36849 26.8719 1.30208 26.7717 1.25726 26.6615L0.783123 26.8542L1.25726 26.6615C1.21244 26.5512 1.19011 26.4331 1.19158 26.3141C1.19305 26.1951 1.2183 26.0776 1.26584 25.9685C1.31338 25.8594 1.38225 25.7609 1.4684 25.6788L1.4685 25.6789L1.47721 25.6702L12.5713 14.5762L12.9331 14.2143L12.5714 13.8524L1.48899 2.76444C1.33805 2.59573 1.25673 2.37587 1.26175 2.1493C1.26684 1.9194 1.36044 1.70033 1.52305 1.53772C1.68565 1.37511 1.90473 1.28152 2.13463 1.27642C2.36118 1.2714 2.58103 1.3527 2.74972 1.50362L13.8377 12.5916L14.1996 12.9535L14.5615 12.5916L25.6584 1.4947Z" fill="#FEFEFE" stroke="#000" stroke-width="1.02365"/>
</svg>
