<svg width="168" height="168" viewBox="0 0 168 168" fill="none" xmlns="http://www.w3.org/2000/svg">
<mask id="path-1-inside-1_1060_4513" fill="white">
<path fill-rule="evenodd" clip-rule="evenodd" d="M168.998 167.561L168.998 68.5476C131.038 68.5476 100.265 37.8577 100.265 -0.000126398L0.984368 -9.15527e-05C0.984368 92.5414 76.2065 167.561 168.998 167.561Z"/>
</mask>
<path fill-rule="evenodd" clip-rule="evenodd" d="M168.998 167.561L168.998 68.5476C131.038 68.5476 100.265 37.8577 100.265 -0.000126398L0.984368 -9.15527e-05C0.984368 92.5414 76.2065 167.561 168.998 167.561Z" fill="#FFD873"/>
<path d="M168.998 167.561L168.998 192.561L193.998 192.561L193.998 167.561L168.998 167.561ZM168.998 68.5476L193.998 68.5476L193.998 43.5476L168.998 43.5476L168.998 68.5476ZM100.265 -0.000126398L125.265 -0.000127488L125.265 -25.0001L100.265 -25.0001L100.265 -0.000126398ZM0.984368 -9.15527e-05L0.984359 -25.0001L-24.0156 -25.0001L-24.0156 -9.04629e-05L0.984368 -9.15527e-05ZM193.998 167.561L193.998 68.5476L143.998 68.5476L143.998 167.561L193.998 167.561ZM75.2649 -0.000125308C75.2649 51.7283 117.294 93.5476 168.998 93.5476L168.998 43.5476C144.781 43.5476 125.265 23.9872 125.265 -0.000127488L75.2649 -0.000125308ZM0.984376 24.9999L100.265 24.9999L100.265 -25.0001L0.984359 -25.0001L0.984376 24.9999ZM168.998 142.561C89.95 142.561 25.9844 78.6708 25.9844 -9.26426e-05L-24.0156 -9.04629e-05C-24.0156 106.412 62.4629 192.561 168.998 192.561L168.998 142.561Z" fill="#FFD873" mask="url(#path-1-inside-1_1060_4513)"/>
</svg>
