<svg width="150" height="151" viewBox="0 0 150 151" fill="none" xmlns="http://www.w3.org/2000/svg">
<mask id="path-1-inside-1_1066_4343" fill="white">
<path fill-rule="evenodd" clip-rule="evenodd" d="M149.979 0.107071L61.3554 0.107089C61.3554 34.0837 33.8861 61.6271 0.000927972 61.6271L0.000946045 150.489C82.8313 150.489 149.979 83.1609 149.979 0.107071Z"/>
</mask>
<path fill-rule="evenodd" clip-rule="evenodd" d="M149.979 0.107071L61.3554 0.107089C61.3554 34.0837 33.8861 61.6271 0.000927972 61.6271L0.000946045 150.489C82.8313 150.489 149.979 83.1609 149.979 0.107071Z" fill="#FFD873"/>
<path d="M149.979 0.107071L174.979 0.107085L174.979 -24.8929L149.979 -24.8929L149.979 0.107071ZM61.3554 0.107089L61.3554 -24.8929L36.3554 -24.8929L36.3554 0.10709L61.3554 0.107089ZM0.000927972 61.6271L0.00092718 36.6271L-24.9991 36.6271L-24.9991 61.6271L0.000927972 61.6271ZM0.000946045 150.489L-24.9991 150.489L-24.9991 175.489L0.000931578 175.489L0.000946045 150.489ZM149.979 -24.8929L61.3554 -24.8929L61.3554 25.1071L149.979 25.1071L149.979 -24.8929ZM0.000928764 86.6271C47.7566 86.6271 86.3554 47.8272 86.3554 0.107088L36.3554 0.10709C36.3554 20.3401 20.0155 36.6271 0.00092718 36.6271L0.000928764 86.6271ZM25.0009 150.489L25.0009 61.6271L-24.9991 61.6271L-24.9991 150.489L25.0009 150.489ZM124.979 0.107072C124.979 69.4173 68.9607 125.489 0.000945253 125.489L0.000931578 175.489C96.7018 175.489 174.979 96.9044 174.979 0.107085L124.979 0.107072Z" fill="#FFD873" mask="url(#path-1-inside-1_1066_4343)"/>
</svg>
