<svg className="mr-2"width="25" height="24" viewBox="0 0 25 24" fill="none" xmlns="http://www.w3.org/2000/svg">
                    <path d="M24.0125 0.1962C23.8382 0.077414 23.6341 0.00979142 23.4234 0.000985331C23.2126 -0.00782076 23.0036 0.0425413 22.82 0.146371L1.06813 12.5203C0.696132 12.7359 0.476382 13.139 0.502023 13.5656C0.527663 13.9933 0.794242 14.37 1.18921 14.5354L8.37515 17.5533V22.8736C8.37515 23.2852 8.60001 23.663 8.96109 23.8608C9.12969 23.9531 9.31251 24 9.45782 24C9.66951 24 9.88148 23.9399 10.0667 23.8213L15.2792 20.4716L19.8992 22.4122C20.0372 22.4702 20.1854 22.5 20.335 22.5001C20.5262 22.5001 20.7166 22.4518 20.8872 22.3551C21.0366 22.2711 21.1648 22.154 21.2619 22.0128C21.359 21.8715 21.4224 21.71 21.4474 21.5404L24.4474 1.2904C24.5516 0.864356 24.3641 0.43934 24.0125 0.1962ZM17.8109 5.58748L9.04063 15.3797L4.16704 13.3453L17.8109 5.58748ZM10.5828 20.8125V18.4987L12.7602 19.4133L10.5828 20.8125ZM19.475 19.7765L11.1969 16.2989L21.725 4.60357L19.475 19.7765Z" fill="#F0F0F0"/>
                  </svg> 