<svg width="19" height="19" viewBox="0 0 19 19" fill="none" xmlns="http://www.w3.org/2000/svg">
<path d="M8.62109 0.214844C12.9853 0.214844 16.5273 3.75684 16.5273 8.12109C16.5273 12.4853 12.9853 16.0273 8.62109 16.0273C4.25684 16.0273 0.714844 12.4853 0.714844 8.12109C0.714844 3.75684 4.25684 0.214844 8.62109 0.214844ZM8.62109 14.2704C12.0181 14.2704 14.7704 11.5181 14.7704 8.12109C14.7704 4.72316 12.0181 1.97179 8.62109 1.97179C5.22316 1.97179 2.47179 4.72316 2.47179 8.12109C2.47179 11.5181 5.22316 14.2704 8.62109 14.2704ZM15.9082 14.2658C16.0182 14.31 16.1181 14.376 16.202 14.4598L18.3914 16.6484C18.5019 16.7589 18.5809 16.8968 18.6204 17.0479C18.7901 17.6978 18.1978 18.2901 17.5479 18.1204C17.3968 18.0809 17.2589 18.0019 17.1484 17.8914L14.9598 15.702C14.876 15.6181 14.81 15.5182 14.7658 15.4082C14.4777 14.6906 15.1906 13.9777 15.9082 14.2658Z" fill="#181818"/>
</svg>
