<svg width="144" height="142" viewBox="0 0 144 142" fill="none" xmlns="http://www.w3.org/2000/svg">
<g filter="url(#filter0_d_569_17969)">
<rect x="4" y="3" width="132" height="130" rx="20" fill="white" shape-rendering="crispEdges"/>
<rect x="69.1641" y="28.3682" width="24.3409" height="38.9788" transform="rotate(13.4693 69.1641 28.3682)" fill="#181818"/>
<rect x="70.6719" y="31.4824" width="19.9596" height="11.1968" transform="rotate(13.4693 70.6719 31.4824)" fill="#FEFEFE"/>
<rect x="67.5508" y="44.5015" width="19.9596" height="20.6898" transform="rotate(13.4693 67.5508 44.5015)" fill="#686868"/>
<rect x="68.6992" y="47.0288" width="4.86819" height="2.92091" rx="1.46046" transform="rotate(13.4693 68.6992 47.0288)" fill="#CBCBCB"/>
<rect x="74.3789" y="48.3896" width="4.86819" height="2.92091" rx="1.46046" transform="rotate(13.4693 74.3789 48.3896)" fill="#CBCBCB"/>
<rect x="80.0625" y="49.75" width="4.86818" height="2.92091" rx="1.46046" transform="rotate(13.4693 80.0625 49.75)" fill="#CBCBCB"/>
<rect x="67.6797" y="51.2896" width="4.86818" height="2.92091" rx="1.46046" transform="rotate(13.4693 67.6797 51.2896)" fill="#CBCBCB"/>
<rect x="73.3594" y="52.6504" width="4.86819" height="2.92091" rx="1.46046" transform="rotate(13.4693 73.3594 52.6504)" fill="#CBCBCB"/>
<rect x="79.043" y="54.0107" width="4.86818" height="2.92091" rx="1.46046" transform="rotate(13.4693 79.043 54.0107)" fill="#CBCBCB"/>
<rect x="66.6016" y="55.7871" width="4.86819" height="2.92091" rx="1.46046" transform="rotate(13.4693 66.6016 55.7871)" fill="#CBCBCB"/>
<rect x="72.2812" y="57.1479" width="4.86819" height="2.92091" rx="1.46046" transform="rotate(13.4693 72.2812 57.1479)" fill="#CBCBCB"/>
<rect x="77.9648" y="58.5083" width="4.86819" height="2.92091" rx="1.46046" transform="rotate(13.4693 77.9648 58.5083)" fill="#CBCBCB"/>
<rect x="65.5234" y="60.2847" width="4.86819" height="2.92091" rx="1.46046" transform="rotate(13.4693 65.5234 60.2847)" fill="#CBCBCB"/>
<rect x="71.2031" y="61.6455" width="4.86818" height="2.92091" rx="1.46046" transform="rotate(13.4693 71.2031 61.6455)" fill="#CBCBCB"/>
<rect x="76.8867" y="63.0059" width="4.86818" height="2.92091" rx="1.46046" transform="rotate(13.4693 76.8867 63.0059)" fill="#CBCBCB"/>
<rect x="68.5195" y="46.7354" width="4.86819" height="2.92091" rx="1.46046" transform="rotate(13.4693 68.5195 46.7354)" fill="#EBE9E9"/>
<rect x="74.1992" y="48.0962" width="4.86818" height="2.92091" rx="1.46046" transform="rotate(13.4693 74.1992 48.0962)" fill="#EBE9E9"/>
<rect x="79.8828" y="49.4565" width="4.86819" height="2.92091" rx="1.46046" transform="rotate(13.4693 79.8828 49.4565)" fill="#EBE9E9"/>
<rect x="67.5" y="50.9961" width="4.86819" height="2.92091" rx="1.46046" transform="rotate(13.4693 67.5 50.9961)" fill="#EBE9E9"/>
<rect x="73.1797" y="52.3569" width="4.86818" height="2.92091" rx="1.46046" transform="rotate(13.4693 73.1797 52.3569)" fill="#EBE9E9"/>
<rect x="78.8633" y="53.7173" width="4.86818" height="2.92091" rx="1.46046" transform="rotate(13.4693 78.8633 53.7173)" fill="#EBE9E9"/>
<rect x="66.4219" y="55.4937" width="4.86819" height="2.92091" rx="1.46046" transform="rotate(13.4693 66.4219 55.4937)" fill="#EBE9E9"/>
<rect x="72.1016" y="56.8545" width="4.86819" height="2.92091" rx="1.46046" transform="rotate(13.4693 72.1016 56.8545)" fill="#EBE9E9"/>
<rect x="77.7852" y="58.2148" width="4.86819" height="2.92091" rx="1.46046" transform="rotate(13.4693 77.7852 58.2148)" fill="#EBE9E9"/>
<rect x="65.3438" y="59.9912" width="4.86819" height="2.92091" rx="1.46046" transform="rotate(13.4693 65.3438 59.9912)" fill="#EBE9E9"/>
<rect x="71.0234" y="61.3521" width="4.86818" height="2.92091" rx="1.46046" transform="rotate(13.4693 71.0234 61.3521)" fill="#EBE9E9"/>
<rect x="76.707" y="62.7124" width="4.86819" height="2.92091" rx="1.46046" transform="rotate(13.4693 76.707 62.7124)" fill="#EBE9E9"/>
<path d="M76.8869 39.9626C76.7473 39.9116 76.5958 39.9031 76.4514 39.9383C76.307 39.9734 76.1763 40.0505 76.0757 40.16C75.9752 40.2694 75.9093 40.4062 75.8865 40.553C75.8637 40.6999 75.885 40.8502 75.9476 40.9849C76.0102 41.1197 76.1114 41.2329 76.2384 41.3101C76.3653 41.3874 76.5123 41.4253 76.6608 41.419C76.8092 41.4127 76.9525 41.3626 77.0725 41.2749C77.1924 41.1872 77.2837 41.0659 77.3347 40.9263C77.4031 40.7391 77.3943 40.5324 77.3103 40.3517C77.2264 40.171 77.0741 40.031 76.8869 39.9626Z" fill="#EE8787"/>
<path d="M78.7297 39.6915C78.6021 39.415 78.4209 39.1666 78.1967 38.9606C77.9724 38.7546 77.7095 38.5952 77.4232 38.4915C77.3689 38.4714 77.3112 38.4623 77.2534 38.4646C77.1955 38.4669 77.1387 38.4805 77.0862 38.5048C77.0337 38.5291 76.9864 38.5636 76.9472 38.6062C76.908 38.6488 76.8776 38.6987 76.8578 38.753C76.8379 38.8074 76.829 38.8651 76.8315 38.923C76.834 38.9808 76.8479 39.0376 76.8723 39.09C76.8968 39.1425 76.9314 39.1896 76.9742 39.2286C77.0169 39.2676 77.0669 39.2979 77.1214 39.3175C77.2988 39.3823 77.4617 39.4815 77.6008 39.6092C77.7399 39.737 77.8524 39.8909 77.932 40.0622C78.0116 40.2335 78.0567 40.4188 78.0647 40.6075C78.0726 40.7962 78.0434 40.9846 77.9785 41.162C77.9584 41.2163 77.9493 41.274 77.9516 41.3318C77.9539 41.3897 77.9676 41.4465 77.9919 41.499C78.0162 41.5516 78.0506 41.5988 78.0932 41.638C78.1358 41.6772 78.1857 41.7076 78.24 41.7275C78.2944 41.7473 78.3522 41.7563 78.41 41.7538C78.4678 41.7513 78.5246 41.7374 78.577 41.7129C78.6295 41.6884 78.6766 41.6538 78.7156 41.611C78.7547 41.5683 78.7849 41.5183 78.8045 41.4639C78.9099 41.1782 78.9576 40.8744 78.9447 40.5702C78.9318 40.2659 78.8588 39.9673 78.7297 39.6915Z" fill="#EE8787"/>
<path d="M80.0415 39.0814C79.8342 38.6322 79.5399 38.2285 79.1755 37.8937C78.8111 37.559 78.384 37.2999 77.9188 37.1313C77.8093 37.0913 77.6883 37.0964 77.5826 37.1456C77.4768 37.1947 77.3949 37.2839 77.3549 37.3934C77.3148 37.5029 77.3199 37.6239 77.3691 37.7297C77.4182 37.8354 77.5074 37.9173 77.6169 37.9574C77.973 38.0875 78.2999 38.2864 78.579 38.5428C78.8582 38.7993 79.0841 39.1082 79.2438 39.4519C79.4036 39.7957 79.4941 40.1675 79.5101 40.5463C79.5261 40.925 79.4674 41.3031 79.3372 41.6592C79.3172 41.7135 79.308 41.7712 79.3103 41.829C79.3126 41.8868 79.3263 41.9437 79.3506 41.9962C79.3749 42.0487 79.4093 42.096 79.4519 42.1352C79.4945 42.1744 79.5444 42.2048 79.5988 42.2246C79.6531 42.2445 79.7109 42.2534 79.7687 42.2509C79.8265 42.2484 79.8833 42.2345 79.9357 42.21C79.9882 42.1856 80.0353 42.151 80.0743 42.1082C80.1134 42.0655 80.1436 42.0155 80.1633 41.961C80.3344 41.4968 80.4118 41.0033 80.3909 40.509C80.37 40.0147 80.2512 39.5295 80.0415 39.0814Z" fill="#EE8787"/>
<path d="M81.5281 42.4593C81.7633 41.8158 81.8695 41.1323 81.8405 40.4477C81.8115 39.7632 81.648 39.091 81.3592 38.4697C81.0705 37.8483 80.6622 37.29 80.1576 36.8264C79.653 36.3629 79.0621 36.0033 78.4185 35.7682C78.3642 35.7481 78.3065 35.739 78.2487 35.7413C78.1909 35.7436 78.134 35.7572 78.0815 35.7815C78.029 35.8058 77.9817 35.8403 77.9425 35.8829C77.9033 35.9254 77.8729 35.9754 77.8531 36.0297C77.8332 36.0841 77.8243 36.1418 77.8268 36.1997C77.8293 36.2575 77.8432 36.3143 77.8677 36.3667C77.8921 36.4192 77.9267 36.4663 77.9695 36.5053C78.0122 36.5443 78.0622 36.5746 78.1167 36.5942C78.6517 36.7897 79.143 37.0887 79.5625 37.474C79.982 37.8594 80.3215 38.3236 80.5616 38.8402C80.8017 39.3568 80.9376 39.9156 80.9617 40.4848C80.9858 41.0539 80.8975 41.6222 80.7019 42.1572C80.6624 42.2666 80.6679 42.3872 80.7172 42.4926C80.7664 42.5979 80.8554 42.6795 80.9646 42.7195C81.0738 42.7594 81.1944 42.7545 81.3 42.7057C81.4056 42.657 81.4876 42.5684 81.5281 42.4593Z" fill="#EE8787"/>
<path d="M46.1095 38.1145L64.5379 34.3113C64.8546 34.2459 65.1643 34.4496 65.2297 34.7663L67.6033 46.2675C67.6686 46.5842 67.4649 46.8939 67.1482 46.9593L48.7198 50.7625C48.4031 50.8279 48.0934 50.6241 48.028 50.3074L45.6544 38.8063C45.589 38.4896 45.7928 38.1799 46.1095 38.1145Z" fill="#A8E1DB" stroke="#F4F4F4"/>
<path d="M61.9031 36.2629L64.0255 35.8249C64.0288 35.8242 64.0304 35.8244 64.0315 35.8247C64.0329 35.825 64.035 35.8257 64.0372 35.8271C64.0394 35.8286 64.0409 35.8302 64.0418 35.8315C64.0424 35.8323 64.0433 35.8338 64.0439 35.837L64.482 37.9594C64.4826 37.9627 64.4824 37.9643 64.4822 37.9654C64.4819 37.9669 64.4812 37.9689 64.4797 37.9712C64.4783 37.9734 64.4766 37.9749 64.4754 37.9757C64.4745 37.9763 64.4731 37.9772 64.4698 37.9779L62.3474 38.4159C62.3441 38.4166 62.3425 38.4163 62.3415 38.4161C62.34 38.4158 62.3379 38.4151 62.3357 38.4136C62.3335 38.4122 62.332 38.4106 62.3311 38.4093C62.3305 38.4084 62.3297 38.407 62.329 38.4038L61.891 36.2813C61.8903 36.2781 61.8905 36.2764 61.8907 36.2754C61.891 36.2739 61.8917 36.2718 61.8932 36.2696C61.8947 36.2674 61.8963 36.2659 61.8975 36.2651C61.8984 36.2645 61.8998 36.2636 61.9031 36.2629Z" fill="#F4F4F4" stroke="#F4F4F4" stroke-width="1.27143"/>
<mask id="path-36-inside-1_569_17969" fill="white">
<path d="M55.3992 44.1612L48.2378 45.6392C48.2144 45.644 48.1992 45.667 48.2041 45.6905L48.4207 46.7403C48.4256 46.7638 48.4486 46.7789 48.4721 46.774L55.6334 45.2961C55.6569 45.2912 55.672 45.2683 55.6671 45.2448L55.4505 44.195C55.4456 44.1715 55.4226 44.1564 55.3992 44.1612Z"/>
</mask>
<path d="M55.3992 44.1612L48.2378 45.6392C48.2144 45.644 48.1992 45.667 48.2041 45.6905L48.4207 46.7403C48.4256 46.7638 48.4486 46.7789 48.4721 46.774L55.6334 45.2961C55.6569 45.2912 55.672 45.2683 55.6671 45.2448L55.4505 44.195C55.4456 44.1715 55.4226 44.1564 55.3992 44.1612Z" fill="#F4F4F4"/>
<path d="M48.4948 46.8844L55.6561 45.4064L55.1422 42.916L47.9809 44.394L48.4948 46.8844ZM55.6561 45.4064C54.9919 45.5435 54.3424 45.1162 54.2053 44.4519L56.6956 43.938C56.5489 43.2268 55.8534 42.7693 55.1422 42.916L55.6561 45.4064ZM54.2053 44.4519L54.4219 45.5018L56.9123 44.9878L56.6956 43.938L54.2053 44.4519ZM54.4219 45.5018C54.2849 44.8376 54.7122 44.188 55.3764 44.0509L55.8904 46.5413C56.6015 46.3945 57.0591 45.699 56.9123 44.9878L54.4219 45.5018ZM55.3764 44.0509L48.2151 45.5288L48.729 48.0192L55.8904 46.5413L55.3764 44.0509ZM48.2151 45.5288C48.8793 45.3918 49.5289 45.8191 49.6659 46.4833L47.1756 46.9973C47.3223 47.7085 48.0178 48.166 48.729 48.0192L48.2151 45.5288ZM49.6659 46.4833L49.4493 45.4335L46.9589 45.9475L47.1756 46.9973L49.6659 46.4833ZM49.4493 45.4335C49.5864 46.0977 49.159 46.7473 48.4948 46.8844L47.9809 44.394C47.2697 44.5408 46.8121 45.2363 46.9589 45.9475L49.4493 45.4335Z" fill="#F4F4F4" mask="url(#path-36-inside-1_569_17969)"/>
<mask id="path-38-inside-2_569_17969" fill="white">
<path d="M58.9159 45.7204L48.691 47.8306C48.6675 47.8354 48.6524 47.8584 48.6572 47.8819L48.8739 48.9317C48.8787 48.9552 48.9017 48.9703 48.9252 48.9654L59.1501 46.8552C59.1736 46.8504 59.1887 46.8274 59.1839 46.8039L58.9672 45.7541C58.9624 45.7306 58.9394 45.7155 58.9159 45.7204Z"/>
</mask>
<path d="M58.9159 45.7204L48.691 47.8306C48.6675 47.8354 48.6524 47.8584 48.6572 47.8819L48.8739 48.9317C48.8787 48.9552 48.9017 48.9703 48.9252 48.9654L59.1501 46.8552C59.1736 46.8504 59.1887 46.8274 59.1839 46.8039L58.9672 45.7541C58.9624 45.7306 58.9394 45.7155 58.9159 45.7204Z" fill="#F4F4F4"/>
<path d="M48.9479 49.0758L59.1729 46.9655L58.6589 44.4752L48.434 46.5854L48.9479 49.0758ZM59.1729 46.9655C58.5087 47.1026 57.8591 46.6753 57.722 46.0111L60.2124 45.4971C60.0656 44.7859 59.3701 44.3284 58.6589 44.4752L59.1729 46.9655ZM57.722 46.0111L57.9387 47.0609L60.4291 46.5469L60.2124 45.4971L57.722 46.0111ZM57.9387 47.0609C57.8016 46.3967 58.229 45.7471 58.8932 45.61L59.4071 48.1004C60.1183 47.9536 60.5759 47.2581 60.4291 46.5469L57.9387 47.0609ZM58.8932 45.61L48.6682 47.7202L49.1822 50.2106L59.4071 48.1004L58.8932 45.61ZM48.6682 47.7202C49.3324 47.5832 49.982 48.0105 50.1191 48.6747L47.6287 49.1887C47.7755 49.8999 48.471 50.3574 49.1822 50.2106L48.6682 47.7202ZM50.1191 48.6747L49.9024 47.6249L47.412 48.1389L47.6287 49.1887L50.1191 48.6747ZM49.9024 47.6249C50.0395 48.2891 49.6122 48.9387 48.9479 49.0758L48.434 46.5854C47.7228 46.7322 47.2653 47.4277 47.412 48.1389L49.9024 47.6249Z" fill="#F4F4F4" mask="url(#path-38-inside-2_569_17969)"/>
<path d="M39.512 102.632C39.5973 102.632 39.672 102.667 39.736 102.736L40.352 103.4C39.8827 103.944 39.312 104.368 38.64 104.672C37.9733 104.976 37.1653 105.128 36.216 105.128C35.3947 105.128 34.648 104.987 33.976 104.704C33.304 104.416 32.7307 104.016 32.256 103.504C31.7813 102.987 31.4133 102.368 31.152 101.648C30.8907 100.928 30.76 100.136 30.76 99.272C30.76 98.408 30.896 97.616 31.168 96.896C31.44 96.176 31.8213 95.5573 32.312 95.04C32.808 94.5227 33.4 94.1227 34.088 93.84C34.776 93.552 35.536 93.408 36.368 93.408C37.184 93.408 37.904 93.5387 38.528 93.8C39.152 94.0613 39.7013 94.416 40.176 94.864L39.664 95.576C39.632 95.6293 39.5893 95.6747 39.536 95.712C39.488 95.744 39.4213 95.76 39.336 95.76C39.24 95.76 39.1227 95.7093 38.984 95.608C38.8453 95.5013 38.664 95.384 38.44 95.256C38.216 95.128 37.936 95.0133 37.6 94.912C37.264 94.8053 36.8507 94.752 36.36 94.752C35.768 94.752 35.2267 94.856 34.736 95.064C34.2453 95.2667 33.8213 95.5627 33.464 95.952C33.112 96.3413 32.8373 96.816 32.64 97.376C32.4427 97.936 32.344 98.568 32.344 99.272C32.344 99.9867 32.4453 100.624 32.648 101.184C32.856 101.744 33.136 102.219 33.488 102.608C33.8453 102.992 34.264 103.285 34.744 103.488C35.2293 103.691 35.752 103.792 36.312 103.792C36.6533 103.792 36.96 103.773 37.232 103.736C37.5093 103.693 37.7627 103.629 37.992 103.544C38.2267 103.459 38.4427 103.352 38.64 103.224C38.8427 103.091 39.0427 102.933 39.24 102.752C39.3307 102.672 39.4213 102.632 39.512 102.632ZM44.9153 96.768C45.5073 96.768 46.0406 96.8667 46.5153 97.064C46.9899 97.2613 47.3953 97.5413 47.7313 97.904C48.0673 98.2667 48.3233 98.7067 48.4993 99.224C48.6806 99.736 48.7713 100.309 48.7713 100.944C48.7713 101.584 48.6806 102.16 48.4993 102.672C48.3233 103.184 48.0673 103.621 47.7313 103.984C47.3953 104.347 46.9899 104.627 46.5153 104.824C46.0406 105.016 45.5073 105.112 44.9153 105.112C44.3179 105.112 43.7793 105.016 43.2993 104.824C42.8246 104.627 42.4193 104.347 42.0833 103.984C41.7473 103.621 41.4886 103.184 41.3073 102.672C41.1313 102.16 41.0433 101.584 41.0433 100.944C41.0433 100.309 41.1313 99.736 41.3073 99.224C41.4886 98.7067 41.7473 98.2667 42.0833 97.904C42.4193 97.5413 42.8246 97.2613 43.2993 97.064C43.7793 96.8667 44.3179 96.768 44.9153 96.768ZM44.9153 104C45.7153 104 46.3126 103.733 46.7073 103.2C47.1019 102.661 47.2993 101.912 47.2993 100.952C47.2993 99.9867 47.1019 99.2347 46.7073 98.696C46.3126 98.1573 45.7153 97.888 44.9153 97.888C44.5099 97.888 44.1553 97.9573 43.8513 98.096C43.5526 98.2347 43.3019 98.4347 43.0993 98.696C42.9019 98.9573 42.7526 99.28 42.6513 99.664C42.5553 100.043 42.5073 100.472 42.5073 100.952C42.5073 101.912 42.7046 102.661 43.0993 103.2C43.4993 103.733 44.1046 104 44.9153 104ZM51.7614 98.072C51.9374 97.8747 52.124 97.696 52.3214 97.536C52.5187 97.376 52.7267 97.24 52.9454 97.128C53.1694 97.0107 53.404 96.9227 53.6494 96.864C53.9 96.8 54.1694 96.768 54.4574 96.768C54.9 96.768 55.2894 96.8427 55.6254 96.992C55.9667 97.136 56.2494 97.344 56.4734 97.616C56.7027 97.8827 56.876 98.2053 56.9934 98.584C57.1107 98.9627 57.1694 99.3813 57.1694 99.84V105H55.7374V99.84C55.7374 99.2267 55.596 98.752 55.3134 98.416C55.036 98.0747 54.612 97.904 54.0414 97.904C53.62 97.904 53.2254 98.0053 52.8574 98.208C52.4947 98.4107 52.1587 98.6853 51.8494 99.032V105H50.4174V96.896H51.2734C51.476 96.896 51.6014 96.9947 51.6494 97.192L51.7614 98.072ZM61.5579 105.128C60.9179 105.128 60.4245 104.949 60.0779 104.592C59.7365 104.235 59.5659 103.72 59.5659 103.048V98.088H58.5899C58.5045 98.088 58.4325 98.064 58.3739 98.016C58.3152 97.9627 58.2859 97.8827 58.2859 97.776V97.208L59.6139 97.04L59.9419 94.536C59.9579 94.456 59.9925 94.392 60.0459 94.344C60.1045 94.2907 60.1792 94.264 60.2699 94.264H60.9899V97.056H63.3339V98.088H60.9899V102.952C60.9899 103.293 61.0725 103.547 61.2379 103.712C61.4032 103.877 61.6165 103.96 61.8779 103.96C62.0272 103.96 62.1552 103.941 62.2619 103.904C62.3739 103.861 62.4699 103.816 62.5499 103.768C62.6299 103.72 62.6965 103.677 62.7499 103.64C62.8085 103.597 62.8592 103.576 62.9019 103.576C62.9765 103.576 63.0432 103.621 63.1019 103.712L63.5179 104.392C63.2725 104.621 62.9765 104.803 62.6299 104.936C62.2832 105.064 61.9259 105.128 61.5579 105.128ZM69.0363 101.352C68.3803 101.373 67.8203 101.427 67.3563 101.512C66.8976 101.592 66.5216 101.699 66.2283 101.832C65.9403 101.965 65.7296 102.123 65.5963 102.304C65.4683 102.485 65.4043 102.688 65.4043 102.912C65.4043 103.125 65.4389 103.309 65.5083 103.464C65.5776 103.619 65.6709 103.747 65.7883 103.848C65.9109 103.944 66.0523 104.016 66.2123 104.064C66.3776 104.107 66.5536 104.128 66.7403 104.128C66.9909 104.128 67.2203 104.104 67.4283 104.056C67.6363 104.003 67.8309 103.928 68.0123 103.832C68.1989 103.736 68.3749 103.621 68.5403 103.488C68.7109 103.355 68.8763 103.203 69.0363 103.032V101.352ZM64.4363 98.04C64.8843 97.608 65.3669 97.2853 65.8843 97.072C66.4016 96.8587 66.9749 96.752 67.6043 96.752C68.0576 96.752 68.4603 96.8267 68.8123 96.976C69.1643 97.1253 69.4603 97.3333 69.7003 97.6C69.9403 97.8667 70.1216 98.1893 70.2443 98.568C70.3669 98.9467 70.4283 99.3627 70.4283 99.816V105H69.7963C69.6576 105 69.5509 104.979 69.4763 104.936C69.4016 104.888 69.3429 104.797 69.3003 104.664L69.1403 103.896C68.9269 104.093 68.7189 104.269 68.5163 104.424C68.3136 104.573 68.1003 104.701 67.8763 104.808C67.6523 104.909 67.4123 104.987 67.1563 105.04C66.9056 105.099 66.6256 105.128 66.3163 105.128C66.0016 105.128 65.7056 105.085 65.4283 105C65.1509 104.909 64.9083 104.776 64.7003 104.6C64.4976 104.424 64.3349 104.203 64.2123 103.936C64.0949 103.664 64.0363 103.344 64.0363 102.976C64.0363 102.656 64.1243 102.349 64.3003 102.056C64.4763 101.757 64.7616 101.493 65.1563 101.264C65.5509 101.035 66.0656 100.848 66.7003 100.704C67.3349 100.555 68.1136 100.469 69.0363 100.448V99.816C69.0363 99.1867 68.9003 98.712 68.6283 98.392C68.3563 98.0667 67.9589 97.904 67.4363 97.904C67.0843 97.904 66.7883 97.9493 66.5483 98.04C66.3136 98.1253 66.1083 98.224 65.9323 98.336C65.7616 98.4427 65.6123 98.5413 65.4843 98.632C65.3616 98.7173 65.2389 98.76 65.1163 98.76C65.0203 98.76 64.9376 98.736 64.8683 98.688C64.7989 98.6347 64.7403 98.5707 64.6923 98.496L64.4363 98.04ZM78.0774 98.336C78.0347 98.3947 77.992 98.44 77.9494 98.472C77.9067 98.504 77.848 98.52 77.7734 98.52C77.6934 98.52 77.6054 98.488 77.5094 98.424C77.4134 98.3547 77.2934 98.28 77.1494 98.2C77.0107 98.12 76.8374 98.048 76.6294 97.984C76.4267 97.9147 76.176 97.88 75.8774 97.88C75.4774 97.88 75.1254 97.952 74.8214 98.096C74.5174 98.2347 74.2614 98.4373 74.0534 98.704C73.8507 98.9707 73.696 99.2933 73.5894 99.672C73.488 100.051 73.4374 100.475 73.4374 100.944C73.4374 101.435 73.4934 101.872 73.6054 102.256C73.7174 102.635 73.8747 102.955 74.0774 103.216C74.2854 103.472 74.5334 103.669 74.8214 103.808C75.1147 103.941 75.4427 104.008 75.8054 104.008C76.152 104.008 76.4374 103.968 76.6614 103.888C76.8854 103.803 77.0694 103.709 77.2134 103.608C77.3627 103.507 77.4854 103.416 77.5814 103.336C77.6827 103.251 77.7814 103.208 77.8774 103.208C77.9947 103.208 78.0854 103.253 78.1494 103.344L78.5494 103.864C78.3734 104.083 78.1734 104.269 77.9494 104.424C77.7254 104.579 77.4827 104.709 77.2214 104.816C76.9654 104.917 76.696 104.992 76.4134 105.04C76.1307 105.088 75.8427 105.112 75.5494 105.112C75.0427 105.112 74.5707 105.019 74.1334 104.832C73.7014 104.645 73.3254 104.376 73.0054 104.024C72.6854 103.667 72.4347 103.229 72.2534 102.712C72.072 102.195 71.9814 101.605 71.9814 100.944C71.9814 100.341 72.064 99.784 72.2294 99.272C72.4 98.76 72.6454 98.32 72.9654 97.952C73.2907 97.5787 73.688 97.288 74.1574 97.08C74.632 96.872 75.176 96.768 75.7894 96.768C76.36 96.768 76.8614 96.8613 77.2934 97.048C77.7307 97.2293 78.1174 97.488 78.4534 97.824L78.0774 98.336ZM82.406 105.128C81.766 105.128 81.2727 104.949 80.926 104.592C80.5847 104.235 80.414 103.72 80.414 103.048V98.088H79.438C79.3527 98.088 79.2807 98.064 79.222 98.016C79.1633 97.9627 79.134 97.8827 79.134 97.776V97.208L80.462 97.04L80.79 94.536C80.806 94.456 80.8407 94.392 80.894 94.344C80.9527 94.2907 81.0273 94.264 81.118 94.264H81.838V97.056H84.182V98.088H81.838V102.952C81.838 103.293 81.9207 103.547 82.086 103.712C82.2513 103.877 82.4647 103.96 82.726 103.96C82.8753 103.96 83.0033 103.941 83.11 103.904C83.222 103.861 83.318 103.816 83.398 103.768C83.478 103.72 83.5447 103.677 83.598 103.64C83.6567 103.597 83.7073 103.576 83.75 103.576C83.8247 103.576 83.8913 103.621 83.95 103.712L84.366 104.392C84.1207 104.621 83.8247 104.803 83.478 104.936C83.1313 105.064 82.774 105.128 82.406 105.128ZM86.9644 93.216V105H85.5404V93.216H86.9644ZM94.5376 100.064C94.5376 99.7333 94.4896 99.432 94.3936 99.16C94.303 98.8827 94.167 98.6453 93.9856 98.448C93.8096 98.2453 93.5936 98.0907 93.3376 97.984C93.0816 97.872 92.791 97.816 92.4656 97.816C91.783 97.816 91.2416 98.016 90.8416 98.416C90.447 98.8107 90.2016 99.36 90.1056 100.064H94.5376ZM95.6896 103.864C95.5136 104.077 95.303 104.264 95.0576 104.424C94.8123 104.579 94.5483 104.707 94.2656 104.808C93.9883 104.909 93.7003 104.984 93.4016 105.032C93.103 105.085 92.807 105.112 92.5136 105.112C91.9536 105.112 91.4363 105.019 90.9616 104.832C90.4923 104.64 90.0843 104.363 89.7376 104C89.3963 103.632 89.1296 103.179 88.9376 102.64C88.7456 102.101 88.6496 101.483 88.6496 100.784C88.6496 100.219 88.735 99.6907 88.9056 99.2C89.0816 98.7093 89.3323 98.2853 89.6576 97.928C89.983 97.5653 90.3803 97.2827 90.8496 97.08C91.319 96.872 91.847 96.768 92.4336 96.768C92.919 96.768 93.367 96.8507 93.7776 97.016C94.1936 97.176 94.551 97.4107 94.8496 97.72C95.1536 98.024 95.391 98.4027 95.5616 98.856C95.7323 99.304 95.8176 99.816 95.8176 100.392C95.8176 100.616 95.7936 100.765 95.7456 100.84C95.6976 100.915 95.607 100.952 95.4736 100.952H90.0576C90.0736 101.464 90.143 101.909 90.2656 102.288C90.3936 102.667 90.5696 102.984 90.7936 103.24C91.0176 103.491 91.2843 103.68 91.5936 103.808C91.903 103.931 92.2496 103.992 92.6336 103.992C92.991 103.992 93.2976 103.952 93.5536 103.872C93.815 103.787 94.039 103.696 94.2256 103.6C94.4123 103.504 94.567 103.416 94.6896 103.336C94.8176 103.251 94.927 103.208 95.0176 103.208C95.135 103.208 95.2256 103.253 95.2896 103.344L95.6896 103.864ZM102.127 98.232C102.063 98.3493 101.964 98.408 101.831 98.408C101.751 98.408 101.66 98.3787 101.559 98.32C101.457 98.2613 101.332 98.1973 101.183 98.128C101.039 98.0533 100.865 97.9867 100.663 97.928C100.46 97.864 100.22 97.832 99.9427 97.832C99.7027 97.832 99.4867 97.864 99.2947 97.928C99.1027 97.9867 98.9374 98.0693 98.7987 98.176C98.6654 98.2827 98.5614 98.408 98.4867 98.552C98.4174 98.6907 98.3827 98.8427 98.3827 99.008C98.3827 99.216 98.4414 99.3893 98.5587 99.528C98.6814 99.6667 98.8414 99.7867 99.0387 99.888C99.2361 99.9893 99.4601 100.08 99.7107 100.16C99.9614 100.235 100.217 100.317 100.479 100.408C100.745 100.493 101.004 100.589 101.255 100.696C101.505 100.803 101.729 100.936 101.927 101.096C102.124 101.256 102.281 101.453 102.399 101.688C102.521 101.917 102.583 102.195 102.583 102.52C102.583 102.893 102.516 103.24 102.383 103.56C102.249 103.875 102.052 104.149 101.791 104.384C101.529 104.613 101.209 104.795 100.831 104.928C100.452 105.061 100.015 105.128 99.5187 105.128C98.9534 105.128 98.4414 105.037 97.9827 104.856C97.5241 104.669 97.1347 104.432 96.8147 104.144L97.1507 103.6C97.1934 103.531 97.2441 103.477 97.3027 103.44C97.3614 103.403 97.4361 103.384 97.5267 103.384C97.6227 103.384 97.7241 103.421 97.8307 103.496C97.9374 103.571 98.0654 103.653 98.2147 103.744C98.3694 103.835 98.5561 103.917 98.7747 103.992C98.9934 104.067 99.2654 104.104 99.5907 104.104C99.8681 104.104 100.111 104.069 100.319 104C100.527 103.925 100.7 103.827 100.839 103.704C100.977 103.581 101.079 103.44 101.143 103.28C101.212 103.12 101.247 102.949 101.247 102.768C101.247 102.544 101.185 102.36 101.063 102.216C100.945 102.067 100.788 101.941 100.591 101.84C100.393 101.733 100.167 101.643 99.9107 101.568C99.6601 101.488 99.4014 101.405 99.1347 101.32C98.8734 101.235 98.6147 101.139 98.3587 101.032C98.1081 100.92 97.8841 100.781 97.6867 100.616C97.4894 100.451 97.3294 100.248 97.2067 100.008C97.0894 99.7627 97.0307 99.4667 97.0307 99.12C97.0307 98.8107 97.0947 98.5147 97.2227 98.232C97.3507 97.944 97.5374 97.6933 97.7827 97.48C98.0281 97.2613 98.3294 97.088 98.6867 96.96C99.0441 96.832 99.4521 96.768 99.9107 96.768C100.444 96.768 100.921 96.8533 101.343 97.024C101.769 97.1893 102.137 97.4187 102.447 97.712L102.127 98.232ZM108.889 98.232C108.825 98.3493 108.726 98.408 108.593 98.408C108.513 98.408 108.422 98.3787 108.321 98.32C108.219 98.2613 108.094 98.1973 107.945 98.128C107.801 98.0533 107.627 97.9867 107.425 97.928C107.222 97.864 106.982 97.832 106.705 97.832C106.465 97.832 106.249 97.864 106.057 97.928C105.865 97.9867 105.699 98.0693 105.561 98.176C105.427 98.2827 105.323 98.408 105.249 98.552C105.179 98.6907 105.145 98.8427 105.145 99.008C105.145 99.216 105.203 99.3893 105.321 99.528C105.443 99.6667 105.603 99.7867 105.801 99.888C105.998 99.9893 106.222 100.08 106.473 100.16C106.723 100.235 106.979 100.317 107.241 100.408C107.507 100.493 107.766 100.589 108.017 100.696C108.267 100.803 108.491 100.936 108.689 101.096C108.886 101.256 109.043 101.453 109.161 101.688C109.283 101.917 109.345 102.195 109.345 102.52C109.345 102.893 109.278 103.24 109.145 103.56C109.011 103.875 108.814 104.149 108.553 104.384C108.291 104.613 107.971 104.795 107.593 104.928C107.214 105.061 106.777 105.128 106.281 105.128C105.715 105.128 105.203 105.037 104.745 104.856C104.286 104.669 103.897 104.432 103.577 104.144L103.913 103.6C103.955 103.531 104.006 103.477 104.065 103.44C104.123 103.403 104.198 103.384 104.289 103.384C104.385 103.384 104.486 103.421 104.593 103.496C104.699 103.571 104.827 103.653 104.977 103.744C105.131 103.835 105.318 103.917 105.537 103.992C105.755 104.067 106.027 104.104 106.353 104.104C106.63 104.104 106.873 104.069 107.081 104C107.289 103.925 107.462 103.827 107.601 103.704C107.739 103.581 107.841 103.44 107.905 103.28C107.974 103.12 108.009 102.949 108.009 102.768C108.009 102.544 107.947 102.36 107.825 102.216C107.707 102.067 107.55 101.941 107.353 101.84C107.155 101.733 106.929 101.643 106.673 101.568C106.422 101.488 106.163 101.405 105.897 101.32C105.635 101.235 105.377 101.139 105.121 101.032C104.87 100.92 104.646 100.781 104.449 100.616C104.251 100.451 104.091 100.248 103.969 100.008C103.851 99.7627 103.793 99.4667 103.793 99.12C103.793 98.8107 103.857 98.5147 103.985 98.232C104.113 97.944 104.299 97.6933 104.545 97.48C104.79 97.2613 105.091 97.088 105.449 96.96C105.806 96.832 106.214 96.768 106.673 96.768C107.206 96.768 107.683 96.8533 108.105 97.024C108.531 97.1893 108.899 97.4187 109.209 97.712L108.889 98.232Z" fill="#181818"/>
<rect x="4.5" y="3.5" width="131" height="129" rx="19.5" stroke="#DDDDDD" shape-rendering="crispEdges"/>
</g>
<defs>
<filter id="filter0_d_569_17969" x="0" y="0" width="144" height="142" filterUnits="userSpaceOnUse" color-interpolation-filters="sRGB">
<feFlood flood-opacity="0" result="BackgroundImageFix"/>
<feColorMatrix in="SourceAlpha" type="matrix" values="0 0 0 0 0 0 0 0 0 0 0 0 0 0 0 0 0 0 127 0" result="hardAlpha"/>
<feOffset dx="2" dy="3"/>
<feGaussianBlur stdDeviation="3"/>
<feComposite in2="hardAlpha" operator="out"/>
<feColorMatrix type="matrix" values="0 0 0 0 0 0 0 0 0 0 0 0 0 0 0 0 0 0 0.06 0"/>
<feBlend mode="normal" in2="BackgroundImageFix" result="effect1_dropShadow_569_17969"/>
<feBlend mode="normal" in="SourceGraphic" in2="effect1_dropShadow_569_17969" result="shape"/>
</filter>
</defs>
</svg>
