<svg width="177" height="183" viewBox="0 0 177 183" fill="none" xmlns="http://www.w3.org/2000/svg">
<g filter="url(#filter0_d_482_13557)">
<rect x="4" y="11" width="165" height="163" rx="20" fill="white" shape-rendering="crispEdges"/>
<rect x="85.1484" y="35.9971" width="39.2596" height="62.8691" transform="rotate(13.4693 85.1484 35.9971)" fill="#181818"/>
<rect x="87.5781" y="41.02" width="32.1928" height="18.0594" transform="rotate(13.4693 87.5781 41.02)" fill="#FEFEFE"/>
<rect x="82.5508" y="62.0186" width="32.1928" height="33.3706" transform="rotate(13.4693 82.5508 62.0186)" fill="#686868"/>
<rect x="84.3984" y="66.0952" width="7.85191" height="4.71114" rx="2.35557" transform="rotate(13.4693 84.3984 66.0952)" fill="#CBCBCB"/>
<rect x="93.5625" y="68.29" width="7.85191" height="4.71115" rx="2.35558" transform="rotate(13.4693 93.5625 68.29)" fill="#CBCBCB"/>
<rect x="102.727" y="70.4844" width="7.85192" height="4.71115" rx="2.35557" transform="rotate(13.4693 102.727 70.4844)" fill="#CBCBCB"/>
<rect x="82.7539" y="72.9673" width="7.85191" height="4.71115" rx="2.35557" transform="rotate(13.4693 82.7539 72.9673)" fill="#CBCBCB"/>
<rect x="91.918" y="75.1621" width="7.85191" height="4.71115" rx="2.35558" transform="rotate(13.4693 91.918 75.1621)" fill="#CBCBCB"/>
<rect x="101.082" y="77.3564" width="7.85191" height="4.71115" rx="2.35557" transform="rotate(13.4693 101.082 77.3564)" fill="#CBCBCB"/>
<rect x="81.0156" y="80.2217" width="7.85191" height="4.71115" rx="2.35557" transform="rotate(13.4693 81.0156 80.2217)" fill="#CBCBCB"/>
<rect x="90.1797" y="82.4165" width="7.85192" height="4.71115" rx="2.35558" transform="rotate(13.4693 90.1797 82.4165)" fill="#CBCBCB"/>
<rect x="99.3438" y="84.6108" width="7.85191" height="4.71115" rx="2.35557" transform="rotate(13.4693 99.3438 84.6108)" fill="#CBCBCB"/>
<rect x="79.2773" y="87.4756" width="7.85191" height="4.71115" rx="2.35557" transform="rotate(13.4693 79.2773 87.4756)" fill="#CBCBCB"/>
<rect x="88.4414" y="89.6704" width="7.85191" height="4.71115" rx="2.35557" transform="rotate(13.4693 88.4414 89.6704)" fill="#CBCBCB"/>
<rect x="97.6055" y="91.8647" width="7.85192" height="4.71115" rx="2.35557" transform="rotate(13.4693 97.6055 91.8647)" fill="#CBCBCB"/>
<rect x="84.1094" y="65.6216" width="7.85191" height="4.71115" rx="2.35557" transform="rotate(13.4693 84.1094 65.6216)" fill="#EBE9E9"/>
<rect x="93.2734" y="67.8164" width="7.85191" height="4.71115" rx="2.35557" transform="rotate(13.4693 93.2734 67.8164)" fill="#EBE9E9"/>
<rect x="102.438" y="70.0107" width="7.85191" height="4.71115" rx="2.35557" transform="rotate(13.4693 102.438 70.0107)" fill="#EBE9E9"/>
<rect x="82.4609" y="72.4941" width="7.85191" height="4.71115" rx="2.35557" transform="rotate(13.4693 82.4609 72.4941)" fill="#EBE9E9"/>
<rect x="91.625" y="74.689" width="7.85191" height="4.71115" rx="2.35557" transform="rotate(13.4693 91.625 74.689)" fill="#EBE9E9"/>
<rect x="100.789" y="76.8833" width="7.85191" height="4.71115" rx="2.35557" transform="rotate(13.4693 100.789 76.8833)" fill="#EBE9E9"/>
<rect x="80.7266" y="79.748" width="7.85191" height="4.71115" rx="2.35557" transform="rotate(13.4693 80.7266 79.748)" fill="#EBE9E9"/>
<rect x="89.8906" y="81.9429" width="7.85191" height="4.71115" rx="2.35557" transform="rotate(13.4693 89.8906 81.9429)" fill="#EBE9E9"/>
<rect x="99.0547" y="84.1372" width="7.85191" height="4.71115" rx="2.35557" transform="rotate(13.4693 99.0547 84.1372)" fill="#EBE9E9"/>
<rect x="78.9883" y="87.0024" width="7.85191" height="4.71115" rx="2.35557" transform="rotate(13.4693 78.9883 87.0024)" fill="#EBE9E9"/>
<rect x="88.1523" y="89.1973" width="7.85191" height="4.71115" rx="2.35557" transform="rotate(13.4693 88.1523 89.1973)" fill="#EBE9E9"/>
<rect x="97.3164" y="91.3916" width="7.85191" height="4.71115" rx="2.35557" transform="rotate(13.4693 97.3164 91.3916)" fill="#EBE9E9"/>
<path d="M97.5996 54.6982C97.3745 54.616 97.13 54.6023 96.8971 54.659C96.6643 54.7156 96.4534 54.8401 96.2912 55.0166C96.1291 55.1931 96.0229 55.4137 95.9861 55.6505C95.9493 55.8874 95.9836 56.1298 96.0846 56.3472C96.1856 56.5645 96.3488 56.7471 96.5535 56.8717C96.7583 56.9963 96.9954 57.0574 97.2348 57.0473C97.4743 57.0372 97.7054 56.9562 97.8989 56.8148C98.0924 56.6733 98.2396 56.4777 98.3218 56.2526C98.4321 55.9507 98.418 55.6173 98.2826 55.3258C98.1471 55.0344 97.9015 54.8086 97.5996 54.6982Z" fill="#EE8787"/>
<path d="M100.576 54.261C100.37 53.8151 100.078 53.4144 99.7166 53.0821C99.3549 52.7499 98.9308 52.4927 98.4691 52.3255C98.3815 52.2932 98.2884 52.2784 98.1951 52.2821C98.1018 52.2858 98.0102 52.3079 97.9254 52.3471C97.8407 52.3862 97.7645 52.4418 97.7013 52.5105C97.6381 52.5792 97.589 52.6597 97.557 52.7473C97.525 52.835 97.5105 52.9282 97.5146 53.0215C97.5186 53.1147 97.541 53.2063 97.5805 53.2909C97.62 53.3755 97.6758 53.4514 97.7448 53.5144C97.8137 53.5774 97.8943 53.6261 97.9822 53.6579C98.2683 53.7624 98.531 53.9222 98.7554 54.1283C98.9797 54.3344 99.1613 54.5827 99.2897 54.8589C99.418 55.1352 99.4907 55.434 99.5036 55.7384C99.5165 56.0427 99.4693 56.3467 99.3646 56.6328C99.3323 56.7203 99.3175 56.8134 99.3212 56.9067C99.3249 57 99.347 57.0916 99.3862 57.1764C99.4254 57.2611 99.4809 57.3373 99.5496 57.4005C99.6183 57.4637 99.6988 57.5128 99.7865 57.5448C99.8742 57.5769 99.9673 57.5913 100.061 57.5872C100.154 57.5832 100.245 57.5608 100.33 57.5213C100.415 57.4818 100.491 57.426 100.554 57.3571C100.617 57.2881 100.665 57.2075 100.697 57.1197C100.867 56.6589 100.944 56.1689 100.923 55.6782C100.902 55.1875 100.784 54.7058 100.576 54.261Z" fill="#EE8787"/>
<path d="M102.695 53.2768C102.361 52.5521 101.886 51.901 101.298 51.3611C100.711 50.8212 100.022 50.4033 99.2713 50.1314C99.0946 50.0669 98.8995 50.0751 98.7289 50.1544C98.5583 50.2337 98.4262 50.3774 98.3617 50.5541C98.2971 50.7308 98.3053 50.9259 98.3846 51.0965C98.4639 51.2671 98.6077 51.3992 98.7844 51.4638C99.3586 51.6736 99.8859 51.9944 100.336 52.408C100.786 52.8217 101.151 53.3199 101.408 53.8743C101.666 54.4288 101.812 55.0285 101.838 55.6394C101.864 56.2502 101.769 56.8602 101.559 57.4344C101.527 57.5219 101.512 57.615 101.516 57.7083C101.519 57.8016 101.541 57.8933 101.581 57.978C101.62 58.0627 101.675 58.1389 101.744 58.2021C101.813 58.2653 101.893 58.3144 101.981 58.3464C102.069 58.3785 102.162 58.3929 102.255 58.3889C102.348 58.3848 102.44 58.3624 102.524 58.3229C102.609 58.2834 102.685 58.2276 102.748 58.1587C102.811 58.0898 102.86 58.0091 102.891 57.9213C103.167 57.1726 103.292 56.3766 103.258 55.5793C103.225 54.7821 103.033 53.9995 102.695 53.2768Z" fill="#EE8787"/>
<path d="M105.089 58.7251C105.469 57.6872 105.64 56.5847 105.593 55.4806C105.546 54.3765 105.283 53.2924 104.817 52.2902C104.351 51.288 103.693 50.3874 102.879 49.6398C102.065 48.8922 101.112 48.3122 100.074 47.933C99.9863 47.9006 99.8932 47.8858 99.7999 47.8895C99.7066 47.8932 99.615 47.9153 99.5303 47.9545C99.4455 47.9937 99.3694 48.0492 99.3061 48.1179C99.2429 48.1866 99.1939 48.2671 99.1618 48.3548C99.1298 48.4425 99.1154 48.5356 99.1194 48.6289C99.1234 48.7222 99.1458 48.8137 99.1853 48.8983C99.2248 48.9829 99.2807 49.0589 99.3496 49.1219C99.4185 49.1848 99.4992 49.2336 99.587 49.2653C100.45 49.5806 101.242 50.0628 101.919 50.6843C102.596 51.3059 103.143 52.0547 103.53 52.8879C103.918 53.7211 104.137 54.6224 104.176 55.5403C104.215 56.4583 104.072 57.3749 103.757 58.2379C103.693 58.4143 103.702 58.6088 103.781 58.7788C103.861 58.9487 104.004 59.0803 104.18 59.1447C104.357 59.2091 104.551 59.2012 104.721 59.1225C104.892 59.0439 105.024 58.901 105.089 58.7251Z" fill="#EE8787"/>
<path d="M47.9017 51.4166L77.6249 45.2823C78.3015 45.1426 78.9631 45.5779 79.1027 46.2545L82.9312 64.8047C83.0708 65.4813 82.6355 66.1429 81.959 66.2825L52.2357 72.4168C51.5592 72.5565 50.8975 72.1212 50.7579 71.4447L46.9295 52.8944C46.7899 52.2178 47.2251 51.5562 47.9017 51.4166Z" fill="#A8E1DB" stroke="#F4F4F4"/>
<path d="M73.3565 48.3487L76.7798 47.6422C77.0041 47.5959 77.2236 47.7403 77.2699 47.9646L77.9763 51.3879C78.0226 51.6122 77.8783 51.8316 77.654 51.8779L74.2307 52.5844C74.0063 52.6307 73.7869 52.4864 73.7406 52.2621L73.0341 48.8388C72.9878 48.6145 73.1322 48.395 73.3565 48.3487Z" fill="#F4F4F4" stroke="#F4F4F4" stroke-width="1.27143"/>
<path d="M52.2039 64.947L52.0831 64.3618L62.5256 62.2067L62.6464 62.7919L52.2039 64.947Z" fill="#F4F4F4" stroke="#F4F4F4" stroke-width="1.27143"/>
<path d="M52.9305 68.4812L52.8097 67.896L68.1936 64.721L68.3143 65.3063L52.9305 68.4812Z" fill="#F4F4F4" stroke="#F4F4F4" stroke-width="1.27143"/>
<path d="M40.052 147.648C40.204 147.648 40.336 147.708 40.448 147.828L41.564 149.04C40.86 149.888 39.996 150.544 38.972 151.008C37.948 151.464 36.724 151.692 35.3 151.692C34.036 151.692 32.892 151.476 31.868 151.044C30.852 150.604 29.984 149.996 29.264 149.22C28.544 148.436 27.988 147.504 27.596 146.424C27.212 145.344 27.02 144.156 27.02 142.86C27.02 141.564 27.224 140.376 27.632 139.296C28.048 138.208 28.628 137.276 29.372 136.5C30.124 135.716 31.02 135.108 32.06 134.676C33.108 134.244 34.26 134.028 35.516 134.028C36.764 134.028 37.864 134.232 38.816 134.64C39.776 135.04 40.608 135.576 41.312 136.248L40.388 137.556C40.324 137.644 40.248 137.72 40.16 137.784C40.072 137.848 39.952 137.88 39.8 137.88C39.64 137.88 39.456 137.808 39.248 137.664C39.048 137.512 38.788 137.348 38.468 137.172C38.156 136.988 37.76 136.824 37.28 136.68C36.808 136.528 36.216 136.452 35.504 136.452C34.68 136.452 33.924 136.596 33.236 136.884C32.548 137.172 31.956 137.592 31.46 138.144C30.964 138.696 30.576 139.368 30.296 140.16C30.024 140.952 29.888 141.852 29.888 142.86C29.888 143.876 30.032 144.784 30.32 145.584C30.608 146.376 31.004 147.048 31.508 147.6C32.012 148.144 32.604 148.56 33.284 148.848C33.964 149.136 34.696 149.28 35.48 149.28C35.96 149.28 36.388 149.256 36.764 149.208C37.148 149.152 37.5 149.068 37.82 148.956C38.14 148.836 38.44 148.688 38.72 148.512C39.008 148.336 39.292 148.12 39.572 147.864C39.732 147.72 39.892 147.648 40.052 147.648ZM48.3037 139.068C49.2077 139.068 50.0237 139.216 50.7517 139.512C51.4877 139.808 52.1117 140.228 52.6237 140.772C53.1437 141.316 53.5437 141.976 53.8237 142.752C54.1037 143.528 54.2437 144.4 54.2437 145.368C54.2437 146.336 54.1037 147.208 53.8237 147.984C53.5437 148.76 53.1437 149.424 52.6237 149.976C52.1117 150.52 51.4877 150.94 50.7517 151.236C50.0237 151.532 49.2077 151.68 48.3037 151.68C47.3917 151.68 46.5677 151.532 45.8317 151.236C45.1037 150.94 44.4797 150.52 43.9597 149.976C43.4397 149.424 43.0397 148.76 42.7597 147.984C42.4797 147.208 42.3397 146.336 42.3397 145.368C42.3397 144.4 42.4797 143.528 42.7597 142.752C43.0397 141.976 43.4397 141.316 43.9597 140.772C44.4797 140.228 45.1037 139.808 45.8317 139.512C46.5677 139.216 47.3917 139.068 48.3037 139.068ZM48.3037 149.664C49.4077 149.664 50.2277 149.296 50.7637 148.56C51.3077 147.816 51.5797 146.756 51.5797 145.38C51.5797 144.004 51.3077 142.944 50.7637 142.2C50.2277 141.448 49.4077 141.072 48.3037 141.072C47.1837 141.072 46.3517 141.448 45.8077 142.2C45.2637 142.944 44.9917 144.004 44.9917 145.38C44.9917 146.756 45.2637 147.816 45.8077 148.56C46.3517 149.296 47.1837 149.664 48.3037 149.664ZM58.8946 140.88C59.1586 140.608 59.4306 140.364 59.7106 140.148C59.9986 139.924 60.3026 139.732 60.6226 139.572C60.9426 139.412 61.2826 139.288 61.6426 139.2C62.0026 139.112 62.3946 139.068 62.8186 139.068C63.4906 139.068 64.0786 139.18 64.5826 139.404C65.0946 139.628 65.5226 139.944 65.8666 140.352C66.2186 140.76 66.4826 141.252 66.6586 141.828C66.8346 142.396 66.9226 143.024 66.9226 143.712V151.5H64.3546V143.712C64.3546 142.888 64.1626 142.248 63.7786 141.792C63.4026 141.336 62.8266 141.108 62.0506 141.108C61.4746 141.108 60.9386 141.24 60.4426 141.504C59.9546 141.768 59.4946 142.128 59.0626 142.584V151.5H56.4826V139.26H58.0426C58.3946 139.26 58.6186 139.424 58.7146 139.752L58.8946 140.88ZM73.4557 151.692C72.4397 151.692 71.6557 151.408 71.1037 150.84C70.5597 150.264 70.2877 149.456 70.2877 148.416V141.288H68.9437C68.7997 141.288 68.6757 141.244 68.5717 141.156C68.4677 141.06 68.4157 140.92 68.4157 140.736V139.692L70.3957 139.404L70.9597 135.864C70.9997 135.728 71.0677 135.62 71.1637 135.54C71.2597 135.452 71.3877 135.408 71.5477 135.408H72.8677V139.428H76.2637V141.288H72.8677V148.236C72.8677 148.676 72.9757 149.012 73.1917 149.244C73.4077 149.476 73.6957 149.592 74.0557 149.592C74.2557 149.592 74.4277 149.568 74.5717 149.52C74.7157 149.464 74.8397 149.408 74.9437 149.352C75.0477 149.288 75.1357 149.232 75.2077 149.184C75.2877 149.128 75.3637 149.1 75.4357 149.1C75.5797 149.1 75.6957 149.18 75.7837 149.34L76.5517 150.6C76.1517 150.952 75.6797 151.224 75.1357 151.416C74.5917 151.6 74.0317 151.692 73.4557 151.692ZM84.5973 146.148C83.6773 146.18 82.9013 146.256 82.2693 146.376C81.6373 146.488 81.1253 146.636 80.7333 146.82C80.3413 146.996 80.0573 147.208 79.8813 147.456C79.7133 147.704 79.6293 147.976 79.6293 148.272C79.6293 148.56 79.6733 148.808 79.7613 149.016C79.8573 149.216 79.9853 149.384 80.1453 149.52C80.3133 149.648 80.5053 149.744 80.7213 149.808C80.9453 149.864 81.1893 149.892 81.4533 149.892C82.1253 149.892 82.7013 149.768 83.1813 149.52C83.6693 149.264 84.1413 148.896 84.5973 148.416V146.148ZM77.7573 140.964C79.1413 139.676 80.7893 139.032 82.7013 139.032C83.4053 139.032 84.0293 139.148 84.5733 139.38C85.1253 139.604 85.5853 139.924 85.9533 140.34C86.3293 140.756 86.6133 141.252 86.8053 141.828C87.0053 142.396 87.1053 143.028 87.1053 143.724V151.5H85.9533C85.7053 151.5 85.5173 151.464 85.3893 151.392C85.2613 151.312 85.1533 151.156 85.0653 150.924L84.8133 149.928C84.5013 150.208 84.1933 150.46 83.8893 150.684C83.5853 150.9 83.2693 151.084 82.9413 151.236C82.6213 151.388 82.2733 151.5 81.8973 151.572C81.5293 151.652 81.1213 151.692 80.6733 151.692C80.1773 151.692 79.7133 151.624 79.2813 151.488C78.8573 151.352 78.4893 151.148 78.1773 150.876C77.8653 150.596 77.6173 150.252 77.4333 149.844C77.2573 149.436 77.1693 148.956 77.1693 148.404C77.1693 147.932 77.2933 147.472 77.5413 147.024C77.7973 146.576 78.2133 146.176 78.7893 145.824C79.3733 145.464 80.1373 145.168 81.0813 144.936C82.0333 144.704 83.2053 144.572 84.5973 144.54V143.724C84.5973 142.844 84.4093 142.188 84.0333 141.756C83.6573 141.324 83.1053 141.108 82.3773 141.108C81.8813 141.108 81.4653 141.172 81.1293 141.3C80.7933 141.42 80.5013 141.552 80.2533 141.696C80.0053 141.84 79.7853 141.976 79.5933 142.104C79.4013 142.224 79.1973 142.284 78.9813 142.284C78.8053 142.284 78.6533 142.24 78.5253 142.152C78.4053 142.056 78.3053 141.94 78.2253 141.804L77.7573 140.964ZM98.5396 141.66C98.4596 141.764 98.3836 141.844 98.3116 141.9C98.2396 141.956 98.1356 141.984 97.9996 141.984C97.8636 141.984 97.7196 141.936 97.5676 141.84C97.4236 141.744 97.2476 141.64 97.0396 141.528C96.8396 141.408 96.5956 141.3 96.3076 141.204C96.0196 141.108 95.6596 141.06 95.2276 141.06C94.6676 141.06 94.1756 141.16 93.7516 141.36C93.3356 141.56 92.9836 141.848 92.6956 142.224C92.4156 142.592 92.2036 143.044 92.0596 143.58C91.9236 144.108 91.8556 144.704 91.8556 145.368C91.8556 146.056 91.9316 146.668 92.0836 147.204C92.2356 147.74 92.4516 148.192 92.7316 148.56C93.0196 148.928 93.3636 149.208 93.7636 149.4C94.1716 149.592 94.6276 149.688 95.1316 149.688C95.6276 149.688 96.0316 149.628 96.3436 149.508C96.6556 149.388 96.9156 149.256 97.1236 149.112C97.3316 148.968 97.5076 148.836 97.6516 148.716C97.8036 148.596 97.9636 148.536 98.1316 148.536C98.3396 148.536 98.4996 148.616 98.6116 148.776L99.3436 149.724C99.0476 150.084 98.7196 150.388 98.3596 150.636C97.9996 150.884 97.6196 151.088 97.2196 151.248C96.8196 151.4 96.4036 151.508 95.9716 151.572C95.5396 151.644 95.1036 151.68 94.6636 151.68C93.9036 151.68 93.1916 151.54 92.5276 151.26C91.8716 150.972 91.2956 150.56 90.7996 150.024C90.3116 149.48 89.9236 148.82 89.6356 148.044C89.3556 147.26 89.2156 146.368 89.2156 145.368C89.2156 144.464 89.3436 143.628 89.5996 142.86C89.8556 142.084 90.2276 141.416 90.7156 140.856C91.2116 140.296 91.8236 139.86 92.5516 139.548C93.2796 139.228 94.1196 139.068 95.0716 139.068C95.9596 139.068 96.7396 139.212 97.4116 139.5C98.0916 139.788 98.6956 140.196 99.2236 140.724L98.5396 141.66ZM105.103 151.692C104.087 151.692 103.303 151.408 102.751 150.84C102.207 150.264 101.935 149.456 101.935 148.416V141.288H100.591C100.447 141.288 100.323 141.244 100.219 141.156C100.115 141.06 100.063 140.92 100.063 140.736V139.692L102.043 139.404L102.607 135.864C102.647 135.728 102.715 135.62 102.811 135.54C102.907 135.452 103.035 135.408 103.195 135.408H104.515V139.428H107.911V141.288H104.515V148.236C104.515 148.676 104.623 149.012 104.839 149.244C105.055 149.476 105.343 149.592 105.703 149.592C105.903 149.592 106.075 149.568 106.219 149.52C106.363 149.464 106.487 149.408 106.591 149.352C106.695 149.288 106.783 149.232 106.855 149.184C106.935 149.128 107.011 149.1 107.083 149.1C107.227 149.1 107.343 149.18 107.431 149.34L108.199 150.6C107.799 150.952 107.327 151.224 106.783 151.416C106.239 151.6 105.679 151.692 105.103 151.692ZM112.332 133.74V151.5H109.752V133.74H112.332ZM123.305 144C123.305 143.568 123.241 143.168 123.113 142.8C122.993 142.424 122.813 142.1 122.573 141.828C122.333 141.548 122.033 141.332 121.673 141.18C121.321 141.02 120.913 140.94 120.449 140.94C119.513 140.94 118.777 141.208 118.241 141.744C117.705 142.28 117.365 143.032 117.221 144H123.305ZM117.149 145.584C117.181 146.28 117.289 146.884 117.473 147.396C117.657 147.9 117.901 148.32 118.205 148.656C118.517 148.992 118.885 149.244 119.309 149.412C119.741 149.572 120.221 149.652 120.749 149.652C121.253 149.652 121.689 149.596 122.057 149.484C122.425 149.364 122.745 149.236 123.017 149.1C123.289 148.956 123.521 148.828 123.713 148.716C123.905 148.596 124.081 148.536 124.241 148.536C124.449 148.536 124.609 148.616 124.721 148.776L125.453 149.724C125.149 150.084 124.805 150.388 124.421 150.636C124.037 150.884 123.629 151.088 123.197 151.248C122.765 151.4 122.321 151.508 121.865 151.572C121.409 151.644 120.965 151.68 120.533 151.68C119.685 151.68 118.897 151.54 118.169 151.26C117.449 150.972 116.821 150.552 116.285 150C115.757 149.448 115.341 148.764 115.037 147.948C114.741 147.132 114.593 146.192 114.593 145.128C114.593 144.28 114.725 143.488 114.989 142.752C115.261 142.016 115.645 141.376 116.141 140.832C116.645 140.288 117.253 139.86 117.965 139.548C118.685 139.228 119.497 139.068 120.401 139.068C121.153 139.068 121.849 139.192 122.489 139.44C123.129 139.68 123.681 140.036 124.145 140.508C124.609 140.98 124.969 141.56 125.225 142.248C125.489 142.928 125.621 143.704 125.621 144.576C125.621 144.976 125.577 145.244 125.489 145.38C125.401 145.516 125.241 145.584 125.009 145.584H117.149ZM135.095 141.48C135.031 141.592 134.959 141.672 134.879 141.72C134.799 141.768 134.699 141.792 134.579 141.792C134.443 141.792 134.295 141.752 134.135 141.672C133.975 141.584 133.787 141.488 133.571 141.384C133.355 141.28 133.099 141.188 132.803 141.108C132.515 141.02 132.175 140.976 131.783 140.976C131.463 140.976 131.171 141.016 130.907 141.096C130.651 141.168 130.431 141.276 130.247 141.42C130.071 141.556 129.935 141.72 129.839 141.912C129.743 142.096 129.695 142.296 129.695 142.512C129.695 142.8 129.783 143.04 129.959 143.232C130.135 143.424 130.367 143.592 130.655 143.736C130.943 143.872 131.271 143.996 131.639 144.108C132.007 144.22 132.383 144.34 132.767 144.468C133.151 144.596 133.527 144.744 133.895 144.912C134.263 145.08 134.591 145.288 134.879 145.536C135.167 145.776 135.399 146.072 135.575 146.424C135.751 146.768 135.839 147.188 135.839 147.684C135.839 148.26 135.735 148.792 135.527 149.28C135.319 149.768 135.015 150.192 134.615 150.552C134.215 150.912 133.715 151.192 133.115 151.392C132.523 151.592 131.843 151.692 131.075 151.692C130.651 151.692 130.239 151.652 129.839 151.572C129.447 151.5 129.071 151.4 128.711 151.272C128.359 151.136 128.027 150.976 127.715 150.792C127.411 150.608 127.139 150.408 126.899 150.192L127.499 149.208C127.571 149.088 127.659 148.996 127.763 148.932C127.875 148.86 128.011 148.824 128.171 148.824C128.339 148.824 128.503 148.88 128.663 148.992C128.831 149.096 129.023 149.212 129.239 149.34C129.463 149.468 129.731 149.588 130.043 149.7C130.355 149.804 130.743 149.856 131.207 149.856C131.591 149.856 131.923 149.812 132.203 149.724C132.483 149.628 132.715 149.5 132.899 149.34C133.083 149.18 133.219 149 133.307 148.8C133.395 148.592 133.439 148.372 133.439 148.14C133.439 147.828 133.351 147.572 133.175 147.372C132.999 147.172 132.763 147 132.467 146.856C132.179 146.712 131.847 146.584 131.471 146.472C131.103 146.36 130.727 146.24 130.343 146.112C129.959 145.984 129.579 145.836 129.203 145.668C128.835 145.5 128.503 145.288 128.207 145.032C127.919 144.768 127.687 144.452 127.511 144.084C127.335 143.708 127.247 143.252 127.247 142.716C127.247 142.228 127.343 141.764 127.535 141.324C127.735 140.884 128.023 140.496 128.399 140.16C128.783 139.824 129.251 139.56 129.803 139.368C130.363 139.168 131.007 139.068 131.735 139.068C132.559 139.068 133.307 139.2 133.979 139.464C134.651 139.728 135.215 140.088 135.671 140.544L135.095 141.48ZM145.332 141.48C145.268 141.592 145.196 141.672 145.116 141.72C145.036 141.768 144.936 141.792 144.816 141.792C144.68 141.792 144.532 141.752 144.372 141.672C144.212 141.584 144.024 141.488 143.808 141.384C143.592 141.28 143.336 141.188 143.04 141.108C142.752 141.02 142.412 140.976 142.02 140.976C141.7 140.976 141.408 141.016 141.144 141.096C140.888 141.168 140.668 141.276 140.484 141.42C140.308 141.556 140.172 141.72 140.076 141.912C139.98 142.096 139.932 142.296 139.932 142.512C139.932 142.8 140.02 143.04 140.196 143.232C140.372 143.424 140.604 143.592 140.892 143.736C141.18 143.872 141.508 143.996 141.876 144.108C142.244 144.22 142.62 144.34 143.004 144.468C143.388 144.596 143.764 144.744 144.132 144.912C144.5 145.08 144.828 145.288 145.116 145.536C145.404 145.776 145.636 146.072 145.812 146.424C145.988 146.768 146.076 147.188 146.076 147.684C146.076 148.26 145.972 148.792 145.764 149.28C145.556 149.768 145.252 150.192 144.852 150.552C144.452 150.912 143.952 151.192 143.352 151.392C142.76 151.592 142.08 151.692 141.312 151.692C140.888 151.692 140.476 151.652 140.076 151.572C139.684 151.5 139.308 151.4 138.948 151.272C138.596 151.136 138.264 150.976 137.952 150.792C137.648 150.608 137.376 150.408 137.136 150.192L137.736 149.208C137.808 149.088 137.896 148.996 138 148.932C138.112 148.86 138.248 148.824 138.408 148.824C138.576 148.824 138.74 148.88 138.9 148.992C139.068 149.096 139.26 149.212 139.476 149.34C139.7 149.468 139.968 149.588 140.28 149.7C140.592 149.804 140.98 149.856 141.444 149.856C141.828 149.856 142.16 149.812 142.44 149.724C142.72 149.628 142.952 149.5 143.136 149.34C143.32 149.18 143.456 149 143.544 148.8C143.632 148.592 143.676 148.372 143.676 148.14C143.676 147.828 143.588 147.572 143.412 147.372C143.236 147.172 143 147 142.704 146.856C142.416 146.712 142.084 146.584 141.708 146.472C141.34 146.36 140.964 146.24 140.58 146.112C140.196 145.984 139.816 145.836 139.44 145.668C139.072 145.5 138.74 145.288 138.444 145.032C138.156 144.768 137.924 144.452 137.748 144.084C137.572 143.708 137.484 143.252 137.484 142.716C137.484 142.228 137.58 141.764 137.772 141.324C137.972 140.884 138.26 140.496 138.636 140.16C139.02 139.824 139.488 139.56 140.04 139.368C140.6 139.168 141.244 139.068 141.972 139.068C142.796 139.068 143.544 139.2 144.216 139.464C144.888 139.728 145.452 140.088 145.908 140.544L145.332 141.48Z" fill="#181818"/>
<rect x="4.5" y="11.5" width="164" height="162" rx="19.5" stroke="#DDDDDD" shape-rendering="crispEdges"/>
</g>
<defs>
<filter id="filter0_d_482_13557" x="0" y="0.571289" width="177" height="182.429" filterUnits="userSpaceOnUse" color-interpolation-filters="sRGB">
<feFlood flood-opacity="0" result="BackgroundImageFix"/>
<feColorMatrix in="SourceAlpha" type="matrix" values="0 0 0 0 0 0 0 0 0 0 0 0 0 0 0 0 0 0 127 0" result="hardAlpha"/>
<feOffset dx="2" dy="3"/>
<feGaussianBlur stdDeviation="3"/>
<feComposite in2="hardAlpha" operator="out"/>
<feColorMatrix type="matrix" values="0 0 0 0 0 0 0 0 0 0 0 0 0 0 0 0 0 0 0.06 0"/>
<feBlend mode="normal" in2="BackgroundImageFix" result="effect1_dropShadow_482_13557"/>
<feBlend mode="normal" in="SourceGraphic" in2="effect1_dropShadow_482_13557" result="shape"/>
</filter>
</defs>
</svg>
